<?xml version="1.0" encoding="UTF-8"?>
<svg width="1571px" height="1633px" viewBox="0 0 1571 1633" version="1.1" xmlns="http://www.w3.org/2000/svg" xmlns:xlink="http://www.w3.org/1999/xlink">
    <title>iStock-480620304</title>
    <defs>
        <path d="M557.460809,0.717820061 C598.687103,3.60111376 625.761231,28.9740983 634.276558,61.2958206 C640.456418,84.7610258 642.023007,116.780002 641.268546,159.385472 C640.466029,204.701238 675.310633,223.461869 709.170112,234.336692 C720.352486,237.921587 727.392528,242.208084 726.147907,246.763688 C724.989207,251.02212 702.134914,252.456032 678.592912,254.124093 L676.986956,254.238223 C674.309409,254.429164 671.629148,254.624027 668.976998,254.827299 C615.770618,258.902354 603.569481,247.306708 607.558037,190.885456 C609.893505,157.84291 621.849563,118.899223 614.780687,79.441349 C607.481149,38.690798 568.225105,31.7420602 541.761275,44.1065847 C455.497933,84.4150306 444.589472,168.117047 441.461098,220.285441 C438.327919,272.453835 442.595193,392.759264 521.876159,473.611625 C574.914347,527.697409 671.00972,515.515493 672.720474,469.310712 C672.806973,467.03291 673.787293,468.301559 673.883403,469.512542 C705.205583,848.396556 325.456582,1115.71152 41.0532968,1233.58057 C-22.9846563,1260.12609 23.6958687,1194.12269 1.09264181e-13,1175.67442 C6.51143827,1130.80076 286.114039,397.57917 286.114039,397.57917 C302.875586,382.004579 315.807159,355.949214 319.324777,334.684923 C329.603719,272.40578 337.090672,209.002151 348.494098,166.598512" id="path-1"></path>
    </defs>
    <g id="Page-1" stroke="none" stroke-width="1" fill="none" fill-rule="evenodd">
        <g id="iStock-1275739749" transform="translate(-8001.000000, -308.000000)">
            <g id="iStock-480620304" transform="translate(8001.980859, 308.249341)">
                <g id="Group-11" transform="translate(0.000000, 0.000000)">
                    <path d="M814.544404,1215.6577 L695.123185,1215.6577 L605.721858,1040.04109 C600.080214,1028.96443 586.528733,1024.51455 575.432858,1030.18503 C564.346594,1035.82667 559.925544,1049.38296 565.581605,1060.46922 L644.574241,1215.6577 L622.468989,1215.6577 L556.537673,1086.1834 C550.896029,1075.09713 537.325326,1070.70011 526.234257,1076.33695 C515.157603,1081.9834 510.741359,1095.54929 516.392614,1106.64036 L571.905629,1215.6577 L520.38117,1215.6577 C507.944564,1215.6577 497.857841,1225.74923 497.857841,1238.18583 C497.857841,1250.62244 507.944564,1260.70916 520.38117,1260.70916 L814.544404,1260.70916 C826.981011,1260.70916 837.072539,1250.62244 837.072539,1238.18583 C837.072539,1225.74923 826.981011,1215.6577 814.544404,1215.6577" id="Fill-3" fill="#111111"></path>
                    <path d="M878.827437,335.239163 C886.833383,276.285418 918.482337,266.986796 927.877069,263.877644 L840.090387,71.81184 C745.403022,78.7653833 682.451109,120.092593 669.341734,239.484979 C659.399176,330.058845 673.18132,461.123766 765.038252,554.797173 C818.076439,608.882957 904.03223,566.296709 905.742984,520.087122 C908.510946,445.356955 873.099294,377.407333 878.827437,335.239163" id="Fill-4" fill="#FFF100"></path>
                    <path d="M345.278744,1175.92591 C276.9591,1342.44573 186.457316,1555.86233 142.861916,1627.46893 C131.146132,1646.69569 5.4969986,1602.98496 0.167710748,1585.55545 C-6.8531094,1562.73418 208.725955,1211.34717 239.658891,1163.45086 C295.162294,1077.51429 345.278744,1175.92591 345.278744,1175.92591" id="Fill-5" fill="#111111"></path>
                    <path d="M809.431364,63.6809518 C962.664007,-4.44647277 1201.48242,-29.502295 1394.08163,47.0203197 C1464.72233,75.0699619 1529.41383,123.759181 1556.42068,188.119102 C1571.02504,222.882013 1573.84058,264.593662 1557.27125,317.516518 C1556.59368,319.597295 1555.38269,320.563198 1554.92137,318.453588 C1549.66416,294.733692 1490.24909,142.116151 850.864294,223.617253 C850.864294,223.617253 858.423329,169.012476 852.906627,129.886181 C848.331801,97.3386002 804.573014,65.8386166 809.431364,63.6809518" id="Fill-6" fill="#F6AC33"></path>
                    <path d="M1007.01868,293.373739 C1106.34334,278.025005 1388.61779,242.944932 1523.82504,286.208754 C1538.01565,290.754747 1544.68567,292.70097 1527.89049,276.597775 C1482.08456,232.670795 1339.24619,142.84178 850.864294,218.052496 C850.864294,218.052496 827.970942,271.35018 866.400442,292.494334 C890.206836,305.574876 936.570199,304.267783 1007.01868,293.373739" id="Fill-7" fill="#EB6100"></path>
                    <path d="M847.433174,132.803113 C847.433174,172.98181 814.856761,205.558224 774.687675,205.558224 C734.49456,205.558224 701.927758,172.98181 701.927758,132.803113 C701.927758,92.6196095 734.49456,60.0528072 774.687675,60.0528072 C814.856761,60.0528072 847.433174,92.6196095 847.433174,132.803113" id="Fill-8" fill="#F6AC33"></path>
                    <path d="M745.53277,137.445216 C745.53277,153.956877 758.916058,167.344971 775.446942,167.344971 C791.97302,167.344971 805.346698,153.956877 805.346698,137.445216 C805.346698,120.919137 791.97302,107.535849 775.446942,107.535849 C758.916058,107.535849 745.53277,120.919137 745.53277,137.445216" id="Fill-9" fill="#2F2725"></path>
                    <path d="M941.284384,286.083811 C907.424905,275.208988 872.580301,256.448357 873.382818,211.132591 C874.13728,168.527122 872.57069,136.508145 866.390831,113.04294 C857.875503,80.7212175 830.801375,55.348233 789.575081,52.4649393 C732.500282,48.4667721 624.319103,55.80956 580.60837,218.345631 C569.204944,260.74927 561.717991,324.152899 551.439049,386.432043 C547.921431,407.696334 534.989859,433.751698 518.228311,449.326289 C518.228311,449.326289 238.62571,1182.54788 232.114272,1227.42154 C255.810141,1245.86981 209.129616,1311.87321 273.167569,1285.32769 C557.570854,1167.45864 937.319855,900.143675 905.997675,521.259661 C905.901565,520.048678 904.921245,518.780029 904.834747,521.057831 C903.123992,567.262612 807.028619,579.444528 753.990431,525.358744 C674.709466,444.506383 670.442191,324.200954 673.57537,272.03256 C676.703744,219.864166 687.612205,136.16215 773.875547,95.853704 C800.339377,83.4891795 839.595421,90.4379173 846.89496,131.188468 C853.963835,170.646342 842.007777,209.590029 839.672309,242.632575 C835.683753,299.053827 847.884891,310.649473 901.09127,306.574418 C927.612767,304.541696 956.945475,303.349935 958.262179,298.510807 C959.5068,293.955203 952.466758,289.668706 941.284384,286.083811" id="Fill-10" fill="#2F2725"></path>
                </g>
                <g id="Group-14" transform="translate(232.114272, 51.747119)">
                    <mask id="mask-2" fill="white">
                        <use xlink:href="#path-1"></use>
                    </mask>
                    <g id="Clip-13"></g>
                    <path d="M17.7082288,1239.79406 C7.74164358,1239.79406 5.33409334,1233.29704 5.32928785,1224.30117 C5.32928785,1215.9252 7.40525931,1205.39156 7.40525931,1195.90072 C7.40525931,1187.66892 5.84347523,1180.22522 1.09264181e-13,1175.67442 C2.37391181,1159.31653 41.0388803,1051.48135 89.2139125,921.060363 L459.164521,442.395165 L659.423685,642.654329 C620.710662,794.522213 516.984171,923.213222 392.521993,1025.44521 C380.676461,1035.17152 368.648321,1044.65755 356.4616,1053.90331 C351.146728,1057.93993 345.803024,1061.92848 340.430487,1065.87379 C328.157267,1074.87928 315.759104,1083.64449 303.260026,1092.16462 C216.174945,1151.53644 124.510233,1198.99065 41.0532968,1233.58057 C30.5677187,1237.92473 23.0519331,1239.79406 17.7082288,1239.79406" id="Fill-12" fill="#1F1917" mask="url(#mask-2)"></path>
                </g>
                <g id="Group-24" transform="translate(181.586914, 67.176096)">
                    <path d="M260.484,1067.413 C480.734,890.138488 575.392532,681.29672 549.630303,515.858133 C530.134432,390.478107 383.542975,306.026434 267.999785,411.675121 C172.394572,499.067753 52.7042451,755.455034 7.77291834,1078.48004 C-22.0018946,1292.52615 27.8838919,1254.60123 260.484,1067.413" id="Fill-15" fill="#4C4948"></path>
                    <path d="M1203.09999,0.579910935 C1241.8082,6.11102934 1274.23084,19.3405419 1302.66973,38.6586097 C1334.50129,60.3361728 1360.55665,86.9393626 1374.83376,120.943006 C1389.43813,155.705917 1393.38776,208.023281 1380.71568,251.734014 C1379.25962,256.770167 1374.08891,256.145453 1372.08502,250.965136 C1365.86672,234.900384 1345.73653,184.442744 1226.59402,137.445057 C1128.38904,98.7128119 1137.24556,-8.82443201 1203.09999,0.579910935" id="Fill-17" fill="#2F2725"></path>
                </g>
            </g>
        </g>
    </g>
</svg>