<?xml version="1.0" encoding="UTF-8"?>
<svg width="550px" height="545px" viewBox="0 0 550 545" version="1.1" xmlns="http://www.w3.org/2000/svg" xmlns:xlink="http://www.w3.org/1999/xlink">
    <title>Group</title>
    <g id="Page-1" stroke="none" stroke-width="1" fill="none" fill-rule="evenodd">
        <g id="North-America" transform="translate(-2432.000000, -862.000000)">
            <g id="Group" transform="translate(2432.539099, 862.665188)">
                <path d="M549.34,344.574799 C549.33,402.069799 426.36,438.643799 274.67,438.633801 C122.97,438.643799 -0.01,402.074799 0,344.574799 C0,287.051799 131.71,239.394799 283.42,239.392799 C435.13,239.390799 549.32,287.043799 549.34,344.574799" id="Fill-9" fill="#3F3D3B"></path>
                <path d="M442.35,315.712799 C442.35,343.116799 367.28,365.331799 274.67,365.331799 C182.06,365.331799 106.99,343.116799 106.99,315.712799 C106.99,288.308799 182.06,266.092799 274.67,266.092799 C367.28,266.092799 442.35,288.308799 442.35,315.712799" id="Fill-10" fill="#1D1815"></path>
                <path d="M397.18,161.475799 C427.53,115.770799 448.73,6.48979905 439.46,3.08479905 C430.16,-0.328200954 375.46,28.536799 337.33,67.336799 C304.68,100.583799 287.94,156.652799 282.37,190.647799 C280.99,199.055799 278.4,204.667799 273.23,204.623799 C268.06,204.578799 265.58,198.922799 264.35,190.492799 C259.36,156.405799 243.59,100.056799 211.51,66.249799 C174.07,26.795799 119.87,-3.00920095 110.52,0.242799046 C101.19,3.48579905 120.5,113.117799 150.05,159.339799 C166.89,185.670799 181.85,200.278799 195.88,226.608799 C200.56,235.394799 201.51,246.003799 198.05,256.481799 C195.25,264.898799 193.72,273.720799 193.39,282.188799 C193.1,289.716799 192.47,302.452799 191.59,307.860799 C188.62,325.975799 159.71,353.821799 168.97,390.849799 C177.45,424.773799 211.29,435.363799 228.83,438.093799 C248.67,441.173799 271.28,431.003799 271.28,431.003799 C271.28,431.003799 293.7,441.563799 313.6,438.823799 C331.18,436.403799 365.2,426.393799 374.26,392.624799 C384.15,355.761799 355.73,327.419799 353.08,309.256799 C352.29,303.833799 351.89,291.088799 351.72,283.557799 C351.54,275.084799 350.15,266.237799 347.51,257.773799 C344.23,247.237799 345.36,236.645799 350.19,227.942799 C364.68,201.858799 379.89,187.511799 397.18,161.475799" id="Fill-11" fill="#E7CFB8"></path>
                <path d="M303.52,428.883799 C303.4,442.493799 288.9,452.023799 271.1,451.873799 C253.3,451.713799 238.95,441.933799 239.07,428.333799 C239.19,414.713799 253.71,403.813799 271.51,403.963799 C289.31,404.123799 303.64,415.273799 303.52,428.883799" id="Fill-12" fill="#C6B69F"></path>
                <path d="M272.01,346.582799 C234.27,346.255799 189.06,377.662799 202.63,419.023799 C210.83,444.043799 231.68,453.613799 262.01,438.643799 C264.86,437.223799 268.86,435.583799 271.29,429.903799 C273.62,435.623799 277.58,437.353799 280.41,438.793799 C314.07,455.843799 330.23,443.383799 338.87,418.673799 C352.14,380.692799 309.75,346.908799 272.01,346.582799" id="Fill-13" fill="#EBE4D7"></path>
                <path d="M108.87,3.21479905 C112.99,-0.660200954 174.12,45.881799 200.55,85.371799 C222.42,118.051799 224.98,187.097799 216.98,215.277799 C213.39,227.932799 208.84,236.116799 205.87,239.213799 C202.21,243.026799 199.82,241.373799 199.19,239.763799 C197.56,235.569799 195,226.568799 181.49,208.707799 C151.29,168.813799 117.24,155.870799 108.59,86.422799 C102.84,40.350799 107.07,4.91479905 108.87,3.21479905" id="Fill-14" fill="#FFF1D9"></path>
                <path d="M441.06,6.08579905 C437.01,2.14079905 375.08,47.618799 347.97,86.645799 C325.54,118.943799 321.78,187.934799 329.3,216.249799 C332.67,228.963799 337.08,237.224799 339.99,240.372799 C343.58,244.248799 345.99,242.636799 346.65,241.037799 C348.35,236.872799 351.07,227.917799 364.89,210.292799 C395.77,170.926799 430.04,158.574799 439.9,89.285799 C446.44,43.319799 442.83,7.81679905 441.06,6.08579905" id="Fill-15" fill="#FFF1D9"></path>
                <path d="M295.03,322.377799 C291.87,307.965799 272.34,308.567799 272.34,308.567799 C272.34,308.567799 252.82,307.628799 249.41,321.982799 C245.69,337.609799 231.41,352.704799 231.54,361.998799 C231.67,371.358799 241.2,379.139799 250.51,386.610799 C258.32,392.888799 263.34,398.369799 271.56,398.441492 C279.78,398.511799 284.89,393.118799 292.82,386.976799 C302.25,379.666799 312.68,369.501799 312.2,362.695799 C311.55,353.422799 298.47,338.065799 295.03,322.377799" id="Fill-16" fill="#E7CFB8"></path>
                <path d="M308.53,371.643799 C304.71,376.586799 298.28,382.739799 292.82,386.976799 C284.89,393.118799 278.66,397.680799 271.57,397.619799 C264.48,397.558799 258.32,392.888799 250.51,386.610799 C245.11,382.279799 238.79,376.017799 235.06,371.008799 C234.49,370.233799 234.33,370.853799 234.54,371.660799 C235.15,374.085799 237.22,378.167799 239.78,381.677799 C245.08,388.923799 252.4,395.449799 260.08,400.391799 C265.48,403.873799 268.73,405.113799 269.73,410.383799 C270.46,414.293799 270.63,422.193799 270.36,427.223799 C270.18,430.943799 269.16,432.773799 266.45,434.703799 C262.66,437.403799 255.98,440.853799 247.3,444.063799 C246.04,444.523799 247.38,444.803799 248.16,444.653799 C255.66,443.153799 266.75,438.103799 271.22,438.143799 C275.68,438.173799 286.68,443.423799 294.15,445.043799 C294.93,445.213799 296.28,444.953799 295.03,444.473799 C286.39,441.113799 279.79,437.553799 276.04,434.783799 C273.36,432.813799 272.38,430.963799 272.25,427.233799 C272.08,422.203799 272.38,414.313799 273.18,410.413799 C274.27,405.163799 277.54,403.973799 283,400.588799 C290.76,395.780799 298.2,389.382799 303.62,382.228799 C306.24,378.764799 308.39,374.718799 309.04,372.304799 C309.25,371.500799 309.11,370.878799 308.53,371.643799" id="Fill-17" fill="#1D1815"></path>
                <path d="M244.45,290.878799 C244.36,301.035799 237.43,309.215799 228.96,309.142799 C220.49,309.069799 213.7,300.770799 213.79,290.613799 C213.88,280.453799 220.81,272.277799 229.28,272.350799 C237.75,272.423799 244.54,280.718799 244.45,290.878799" id="Fill-18" fill="#2D2826"></path>
                <path d="M239.050051,282.292799 C239.03,284.102799 237.55,285.561799 235.73,285.545799 C233.92,285.529799 232.46,284.045799 232.48,282.235799 C232.49,280.419799 233.98,278.958799 235.78,278.974799 C237.61,278.989799 239.06,280.476799 239.050051,282.292799" id="Fill-19" fill="#FFFFFE"></path>
                <path d="M331.19,291.628799 C331.1,301.784799 324.16,309.965799 315.69,309.892799 C307.22,309.818799 300.43,301.519799 300.52,291.363799 C300.61,281.203799 307.54,273.027799 316.01,273.100799 C324.48,273.173799 331.27,281.468799 331.19,291.628799" id="Fill-20" fill="#2D2826"></path>
                <path d="M325.78,283.042799 C325.77,284.852799 324.28,286.310799 322.47,286.294799 C320.65,286.279799 319.2,284.794799 319.209949,282.985799 C319.23,281.169799 320.7,279.707799 322.53,279.724799 C324.34,279.739799 325.8,281.226799 325.78,283.042799" id="Fill-21" fill="#FFFFFE"></path>
                <path d="M99.0364979,543.523799 L450.064026,543.523799 C445.721342,505.163799 440.793333,454.979132 435.28,392.969799 L114.05,392.969799 C108.543333,454.979132 103.538833,505.163799 99.0364979,543.523799 Z" id="Fill-22" fill="#1D1815"></path>
                <path d="M115.32,378.046799 C113.44,401.318799 110.52,430.843799 107.26,462.373799 C131.67,476.423799 181.48,485.813799 274.67,485.813799 C367.86,485.813799 417.67,476.423799 442.07,462.373799 C438.81,430.843799 435.9,401.318799 434.01,378.046799 L115.32,378.046799" id="Fill-23" fill="#C8282B"></path>
                <path d="M442.19,317.456799 C439.08,344.050799 365.29,365.331799 274.66,365.331799 C184.03,365.331799 110.24,344.050799 107.13,317.456799 L9.99,317.456799 C3.5,326.127799 0,335.218799 0,344.574799 C-0.01,402.074799 122.97,438.643799 274.67,438.633801 C426.36,438.643799 549.33,402.069799 549.34,344.574799 C549.33,335.218799 546.3,326.127799 540.58,317.456799 L442.19,317.456799" id="Fill-24" fill="#3F3D3B"></path>
            </g>
        </g>
    </g>
</svg>