<?xml version="1.0" encoding="UTF-8"?>
<svg width="583px" height="946px" viewBox="0 0 583 946" version="1.1" xmlns="http://www.w3.org/2000/svg" xmlns:xlink="http://www.w3.org/1999/xlink">
    <title>Group 3</title>
    <g id="Page-1" stroke="none" stroke-width="1" fill="none" fill-rule="evenodd">
        <g id="North-America" transform="translate(-1420.000000, -778.000000)">
            <g id="Group-3" transform="translate(1420.875965, 778.922427)">
                <path d="M381.462958,880.687899 C376.822958,809.557899 370.533733,644.887899 372.083733,572.219899 L288.483733,541.751899 L204.893733,572.219899 C205.927067,620.665232 203.490669,723.487899 197.584539,880.687899 C255.697335,880.687899 284.753733,880.687899 284.753733,880.687899 C284.753733,880.687899 316.990142,880.687899 381.462958,880.687899 Z" id="Fill-27" fill="#A5845F"></path>
                <path d="M264.603733,239.159899 C124.193733,252.531899 97.1037334,389.651899 111.283733,404.161899 C129.993733,423.303899 168.683733,477.394899 174.633733,507.805899 C180.583733,538.216899 175.883733,603.199899 214.533733,625.086899 C249.073733,644.645899 281.633733,639.412899 302.533733,637.421899 C323.443733,635.430899 356.403733,634.423899 386.633733,608.694899 C420.453733,579.905899 403.563733,516.980899 403.673733,485.992899 C403.773733,455.004899 431.553733,394.580899 446.323733,372.249899 C457.513733,355.324899 405.013733,225.785899 264.603733,239.159899" id="Fill-28" fill="#F2CDB2"></path>
                <path d="M144.733733,334.508899 C136.703733,319.438899 122.883733,304.990899 103.603733,297.920899 C75.6137334,287.651899 21.4637334,283.082899 10.2337334,284.152899 C-0.996266624,285.221899 -1.86626662,290.969899 2.28373338,304.738899 C6.42373338,318.506899 30.8537334,381.139899 54.9137334,395.844899 C78.9737334,410.548899 105.023733,423.593899 124.403733,418.914899 C143.783733,414.236899 118.743733,394.321899 126.833733,375.138899 C134.923733,355.956899 148.603733,341.763899 144.733733,334.508899" id="Fill-29" fill="#F2CDB2"></path>
                <path d="M402.173733,309.990899 C407.213733,293.675899 418.063733,276.876899 435.653733,266.294899 C461.203733,250.927899 513.513733,236.218899 524.743733,235.149899 C535.973733,234.079899 537.913733,239.560899 536.443733,253.862899 C534.973733,268.166899 522.813733,334.284899 501.953733,353.265899 C481.103733,372.247899 457.983733,389.975899 438.063733,389.039899 C418.153733,388.104899 438.983733,363.821899 427.423733,346.510899 C415.853733,329.199899 399.743733,317.844899 402.173733,309.990899" id="Fill-30" fill="#F2CDB2"></path>
                <path d="M193.003733,412.081899 C208.463733,413.169899 215.193733,458.129899 206.143733,466.909899 C197.073733,475.689899 172.213733,458.925899 170.933733,438.594899 C169.663733,418.263899 189.013733,411.802899 193.003733,412.081899" id="Fill-31" fill="#1D1815"></path>
                <path d="M195.743733,427.685899 C195.943733,429.835899 194.373733,431.743899 192.223733,431.948899 C190.073733,432.153899 188.163733,430.576899 187.953733,428.426899 C187.753733,426.277899 189.333733,424.368899 191.483733,424.164899 C193.633733,423.959899 195.543733,425.535899 195.743733,427.685899" id="Fill-32" fill="#FFFFFE"></path>
                <path d="M367.573733,395.455899 C352.593733,399.442899 354.463733,444.866899 365.013733,451.777899 C375.573733,458.689899 396.823733,437.532899 394.243733,417.325899 C391.653733,397.119899 371.433733,394.427899 367.573733,395.455899" id="Fill-33" fill="#1D1815"></path>
                <path d="M367.823733,411.296899 C368.023733,413.445899 369.933733,415.021899 372.083733,414.819899 C374.233733,414.613899 375.813733,412.704899 375.603733,410.555899 C375.403733,408.404899 373.493733,406.828899 371.343733,407.033899 C369.193733,407.237899 367.613733,409.145899 367.823733,411.296899" id="Fill-34" fill="#FFFFFE"></path>
                <path d="M275.573733,574.911899 C276.003733,571.189899 271.843733,565.689899 268.693733,559.115899 C266.563733,554.643899 264.303733,548.224899 263.283733,545.493899 C261.763733,541.419899 257.573733,541.009899 254.943733,543.302899 C244.503733,552.382899 260.553733,569.746899 266.023733,574.262899 C271.483733,578.777899 275.103733,579.061899 275.573733,574.911899" id="Fill-35" fill="#1D1815"></path>
                <path d="M317.213733,570.945899 C316.093733,567.370899 319.143733,561.184899 320.983733,554.135899 C322.243733,549.341899 323.253733,542.610899 323.733733,539.735899 C324.453733,535.448899 328.493733,534.255899 331.513733,536.009899 C343.473733,542.956899 330.993733,563.038899 326.473733,568.505899 C321.963733,573.970899 318.463733,574.930899 317.213733,570.945899" id="Fill-36" fill="#1D1815"></path>
                <path d="M262.703733,745.867899 C253.853733,745.867899 244.703733,743.137899 237.373733,736.706899 C217.753733,719.508899 210.463733,667.384899 226.013733,667.384899 C227.143733,667.384899 228.393733,667.661899 229.783733,668.249899 C244.203733,674.389899 255.823733,689.428899 267.923733,698.119899 C282.303733,708.443899 295.903733,712.731899 295.373733,723.450899 C294.743733,736.312899 279.243733,745.867899 262.703733,745.867899" id="Fill-37" fill="#886D4F"></path>
                <path d="M280.653733,880.687899 L226.103733,880.687899 C219.563733,877.627899 214.693733,872.397899 213.153733,863.187899 C208.853733,837.357899 208.233733,770.427899 223.813733,770.427899 C224.403733,770.427899 225.013733,770.517899 225.653733,770.717899 C247.873733,777.587899 273.383733,793.347899 277.673733,817.697899 C280.853733,835.797899 286.263733,867.247899 280.653733,880.687899" id="Fill-38" fill="#886D4F"></path>
                <path d="M314.503733,874.447899 C307.003733,874.447899 304.143733,805.937899 312.333733,795.707899 C327.313733,776.977899 334.353733,742.297899 343.423733,742.297899 C345.173733,742.297899 347.003733,743.597899 348.973733,746.547899 C361.173733,764.797899 357.333733,809.597899 355.843733,825.937899 C354.363733,842.277899 322.893733,871.177899 315.013733,874.347899 C314.843733,874.417899 314.673733,874.447899 314.503733,874.447899" id="Fill-39" fill="#886D4F"></path>
                <path d="M346.633733,720.993899 C325.293733,720.993899 303.463733,695.400899 302.593733,677.686899 C302.053733,666.605899 329.283733,656.224899 346.043733,656.224899 C353.043733,656.224899 358.223733,658.035899 358.783733,662.361899 C360.703733,677.047899 363.123733,718.118899 351.823733,720.466899 C350.113733,720.823899 348.373733,720.993899 346.633733,720.993899" id="Fill-40" fill="#886D4F"></path>
                <path d="M421.503733,254.602899 C423.433733,272.156899 375.463733,297.687899 272.643733,308.991899 C160.623733,321.304899 117.673733,305.767899 115.733733,288.213899 C113.803733,270.654899 153.103733,251.928899 265.123733,239.615899 C367.953733,228.315899 419.563733,237.044899 421.503733,254.602899" id="Fill-41" fill="#2D2826"></path>
                <path d="M158.683733,25.128899 C162.473733,59.578899 173.633737,126.591899 173.003733,181.835899 C172.513733,225.713899 169.783733,264.586899 169.043733,271.137899 C168.303733,277.688899 165.233733,281.854899 175.563733,284.910899 C221.633737,298.536899 326.713733,277.777899 354.353733,263.106899 C361.833733,259.121899 360.623733,260.260899 357.123733,248.422899 C353.583733,236.377899 340.943733,185.391899 338.483733,143.025899 C336.053733,100.883899 344.183733,43.899899 347.333733,27.859899 C354.633737,-9.32110102 155.013733,-8.33110102 158.683733,25.128899" id="Fill-42" fill="#2D2826"></path>
                <path d="M354.353733,263.106899 C359.003733,260.642899 358.963733,258.124899 357.123733,248.422899 C355.913733,242.028899 352.473733,225.314899 347.283733,204.977899 C335.113733,208.082899 318.643733,211.956899 279.283733,219.574899 C226.713733,229.756899 195.633733,229.513899 171.343733,226.182899 C170.153733,250.305899 168.853733,268.556899 168.373733,272.766899 C167.633733,279.321899 165.233733,281.854899 175.563733,284.910899 C221.633733,298.536899 326.713733,277.777899 354.353733,263.106899" id="Fill-43" fill="#C8282B"></path>
                <path d="M405.603733,469.485899 C408.543733,454.941899 414.513733,437.712899 421.323733,421.432899 C421.883733,424.526899 422.183733,427.715899 422.183733,430.971899 C422.183733,446.140899 415.813733,459.820899 405.603733,469.485899" id="Fill-44" fill="#E7B866"></path>
                <path d="M369.153733,484.001899 C339.863733,484.001899 316.123733,460.261899 316.123733,430.971899 C316.123733,401.689899 339.863733,377.947899 369.153733,377.947899 C395.183733,377.947899 416.833733,396.701899 421.323733,421.432899 C414.513733,437.712899 408.543733,454.941899 405.603733,469.485899 C396.103733,478.483899 383.273733,484.001899 369.153733,484.001899 M369.473733,395.269899 C368.663733,395.269899 368.013733,395.338899 367.573733,395.455899 C352.593733,399.442899 354.463733,444.866899 365.013733,451.777899 C366.413733,452.690899 367.993733,453.114899 369.683733,453.114899 C380.773733,453.114899 396.483733,434.862899 394.243733,417.325899 C391.953733,399.424899 375.813733,395.269899 369.473733,395.269899" id="Fill-45" fill="#F5D5BD"></path>
                <path d="M369.683733,453.114899 C367.993733,453.114899 366.413733,452.690899 365.013733,451.777899 C354.463733,444.866899 352.593733,399.442899 367.573733,395.455899 C368.013733,395.338899 368.663733,395.269899 369.473733,395.269899 C375.813733,395.269899 391.953733,399.424899 394.243733,417.325899 C396.483733,434.862899 380.773733,453.114899 369.683733,453.114899 M371.713733,407.015899 C371.593733,407.015899 371.463733,407.021899 371.343733,407.033899 C369.193733,407.237899 367.613733,409.145899 367.823733,411.296899 C368.013733,413.320899 369.713733,414.836899 371.713733,414.837899 C371.833733,414.837899 371.963733,414.831899 372.083733,414.819899 C374.233733,414.613899 375.813733,412.704899 375.603733,410.555899 C375.413733,408.530899 373.713733,407.015899 371.713733,407.015899" id="Fill-46" fill="#48423F"></path>
                <path d="M371.713733,414.837899 C369.713733,414.836899 368.013733,413.320899 367.823733,411.296899 C367.613733,409.145899 369.193733,407.237899 371.343733,407.033899 C371.463733,407.021899 371.593733,407.015899 371.713733,407.015899 C373.713733,407.015899 375.413733,408.530899 375.603733,410.555899 C375.813733,412.704899 374.233733,414.613899 372.083733,414.819899 C371.963733,414.831899 371.833733,414.837899 371.713733,414.837899" id="Fill-47" fill="#FFFFFE"></path>
                <path d="M369.153733,484.000899 C339.873733,484.000899 316.123733,460.259899 316.123733,430.972899 C316.123733,401.689899 339.873733,377.948899 369.153733,377.948899 C398.443733,377.948899 422.183733,401.689899 422.183733,430.972899 C422.183733,460.259899 398.443733,484.000899 369.153733,484.000899 Z M438.793733,422.948899 L428.403733,422.948899 C424.473733,393.692899 399.483733,371.105899 369.153733,371.105899 C336.093733,371.105899 309.293733,397.911899 309.293733,430.972899 C309.293733,464.034899 336.093733,490.835899 369.153733,490.835899 C399.553733,490.835899 424.583733,468.165899 428.433733,438.822899 L438.793733,438.822899 C440.633733,438.822899 442.123733,437.334899 442.123733,435.496899 L442.123733,426.274899 C442.123733,424.438899 440.633733,422.948899 438.793733,422.948899 L438.793733,422.948899 Z" id="Fill-48" fill="#1D1815"></path>
                <path d="M298.263733,800.767899 C297.273733,799.407899 293.103733,799.077899 288.593733,798.987899 C284.063733,799.077899 279.893733,799.407899 278.903733,800.767899 C277.733733,802.377899 277.423733,830.257899 280.903733,831.417899 C282.013733,831.787899 284.623733,832.387899 288.593733,832.387899 C292.553733,832.387899 295.163733,831.787899 296.263733,831.417899 C299.743733,830.257899 299.433733,802.377899 298.263733,800.767899" id="Fill-49" fill="#010604"></path>
                <path d="M279.753733,801.207899 C268.843733,793.317899 252.603733,782.697899 237.133733,780.407899 C221.773733,778.117899 210.773733,779.647899 208.353733,780.567899 C205.923733,781.467899 205.963733,783.107899 205.193733,785.747899 C204.213733,789.117899 204.833733,812.267899 205.443733,821.037899 C207.283733,847.617899 214.013733,865.697899 216.433733,866.597899 C218.863733,867.507899 227.703733,867.137899 241.883733,860.777899 C258.483733,853.357899 271.583733,840.267899 281.573733,828.937899 L281.573733,817.867899 L279.753733,801.207899" id="Fill-50" fill="#010604"></path>
                <path d="M215.453733,787.727899 C215.453733,789.087899 214.353733,790.177899 212.993733,790.177899 C211.643733,790.177899 210.543733,789.087899 210.543733,787.727899 C210.543733,786.367899 211.643733,785.267899 212.993733,785.267899 C214.353733,785.267899 215.453733,786.367899 215.453733,787.727899" id="Fill-51" fill="#FFFFFE"></path>
                <path d="M228.603733,787.607899 C228.603733,788.977899 227.503733,790.077899 226.153733,790.077899 C224.783733,790.077899 223.693733,788.977899 223.693733,787.607899 C223.693733,786.257899 224.783733,785.157899 226.153733,785.157899 C227.503733,785.157899 228.603733,786.257899 228.603733,787.607899" id="Fill-52" fill="#FFFFFE"></path>
                <path d="M243.783733,789.747899 C243.783733,791.117899 242.683733,792.217899 241.323733,792.217899 C239.973733,792.217899 238.863733,791.117899 238.863733,789.747899 C238.863733,788.397899 239.973733,787.297899 241.323733,787.297899 C242.683733,787.297899 243.783733,788.397899 243.783733,789.747899" id="Fill-53" fill="#FFFFFE"></path>
                <path d="M259.173733,795.527899 C259.173733,796.877899 258.073733,797.987899 256.713733,797.987899 C255.363733,797.987899 254.263733,796.877899 254.263733,795.527899 C254.263733,794.167899 255.363733,793.067899 256.713733,793.067899 C258.073733,793.067899 259.173733,794.167899 259.173733,795.527899" id="Fill-54" fill="#FFFFFE"></path>
                <path d="M272.003733,802.587899 C272.003733,803.947899 270.903733,805.047899 269.543733,805.047899 C268.183733,805.047899 267.083733,803.947899 267.083733,802.587899 C267.083733,801.227899 268.183733,800.127899 269.543733,800.127899 C270.903733,800.127899 272.003733,801.227899 272.003733,802.587899" id="Fill-55" fill="#FFFFFE"></path>
                <path d="M213.323733,800.867899 C213.323733,802.237899 212.213733,803.327899 210.863733,803.327899 C209.503733,803.327899 208.403733,802.237899 208.403733,800.867899 C208.403733,799.517899 209.503733,798.417899 210.863733,798.417899 C212.213733,798.417899 213.323733,799.517899 213.323733,800.867899" id="Fill-56" fill="#FFFFFE"></path>
                <path d="M226.253733,802.057899 C226.253733,803.407899 225.153733,804.507899 223.793733,804.507899 C222.443733,804.507899 221.333733,803.407899 221.333733,802.057899 C221.333733,800.697899 222.443733,799.597899 223.793733,799.597899 C225.153733,799.597899 226.253733,800.697899 226.253733,802.057899" id="Fill-57" fill="#FFFFFE"></path>
                <path d="M243.143733,803.117899 C243.143733,804.477899 242.043733,805.577899 240.683733,805.577899 C239.333733,805.577899 238.223733,804.477899 238.223733,803.117899 C238.223733,801.757899 239.333733,800.657899 240.683733,800.657899 C242.043733,800.657899 243.143733,801.757899 243.143733,803.117899" id="Fill-58" fill="#FFFFFE"></path>
                <path d="M257.043733,808.677899 C257.043733,810.027899 255.933733,811.127899 254.583733,811.127899 C253.223733,811.127899 252.123733,810.027899 252.123733,808.677899 C252.123733,807.307899 253.223733,806.217899 254.583733,806.217899 C255.933733,806.217899 257.043733,807.307899 257.043733,808.677899" id="Fill-59" fill="#FFFFFE"></path>
                <path d="M269.653733,816.267899 C269.653733,817.617899 268.543733,818.727899 267.193733,818.727899 C265.843733,818.727899 264.733733,817.617899 264.733733,816.267899 C264.733733,814.907899 265.843733,813.807899 267.193733,813.807899 C268.543733,813.807899 269.653733,814.907899 269.653733,816.267899" id="Fill-60" fill="#FFFFFE"></path>
                <path d="M213.533733,816.917899 C213.533733,818.267899 212.433733,819.367899 211.073733,819.367899 C209.713733,819.367899 208.623733,818.267899 208.623733,816.917899 C208.623733,815.547899 209.713733,814.447899 211.073733,814.447899 C212.433733,814.447899 213.533733,815.547899 213.533733,816.917899" id="Fill-61" fill="#FFFFFE"></path>
                <path d="M226.473733,818.087899 C226.473733,819.437899 225.373733,820.537899 224.013733,820.537899 C222.653733,820.537899 221.553733,819.437899 221.553733,818.087899 C221.553733,816.717899 222.653733,815.627899 224.013733,815.627899 C225.373733,815.627899 226.473733,816.717899 226.473733,818.087899" id="Fill-62" fill="#FFFFFE"></path>
                <path d="M243.353733,816.697899 C243.353733,818.047899 242.253733,819.147899 240.893733,819.147899 C239.533733,819.147899 238.443733,818.047899 238.443733,816.697899 C238.443733,815.337899 239.533733,814.237899 240.893733,814.237899 C242.253733,814.237899 243.353733,815.337899 243.353733,816.697899" id="Fill-63" fill="#FFFFFE"></path>
                <path d="M255.753733,821.177899 C255.753733,822.537899 254.663733,823.647899 253.293733,823.647899 C251.943733,823.647899 250.833733,822.537899 250.833733,821.177899 C250.833733,819.827899 251.943733,818.727899 253.293733,818.727899 C254.663733,818.727899 255.753733,819.827899 255.753733,821.177899" id="Fill-64" fill="#FFFFFE"></path>
                <path d="M272.533733,829.307899 C272.533733,830.667899 271.443733,831.767899 270.083733,831.767899 C268.723733,831.767899 267.613733,830.667899 267.613733,829.307899 C267.613733,827.947899 268.723733,826.857899 270.083733,826.857899 C271.443733,826.857899 272.533733,827.947899 272.533733,829.307899" id="Fill-65" fill="#FFFFFE"></path>
                <path d="M216.633733,832.297899 C216.633733,833.657899 215.533733,834.757899 214.183733,834.757899 C212.813733,834.757899 211.713733,833.657899 211.713733,832.297899 C211.713733,830.947899 212.813733,829.847899 214.183733,829.847899 C215.533733,829.847899 216.633733,830.947899 216.633733,832.297899" id="Fill-66" fill="#FFFFFE"></path>
                <path d="M230.103733,832.617899 C230.103733,833.967899 229.003733,835.077899 227.643733,835.077899 C226.293733,835.077899 225.183733,833.967899 225.183733,832.617899 C225.183733,831.257899 226.293733,830.167899 227.643733,830.167899 C229.003733,830.167899 230.103733,831.257899 230.103733,832.617899" id="Fill-67" fill="#FFFFFE"></path>
                <path d="M245.493733,831.867899 C245.493733,833.227899 244.393733,834.327899 243.033733,834.327899 C241.683733,834.327899 240.573733,833.227899 240.573733,831.867899 C240.573733,830.517899 241.683733,829.417899 243.033733,829.417899 C244.393733,829.417899 245.493733,830.517899 245.493733,831.867899" id="Fill-68" fill="#FFFFFE"></path>
                <path d="M262.383733,836.577899 C262.383733,837.927899 261.283733,839.037899 259.923733,839.037899 C258.563733,839.037899 257.463733,837.927899 257.463733,836.577899 C257.463733,835.217899 258.563733,834.117899 259.923733,834.117899 C261.283733,834.117899 262.383733,835.217899 262.383733,836.577899" id="Fill-69" fill="#FFFFFE"></path>
                <path d="M221.553733,846.627899 C221.553733,847.987899 220.453733,849.087899 219.093733,849.087899 C217.733733,849.087899 216.623733,847.987899 216.623733,846.627899 C216.623733,845.267899 217.733733,844.167899 219.093733,844.167899 C220.453733,844.167899 221.553733,845.267899 221.553733,846.627899" id="Fill-70" fill="#FFFFFE"></path>
                <path d="M235.013733,845.347899 C235.013733,846.697899 233.913733,847.797899 232.563733,847.797899 C231.203733,847.797899 230.103733,846.697899 230.103733,845.347899 C230.103733,843.987899 231.203733,842.877899 232.563733,842.877899 C233.913733,842.877899 235.013733,843.987899 235.013733,845.347899" id="Fill-71" fill="#FFFFFE"></path>
                <path d="M252.763733,846.627899 C252.763733,847.987899 251.663733,849.087899 250.303733,849.087899 C248.943733,849.087899 247.843733,847.987899 247.843733,846.627899 C247.843733,845.267899 248.943733,844.167899 250.303733,844.167899 C251.663733,844.167899 252.763733,845.267899 252.763733,846.627899" id="Fill-72" fill="#FFFFFE"></path>
                <path d="M227.323733,858.377899 C227.323733,859.737899 226.223733,860.837899 224.863733,860.837899 C223.513733,860.837899 222.403733,859.737899 222.403733,858.377899 C222.403733,857.017899 223.513733,855.917899 224.863733,855.917899 C226.223733,855.917899 227.323733,857.017899 227.323733,858.377899" id="Fill-73" fill="#FFFFFE"></path>
                <path d="M242.283733,854.757899 C242.283733,856.107899 241.183733,857.217899 239.833733,857.217899 C238.463733,857.217899 237.373733,856.107899 237.373733,854.757899 C237.373733,853.397899 238.463733,852.287899 239.833733,852.287899 C241.183733,852.287899 242.283733,853.397899 242.283733,854.757899" id="Fill-74" fill="#FFFFFE"></path>
                <path d="M297.223733,801.207899 C308.133733,793.317899 324.373733,782.697899 339.843733,780.407899 C355.203733,778.117899 366.203733,779.647899 368.623733,780.567899 C371.063733,781.467899 371.013733,783.107899 371.783733,785.747899 C372.763733,789.117899 372.143733,812.267899 371.533733,821.037899 C369.703733,847.617899 362.963733,865.697899 360.533733,866.597899 C358.113733,867.507899 349.273733,867.137899 335.093733,860.777899 C318.503733,853.357899 305.383733,840.267899 295.403733,828.937899 L295.403733,817.867899 L297.223733,801.207899" id="Fill-75" fill="#010604"></path>
                <path d="M361.523733,787.727899 C361.523733,789.087899 362.623733,790.177899 363.983733,790.177899 C365.343733,790.177899 366.433733,789.087899 366.433733,787.727899 C366.433733,786.367899 365.343733,785.267899 363.983733,785.267899 C362.623733,785.267899 361.523733,786.367899 361.523733,787.727899" id="Fill-76" fill="#FFFFFE"></path>
                <path d="M348.373733,787.607899 C348.373733,788.977899 349.473733,790.077899 350.833733,790.077899 C352.193733,790.077899 353.293733,788.977899 353.293733,787.607899 C353.293733,786.257899 352.193733,785.157899 350.833733,785.157899 C349.473733,785.157899 348.373733,786.257899 348.373733,787.607899" id="Fill-77" fill="#FFFFFE"></path>
                <path d="M333.193733,789.747899 C333.193733,791.117899 334.303733,792.217899 335.653733,792.217899 C337.013733,792.217899 338.113733,791.117899 338.113733,789.747899 C338.113733,788.397899 337.013733,787.297899 335.653733,787.297899 C334.303733,787.297899 333.193733,788.397899 333.193733,789.747899" id="Fill-78" fill="#FFFFFE"></path>
                <path d="M317.803733,795.527899 C317.803733,796.877899 318.903733,797.987899 320.253733,797.987899 C321.623733,797.987899 322.713733,796.877899 322.713733,795.527899 C322.713733,794.167899 321.623733,793.067899 320.253733,793.067899 C318.903733,793.067899 317.803733,794.167899 317.803733,795.527899" id="Fill-79" fill="#FFFFFE"></path>
                <path d="M304.973733,802.587899 C304.973733,803.947899 306.073733,805.047899 307.433733,805.047899 C308.793733,805.047899 309.893733,803.947899 309.893733,802.587899 C309.893733,801.227899 308.793733,800.127899 307.433733,800.127899 C306.073733,800.127899 304.973733,801.227899 304.973733,802.587899" id="Fill-80" fill="#FFFFFE"></path>
                <path d="M363.653733,800.867899 C363.653733,802.237899 364.763733,803.327899 366.113733,803.327899 C367.483733,803.327899 368.573733,802.237899 368.573733,800.867899 C368.573733,799.517899 367.483733,798.417899 366.113733,798.417899 C364.763733,798.417899 363.653733,799.517899 363.653733,800.867899" id="Fill-81" fill="#FFFFFE"></path>
                <path d="M350.723733,802.057899 C350.723733,803.407899 351.823733,804.507899 353.183733,804.507899 C354.543733,804.507899 355.643733,803.407899 355.643733,802.057899 C355.643733,800.697899 354.543733,799.597899 353.183733,799.597899 C351.823733,799.597899 350.723733,800.697899 350.723733,802.057899" id="Fill-82" fill="#FFFFFE"></path>
                <path d="M333.833733,803.117899 C333.833733,804.477899 334.943733,805.577899 336.293733,805.577899 C337.653733,805.577899 338.753733,804.477899 338.753733,803.117899 C338.753733,801.757899 337.653733,800.657899 336.293733,800.657899 C334.943733,800.657899 333.833733,801.757899 333.833733,803.117899" id="Fill-83" fill="#FFFFFE"></path>
                <path d="M319.933733,808.677899 C319.933733,810.027899 321.043733,811.127899 322.393733,811.127899 C323.763733,811.127899 324.853733,810.027899 324.853733,808.677899 C324.853733,807.307899 323.763733,806.217899 322.393733,806.217899 C321.043733,806.217899 319.933733,807.307899 319.933733,808.677899" id="Fill-84" fill="#FFFFFE"></path>
                <path d="M307.323733,816.267899 C307.323733,817.617899 308.433733,818.727899 309.783733,818.727899 C311.153733,818.727899 312.243733,817.617899 312.243733,816.267899 C312.243733,814.907899 311.153733,813.807899 309.783733,813.807899 C308.433733,813.807899 307.323733,814.907899 307.323733,816.267899" id="Fill-85" fill="#FFFFFE"></path>
                <path d="M284.753733,806.567899 C284.753733,807.937899 285.863733,809.027899 287.213733,809.027899 C288.583733,809.027899 289.673733,807.937899 289.673733,806.567899 C289.673733,805.207899 288.583733,804.107899 287.213733,804.107899 C285.863733,804.107899 284.753733,805.207899 284.753733,806.567899" id="Fill-86" fill="#FFFFFE"></path>
                <path d="M286.723733,820.567899 C286.723733,821.927899 287.823733,823.037899 289.173733,823.037899 C290.533733,823.037899 291.643733,821.927899 291.643733,820.567899 C291.643733,819.217899 290.533733,818.117899 289.173733,818.117899 C287.823733,818.117899 286.723733,819.217899 286.723733,820.567899" id="Fill-87" fill="#FFFFFE"></path>
                <path d="M363.443733,816.917899 C363.443733,818.267899 364.543733,819.367899 365.903733,819.367899 C367.263733,819.367899 368.363733,818.267899 368.363733,816.917899 C368.363733,815.547899 367.263733,814.447899 365.903733,814.447899 C364.543733,814.447899 363.443733,815.547899 363.443733,816.917899" id="Fill-88" fill="#FFFFFE"></path>
                <path d="M350.513733,818.087899 C350.513733,819.437899 351.613733,820.537899 352.973733,820.537899 C354.323733,820.537899 355.433733,819.437899 355.433733,818.087899 C355.433733,816.717899 354.323733,815.627899 352.973733,815.627899 C351.613733,815.627899 350.513733,816.717899 350.513733,818.087899" id="Fill-89" fill="#FFFFFE"></path>
                <path d="M333.623733,816.697899 C333.623733,818.047899 334.723733,819.147899 336.083733,819.147899 C337.443733,819.147899 338.543733,818.047899 338.543733,816.697899 C338.543733,815.337899 337.443733,814.237899 336.083733,814.237899 C334.723733,814.237899 333.623733,815.337899 333.623733,816.697899" id="Fill-90" fill="#FFFFFE"></path>
                <path d="M321.223733,821.177899 C321.223733,822.537899 322.323733,823.647899 323.683733,823.647899 C325.033733,823.647899 326.143733,822.537899 326.143733,821.177899 C326.143733,819.827899 325.033733,818.727899 323.683733,818.727899 C322.323733,818.727899 321.223733,819.827899 321.223733,821.177899" id="Fill-91" fill="#FFFFFE"></path>
                <path d="M304.443733,829.307899 C304.443733,830.667899 305.543733,831.767899 306.903733,831.767899 C308.253733,831.767899 309.353733,830.667899 309.353733,829.307899 C309.353733,827.947899 308.253733,826.857899 306.903733,826.857899 C305.543733,826.857899 304.443733,827.947899 304.443733,829.307899" id="Fill-92" fill="#FFFFFE"></path>
                <path d="M360.343733,832.297899 C360.343733,833.657899 361.443733,834.757899 362.803733,834.757899 C364.163733,834.757899 365.263733,833.657899 365.263733,832.297899 C365.263733,830.947899 364.163733,829.847899 362.803733,829.847899 C361.443733,829.847899 360.343733,830.947899 360.343733,832.297899" id="Fill-93" fill="#FFFFFE"></path>
                <path d="M346.873733,832.617899 C346.873733,833.967899 347.983733,835.077899 349.333733,835.077899 C350.693733,835.077899 351.793733,833.967899 351.793733,832.617899 C351.793733,831.257899 350.693733,830.167899 349.333733,830.167899 C347.983733,830.167899 346.873733,831.257899 346.873733,832.617899" id="Fill-94" fill="#FFFFFE"></path>
                <path d="M331.483733,831.867899 C331.483733,833.227899 332.583733,834.327899 333.943733,834.327899 C335.303733,834.327899 336.393733,833.227899 336.393733,831.867899 C336.393733,830.517899 335.303733,829.417899 333.943733,829.417899 C332.583733,829.417899 331.483733,830.517899 331.483733,831.867899" id="Fill-95" fill="#FFFFFE"></path>
                <path d="M314.593733,836.577899 C314.593733,837.927899 315.693733,839.037899 317.053733,839.037899 C318.413733,839.037899 319.513733,837.927899 319.513733,836.577899 C319.513733,835.217899 318.413733,834.117899 317.053733,834.117899 C315.693733,834.117899 314.593733,835.217899 314.593733,836.577899" id="Fill-96" fill="#FFFFFE"></path>
                <path d="M355.433733,846.627899 C355.433733,847.987899 356.523733,849.087899 357.883733,849.087899 C359.243733,849.087899 360.343733,847.987899 360.343733,846.627899 C360.343733,845.267899 359.243733,844.167899 357.883733,844.167899 C356.523733,844.167899 355.433733,845.267899 355.433733,846.627899" id="Fill-97" fill="#FFFFFE"></path>
                <path d="M341.953733,845.347899 C341.953733,846.697899 343.063733,847.797899 344.413733,847.797899 C345.783733,847.797899 346.873733,846.697899 346.873733,845.347899 C346.873733,843.987899 345.783733,842.877899 344.413733,842.877899 C343.063733,842.877899 341.953733,843.987899 341.953733,845.347899" id="Fill-98" fill="#FFFFFE"></path>
                <path d="M324.223733,846.627899 C324.223733,847.987899 325.313733,849.087899 326.683733,849.087899 C328.033733,849.087899 329.133733,847.987899 329.133733,846.627899 C329.133733,845.267899 328.033733,844.167899 326.683733,844.167899 C325.313733,844.167899 324.223733,845.267899 324.223733,846.627899" id="Fill-99" fill="#FFFFFE"></path>
                <path d="M349.653733,858.377899 C349.653733,859.737899 350.753733,860.837899 352.113733,860.837899 C353.473733,860.837899 354.573733,859.737899 354.573733,858.377899 C354.573733,857.017899 353.473733,855.917899 352.113733,855.917899 C350.753733,855.917899 349.653733,857.017899 349.653733,858.377899" id="Fill-100" fill="#FFFFFE"></path>
                <path d="M334.683733,854.757899 C334.683733,856.107899 335.793733,857.217899 337.143733,857.217899 C338.513733,857.217899 339.613733,856.107899 339.613733,854.757899 C339.613733,853.397899 338.513733,852.287899 337.143733,852.287899 C335.793733,852.287899 334.683733,853.397899 334.683733,854.757899" id="Fill-101" fill="#FFFFFE"></path>
                <path d="M112.933733,377.642899 C101.493733,386.936899 72.2837334,382.811899 51.4537334,359.056899 C31.8437334,336.696899 17.5437334,303.163899 19.2837334,299.003899 C22.8537334,290.424899 88.2237334,306.116899 106.503733,328.315899 C116.503733,340.468899 118.643733,373.001899 112.933733,377.642899" id="Fill-102" fill="#FAE2CF"></path>
                <path d="M441.163733,344.256899 C453.643733,352.093899 482.133733,344.455899 499.933733,318.347899 C516.683733,293.773899 526.803733,258.754899 524.583733,254.835899 C519.993733,246.754899 457.013733,270.260899 441.563733,294.511899 C433.103733,307.789899 434.923733,340.343899 441.163733,344.256899" id="Fill-103" fill="#FAE2CF"></path>
                <path d="M100.863733,834.037899 C66.4937334,834.037899 38.3637334,862.957899 38.3637334,898.637899 C38.3637334,914.217899 42.9337334,929.747899 53.0837334,933.457899 C62.2637334,936.797899 86.2937334,944.277899 100.863733,944.277899 C115.433733,944.277899 139.463733,936.797899 148.643733,933.457899 C158.783733,929.747899 163.353733,914.217899 163.353733,898.637899 C163.353733,862.957899 135.233733,834.037899 100.863733,834.037899" id="Fill-105" fill="#C8BAAB"></path>
                <path d="M102.303733,942.547899 C102.263733,942.547899 102.213733,942.547899 102.173733,942.547899 C99.3937334,942.357899 97.7337334,940.397899 97.8537334,935.927899 C98.4437334,914.967899 98.2637334,891.937899 96.7237334,870.867899 C96.4337334,866.957899 97.1137334,859.657899 102.433733,859.407899 C102.523733,859.397899 102.603733,859.397899 102.683733,859.397899 C107.293733,859.397899 109.353733,865.747899 109.703733,869.587899 C112.023733,894.607899 108.863733,920.347899 106.243733,936.237899 C105.603733,940.127899 104.103733,942.547899 102.303733,942.547899" id="Fill-106" fill="#887D76"></path>
                <path d="M519.353733,830.997899 C553.363733,830.997899 581.20375,859.617899 581.20375,894.937899 C581.213733,910.357899 576.683733,925.727899 566.643733,929.397899 C557.553733,932.697899 533.773733,940.097899 519.353733,940.097899 C504.923733,940.097899 481.143733,932.697899 472.063733,929.397899 C462.023733,925.727899 457.493733,910.357899 457.493733,894.937899 C457.493733,859.617899 485.333733,830.997899 519.353733,830.997899" id="Fill-107" fill="#C8BAAB"></path>
                <path d="M517.923733,938.387899 C516.143733,938.387899 514.653733,935.997899 514.023733,932.147899 C511.433733,916.417899 508.293733,890.937899 510.593733,866.187899 C510.943733,862.387899 512.983733,856.097899 517.543733,856.097899 C517.623733,856.097899 517.713733,856.097899 517.793733,856.107899 C523.053733,856.357899 523.733733,863.577899 523.443733,867.447899 C521.913733,888.307899 521.743733,911.097899 522.323733,931.837899 C522.453733,936.267899 520.803733,938.207899 518.053733,938.387899 C518.013733,938.387899 517.963733,938.387899 517.923733,938.387899" id="Fill-108" fill="#887D76"></path>
                <path d="M451.543733,704.369899 C451.553733,701.612899 450.263733,699.409899 448.543733,698.848899 C448.573733,694.788899 448.573733,690.724899 448.583733,686.660899 C450.303733,686.115899 451.623733,683.923899 451.623733,681.161899 C451.613733,678.420899 450.313733,676.243899 448.613733,675.682899 C448.603733,671.614899 448.563733,667.545899 448.523733,663.473899 C450.223733,662.883899 451.503733,660.695899 451.473733,657.961899 C451.453733,655.218899 450.113733,653.054899 448.403733,652.512899 C448.343733,648.438899 448.323733,644.366899 448.253733,640.296899 C449.933733,639.684899 451.183733,637.491899 451.123733,634.767899 C451.063733,632.053899 449.743733,629.909899 448.043733,629.353899 C447.963733,625.279899 447.853733,621.206899 447.753733,617.135899 C449.433733,616.516899 450.673733,614.311899 450.593733,611.582899 C450.523733,608.867899 449.193733,606.734899 447.493733,606.190899 C447.383733,602.111899 447.263733,598.038899 447.143733,593.964899 C448.803733,593.321899 450.023733,591.116899 449.933733,588.402899 C449.863733,585.674899 448.493733,583.542899 446.773733,583.021899 C446.643733,578.950899 446.513733,574.876899 446.363733,570.810899 C448.033733,570.166899 449.243733,567.950899 449.143733,565.231899 C449.043733,562.515899 447.673733,560.398899 445.963733,559.875899 C445.813733,555.797899 445.633733,551.733899 445.473733,547.661899 C447.133733,547.014899 448.333733,544.789899 448.223733,542.066899 C448.113733,539.345899 446.733733,537.230899 445.023733,536.721899 C444.843733,532.648899 444.683733,528.572899 444.503733,524.503899 C446.153733,523.839899 447.343733,521.616899 447.223733,518.907899 C447.093733,516.196899 445.713733,514.089899 444.003733,513.577899 C443.813733,509.501899 443.633733,505.423899 443.443733,501.354899 C445.083733,500.674899 446.253733,498.456899 446.123733,495.753899 C445.993733,493.068899 444.633733,490.982899 442.943733,490.450899 C442.743733,486.352899 442.543733,482.283899 442.353733,478.198899 C443.963733,477.486899 445.093733,475.281899 444.953733,472.610899 C444.823733,469.955899 443.493733,467.884899 441.823733,467.325899 C441.683733,464.336899 441.533733,461.321899 441.393733,458.338899 L441.233733,455.041899 C442.813733,454.305899 443.923733,452.122899 443.803733,449.489899 C443.673733,446.847899 442.363733,444.781899 440.713733,444.200899 L440.423733,438.332899 C440.403733,437.873899 440.023733,437.515899 439.563733,437.515899 L439.533733,437.515899 C439.053733,437.538899 438.693733,437.945899 438.703733,438.417899 L438.993733,444.214899 C437.293733,444.835899 436.073733,447.091899 436.203733,449.845899 C436.323733,452.614899 437.773733,454.743899 439.523733,455.194899 L439.683733,458.420899 C439.823733,461.387899 439.973733,464.386899 440.113733,467.361899 C438.423733,468.000899 437.223733,470.251899 437.363733,472.996899 C437.503733,475.728899 438.913733,477.835899 440.643733,478.318899 C440.833733,482.387899 441.033733,486.435899 441.223733,490.514899 C439.563733,491.180899 438.393733,493.412899 438.523733,496.127899 C438.653733,498.826899 440.023733,500.924899 441.733733,501.440899 C441.923733,505.509899 442.103733,509.590899 442.293733,513.668899 C440.653733,514.353899 439.493733,516.564899 439.623733,519.254899 C439.743733,521.944899 441.093733,524.039899 442.793733,524.573899 C442.973733,528.649899 443.133733,532.732899 443.313733,536.814899 C441.683733,537.503899 440.513733,539.700899 440.633733,542.382899 C440.743733,545.057899 442.073733,547.153899 443.753733,547.707899 C443.923733,551.790899 444.103733,555.863899 444.253733,559.951899 C442.613733,560.625899 441.433733,562.825899 441.543733,565.511899 C441.643733,568.195899 442.973733,570.300899 444.653733,570.856899 C444.803733,574.934899 444.923733,579.022899 445.063733,583.105899 C443.433733,583.781899 442.253733,585.967899 442.333733,588.644899 C442.413733,591.333899 443.743733,593.448899 445.423733,594.005899 C445.553733,598.085899 445.663733,602.163899 445.783733,606.249899 C444.133733,606.905899 442.923733,609.090899 442.993733,611.778899 C443.063733,614.453899 444.373733,616.571899 446.043733,617.151899 C446.143733,621.234899 446.253733,625.315899 446.333733,629.401899 C444.683733,630.046899 443.463733,632.220899 443.523733,634.910899 C443.573733,637.593899 444.873733,639.719899 446.543733,640.308899 C446.603733,644.396899 446.633733,648.483899 446.683733,652.571899 C445.053733,653.226899 443.843733,655.381899 443.873733,658.044899 C443.893733,660.716899 445.163733,662.845899 446.813733,663.458899 C446.843733,667.550899 446.883733,671.637899 446.893733,675.727899 C445.253733,676.366899 444.013733,678.509899 444.013733,681.175899 C444.013733,683.819899 445.233733,685.948899 446.863733,686.600899 C446.863733,690.698899 446.863733,694.795899 446.833733,698.890899 C445.193733,699.526899 443.953733,701.648899 443.933733,704.297899 C443.913733,706.954899 445.123733,709.100899 446.753733,709.759899 C446.703733,713.861899 446.583733,717.952899 446.513733,722.049899 C444.883733,722.675899 443.633733,724.776899 443.583733,727.411899 C443.523733,730.058899 444.683733,732.217899 446.293733,732.906899 C446.213733,736.215899 446.193733,739.537899 446.093733,742.837899 C446.063733,743.637899 446.033733,744.377899 446.003733,745.167899 C444.313733,745.707899 442.963733,747.817899 442.843733,750.497899 C442.733733,753.187899 443.913733,755.397899 445.573733,756.067899 C445.373733,760.277899 445.163733,764.337899 444.943733,768.277899 C443.233733,768.777899 441.843733,770.857899 441.683733,773.547899 C441.543733,776.227899 442.633733,778.457899 444.253733,779.177899 C443.963733,783.357899 443.643733,787.437899 443.293733,791.377899 C441.593733,791.847899 440.123733,793.867899 439.873733,796.507899 C439.603733,799.177899 440.643733,801.437899 442.253733,802.217899 C441.803733,806.367899 441.313733,810.387899 440.793733,814.347899 C439.063733,814.727899 437.583733,816.687899 437.153733,819.317899 C436.723733,821.937899 437.623733,824.257899 439.183733,825.127899 C438.523733,829.027899 437.793733,833.017899 436.883733,837.097899 C435.133733,837.307899 433.523733,839.137899 432.773733,841.637899 C432.083733,844.107899 432.703733,846.457899 434.093733,847.557899 C433.283733,850.187899 432.443733,852.807899 431.423733,855.367899 C430.913733,856.537899 430.183733,857.647899 429.593733,858.797899 C427.883733,858.647899 426.063733,859.847899 424.633733,861.817899 C423.073733,863.867899 422.843733,866.297899 423.833733,867.797899 C421.433733,870.927899 418.793733,873.947899 415.753733,876.757899 C414.183733,875.937899 411.933733,876.567899 409.903733,878.107899 C407.853733,879.587899 406.913733,881.827899 407.393733,883.547899 L407.313733,883.607899 C404.043733,885.937899 400.503733,887.807899 396.853733,889.467899 C395.603733,888.327899 393.343733,888.227899 390.963733,888.857899 C388.673733,889.607899 387.103733,891.347899 386.853733,893.057899 C382.943733,894.137899 378.943733,894.897899 374.873733,895.277899 C374.013733,893.807899 371.943733,892.687899 369.573733,892.737899 C367.143733,892.787899 365.063733,893.997899 364.293733,895.517899 C360.253733,895.287899 356.243733,894.707899 352.303733,893.787899 C352.133733,891.997899 350.453733,890.187899 348.003733,889.487899 C345.523733,888.927899 343.213733,889.167899 342.043733,890.467899 C339.983733,889.617899 337.903733,888.807899 335.933733,887.747899 C334.333733,886.927899 332.813733,885.927899 331.253733,884.987899 C331.563733,883.247899 330.463733,881.097899 328.333733,879.767899 C326.163733,878.497899 323.943733,877.997899 322.443733,878.857899 C319.343733,876.377899 316.323733,873.707899 313.453733,870.737899 C314.253733,869.137899 313.773733,866.737899 312.043733,864.847899 C310.193733,863.037899 308.113733,861.997899 306.433733,862.517899 C304.073733,859.367899 301.873733,855.957899 299.813733,852.337899 C300.903733,850.947899 300.983733,848.517899 299.803733,846.277899 C298.653733,844.097899 296.663733,842.787899 294.913733,842.807899 C293.133733,838.897899 291.413733,834.827899 289.853733,830.387899 C289.693733,829.927899 289.183733,829.697899 288.753733,829.867899 C288.303733,830.017899 288.073733,830.507899 288.223733,830.957899 C289.793733,835.387899 291.503733,839.467899 293.293733,843.387899 C291.863733,844.527899 291.673733,847.167899 293.053733,849.777899 C294.393733,852.327899 296.613733,853.667899 298.363733,853.267899 C300.463733,856.917899 302.673733,860.367899 305.063733,863.557899 C304.083733,865.067899 304.233733,867.757899 306.243733,869.767899 C308.153733,871.867899 310.603733,872.647899 312.223733,871.927899 C315.123733,874.947899 318.183733,877.657899 321.333733,880.167899 C320.703733,881.867899 321.513733,884.527899 324.003733,886.027899 C326.453733,887.567899 329.063733,887.647899 330.423733,886.477899 C331.983733,887.427899 333.523733,888.437899 335.143733,889.267899 C337.163733,890.347899 339.283733,891.247899 341.393733,892.107899 C341.343733,893.907899 342.903733,896.077899 345.683733,896.737899 C348.403733,897.517899 350.863733,896.917899 351.863733,895.497899 C355.873733,896.437899 359.953733,896.927899 364.053733,897.167899 C364.393733,899.037899 366.653733,900.397899 369.673733,900.349234 C372.753733,900.277899 375.053733,898.827899 375.233733,896.907899 C379.293733,896.517899 383.283733,895.837899 387.193733,894.777899 C388.123733,896.337899 390.723733,896.937899 393.583733,895.997899 C396.433733,895.207899 397.903733,892.837899 397.653733,891.017899 C401.363733,889.317899 404.963733,887.387899 408.303733,885.017899 L408.363733,884.957899 C409.813733,885.977899 412.383733,885.697899 414.713733,884.007899 C416.973733,882.257899 417.623733,879.657899 416.923733,878.007899 C420.033733,875.137899 422.733733,872.047899 425.193733,868.827899 C426.883733,869.357899 429.233733,868.327899 430.943733,866.057899 C432.683733,863.637899 432.473733,860.727899 431.153733,859.487899 C431.753733,858.337899 432.483733,857.217899 433.003733,856.027899 C434.033733,853.427899 434.893733,850.777899 435.713733,848.107899 C437.503733,848.087899 439.363733,846.307899 440.123733,843.547899 C440.933733,840.867899 440.063733,838.437899 438.553733,837.477899 C439.473733,833.367899 440.213733,829.347899 440.873733,825.407899 C442.623733,825.097899 444.233733,823.147899 444.673733,820.437899 C445.123733,817.727899 444.083733,815.397899 442.503733,814.577899 C443.013733,810.597899 443.503733,806.567899 443.953733,802.407899 C445.683733,801.997899 447.163733,799.957899 447.433733,797.237899 C447.703733,794.507899 446.643733,792.217899 445.003733,791.497899 C445.353733,787.557899 445.663733,783.487899 445.963733,779.297899 C447.683733,778.817899 449.133733,776.747899 449.273733,774.027899 C449.433733,771.317899 448.293733,769.087899 446.663733,768.387899 C446.883733,764.427899 447.093733,760.367899 447.283733,756.147899 C448.973733,755.617899 450.333733,753.507899 450.453733,750.797899 C450.553733,748.087899 449.373733,745.867899 447.723733,745.217899 C447.753733,744.427899 447.783733,743.687899 447.813733,742.897899 C447.913733,739.597899 447.933733,736.296899 448.013733,733.001899 C449.743733,732.490899 451.113733,730.335899 451.193733,727.583899 C451.233733,724.811899 449.953733,722.586899 448.233733,722.014899 C448.303733,717.949899 448.423733,713.895899 448.473733,709.828899 C450.193733,709.291899 451.513733,707.118899 451.543733,704.369899" id="Fill-350" fill="#D2D3CF"></path>
            </g>
        </g>
    </g>
</svg>