<?xml version="1.0" encoding="UTF-8"?>
<svg width="574px" height="647px" viewBox="0 0 574 647" version="1.1" xmlns="http://www.w3.org/2000/svg" xmlns:xlink="http://www.w3.org/1999/xlink">
    <title>Group 5</title>
    <g id="Page-1" stroke="none" stroke-width="1" fill="none" fill-rule="evenodd">
        <g id="iStock-1275739749" transform="translate(-3228.000000, -448.000000)">
            <g id="Group-5" transform="translate(3228.875587, 448.162722)">
                <path d="M482.276686,335.462278 C482.894413,208.094278 356.514413,121.679278 306.084413,116.924278 C255.664413,112.171278 115.354413,173.444278 92.1644127,298.683278 C86.6944127,328.222278 85.1044127,344.490278 79.8144127,390.483278 C74.6544127,435.462278 85.5944127,476.702278 105.124413,505.979278 C110.184413,513.570278 121.824413,528.332278 124.824413,526.650278 C127.964413,524.904278 123.774413,510.312278 125.904413,509.300278 C130.824413,506.975278 141.934413,540.092278 151.134413,557.177278 C158.154413,570.207278 172.254413,585.807278 175.504413,583.837278 C178.644413,581.937278 174.514413,570.287278 176.844413,569.147278 C181.194413,567.037278 188.904413,596.047278 205.304413,611.287278 C222.774413,627.527278 242.594413,634.257278 256.224413,645.887278 C271.774413,637.007278 292.504413,634.097278 312.704413,621.407278 C331.664413,609.507278 344.664413,582.447278 348.534413,585.337278 C350.614413,586.887278 344.384413,597.557278 347.104413,600.017278 C349.924413,602.557278 366.704413,589.867278 376.034413,578.377278 C388.264413,563.317278 405.374413,532.857278 409.754413,536.061278 C411.664413,537.454278 404.834413,551.006278 407.584413,553.307278 C410.214413,555.517278 424.404413,543.194278 430.804413,536.683278 C455.464413,511.572278 473.914413,473.105278 477.244413,427.950278 C480.644413,381.780278 482.134413,365.504278 482.276686,335.462278" id="Fill-176" fill="#E8E7E3"></path>
                <path d="M453.064413,253.703278 C438.214413,244.531278 389.684413,251.779278 349.494413,259.027278 C321.424413,264.090278 297.424413,269.151278 291.784413,268.621278 C278.074413,267.329278 163.834413,213.238278 136.134413,223.823278 C110.824413,233.499278 95.0844127,274.796278 93.6544127,299.207278 C91.7044127,332.424278 90.5044127,352.669278 92.9644127,375.060278 C95.9944127,402.811278 98.1444127,408.060278 107.854413,405.539278 C148.974413,394.879278 170.364413,350.051278 218.624413,372.484278 C234.754413,379.983278 270.054413,344.394278 285.004413,340.579278 C298.974413,347.120278 326.994413,388.680278 344.244413,384.325278 C395.854413,371.309278 408.484413,419.344278 446.884413,437.502278 C455.954413,441.793278 459.044413,437.038278 467.214413,410.345278 C473.804413,388.805278 476.424413,368.695278 480.714413,335.697278 C483.874413,311.450278 476.114413,267.936278 453.064413,253.703278" id="Fill-177" fill="#E57B36"></path>
                <path d="M498.964413,261.275278 C499.054413,260.279278 500.384413,262.564278 502.124413,264.849278 C503.734413,266.963278 505.684413,269.076278 507.324413,268.594278 C510.684413,267.602278 503.874413,249.981278 511.974413,221.328278 C526.344413,170.463278 465.684413,113.300278 425.744413,83.1752776 C408.494413,70.1472776 398.684413,62.2352776 380.944413,54.6592776 C378.334413,53.5382776 376.474413,53.3222776 375.404413,53.6092776 C359.594413,46.9572776 339.474413,41.6972776 313.414413,39.2402776 C287.354413,36.7842776 266.604413,38.1902776 249.824413,41.7702776 C248.824413,41.2882776 246.954413,41.1522776 244.184413,41.7642776 C225.334413,45.8912776 214.214413,51.8312776 194.844413,61.4062776 C149.984413,83.5382776 79.7044127,128.357278 84.3144127,181.010278 C86.9144127,210.670278 76.9344127,226.711278 80.0444127,228.312278 C81.6044127,229.114278 84.0044127,227.287278 86.0144127,225.463278 C88.0744127,223.588278 89.7244127,221.714278 89.6344127,222.685278 C88.3644127,236.113278 56.8444127,253.006278 57.7944127,256.380278 C59.2944127,261.645278 68.6844127,261.553278 72.3944127,261.458278 C72.9344127,261.445278 73.3544127,261.431278 73.6144127,261.435278 C91.9244127,261.635278 72.6644127,298.523278 80.8744127,352.784278 C81.9444127,359.861278 88.7344127,363.920278 93.2444127,350.376278 C99.6344127,331.116278 120.584413,258.426278 142.774413,253.253278 C159.844413,249.272278 182.194413,268.947278 194.154413,273.615278 C223.244413,284.975278 238.864413,281.468278 261.574413,243.820278 C267.804413,233.487278 274.644413,225.594278 298.204413,200.501278 C316.664413,229.555278 321.914413,238.587278 326.104413,249.902278 C341.374413,291.132278 356.074413,297.498278 386.764413,291.774278 C399.384413,289.423278 425.024413,274.272278 441.044413,281.372278 C461.874413,290.602278 468.864413,365.924278 471.554413,386.042278 C473.444413,400.189278 480.874413,397.473278 483.254413,390.720278 C501.454413,338.947278 489.424413,299.110278 507.454413,302.336278 C509.454413,302.694278 521.134413,305.934278 523.934413,300.326278 C525.514413,297.191278 497.694413,274.702278 498.964413,261.275278" id="Fill-178" fill="#272422"></path>
                <path d="M246.394413,186.834278 C244.944413,202.265278 231.264413,213.582278 215.834413,212.127278 C200.404413,210.672278 189.094413,196.999278 190.544413,181.568278 C192.004413,166.154278 205.664413,154.820278 221.104413,156.275278 C236.534413,157.730278 247.844413,171.420278 246.394413,186.834278" id="Fill-179" fill="#E8E7E3"></path>
                <path d="M237.344413,185.981278 C236.364413,196.414278 227.114413,204.064278 216.684413,203.080278 C206.254413,202.097278 198.604413,192.855278 199.594413,182.421278 C200.574413,171.997278 209.814413,164.346278 220.244413,165.329278 C230.674413,166.313278 238.324413,175.556278 237.344413,185.981278" id="Fill-180" fill="#272422"></path>
                <path d="M351.664413,196.758278 C350.204413,212.189278 361.534413,225.862278 376.954413,227.317278 C392.394413,228.772278 406.064413,217.455278 407.514413,202.024278 C408.964413,186.609278 397.654413,172.921278 382.224413,171.465278 C366.794413,170.011278 353.114413,181.344278 351.664413,196.758278" id="Fill-181" fill="#E8E7E3"></path>
                <path d="M360.704413,197.611278 C359.724413,208.044278 367.374413,217.287278 377.804413,218.271278 C388.244413,219.254278 397.484413,211.604278 398.464413,201.171278 C399.454413,190.746278 391.804413,181.503278 381.364413,180.519278 C370.934413,179.536278 361.694413,187.186278 360.704413,197.611278" id="Fill-182" fill="#272422"></path>
                <path d="M174.824413,89.8152776 C150.694413,122.651278 128.014413,179.761278 78.0944127,207.451278 C45.2444127,225.682278 36.5144127,212.320278 40.0344127,198.717278 C42.9644127,187.462278 44.7944127,135.278278 40.1244127,106.005278 C35.4444127,76.7312776 50.4544127,64.7292776 76.7544127,53.5262776 C96.1644127,45.2662776 131.114413,31.0462776 158.114413,27.0262776 C170.164413,25.2302776 155.494413,19.6042776 157.884413,17.2362776 C161.414413,13.7632776 172.644413,21.3412776 176.004413,19.9802776 C178.234413,19.0762776 173.164413,11.7682776 172.474413,3.35927764 C172.274413,0.784277643 174.214413,-1.11572236 175.634413,0.748277643 C182.284413,9.54827764 201.584413,18.9852776 212.374413,29.0232776 C220.664413,36.7522776 236.484413,38.8712776 248.314413,40.8032776 C254.174413,41.7612776 255.024413,43.8142776 249.274413,44.6152776 C243.704413,45.3942776 235.134413,47.2832776 234.034413,47.6572776 C196.814413,60.1672776 182.634413,79.1842776 174.824413,89.8152776" id="Fill-183" fill="#353433"></path>
                <path d="M440.094413,114.824278 C457.674413,151.592278 469.284413,211.935278 513.144413,248.466278 C542.014413,272.516278 553.084413,261.021278 552.164413,246.999278 C551.394413,235.396278 559.344413,183.789278 569.414413,155.905278 C579.474413,128.021278 566.964413,113.424278 543.224413,97.5042776 C525.704413,85.7622776 494.024413,65.2602776 468.254413,56.2662776 C456.754413,52.2482776 472.224413,49.4642776 470.304413,46.6902776 C467.494413,42.6192776 455.034413,47.9642776 452.004413,46.0012776 C449.984413,44.6952776 456.324413,38.4642776 458.564413,30.3312776 C459.254413,27.8402776 457.684413,25.6092776 455.954413,27.1772776 C447.774413,34.5782776 427.054413,40.2422776 414.584413,48.0872776 C404.984413,54.1292776 389.054413,53.2552776 377.064413,52.9422776 C371.134413,52.7872776 369.914413,54.6462776 375.414413,56.5072776 C380.734413,58.3132776 388.804413,61.7702776 389.824413,62.3452776 C424.034413,81.5882776 434.414413,102.921278 440.094413,114.824278" id="Fill-184" fill="#353433"></path>
                <path d="M381.294413,340.797278 C368.484413,349.590278 364.584413,361.695278 345.894413,369.026278 C321.794413,378.472278 289.534413,370.249278 282.274413,369.565278 C275.004413,368.879278 241.774413,370.928278 219.874413,357.144278 C202.874413,346.450278 201.304413,333.828278 190.354413,322.796278 C181.704413,314.084278 176.494413,321.463278 181.664413,329.333278 C193.174413,346.875278 202.494413,384.869278 224.834413,416.517278 C236.824413,433.507278 249.894413,437.456278 275.644413,439.882278 C301.384413,442.309278 314.954413,440.872278 329.914413,426.424278 C357.784413,399.509278 374.034413,363.926278 388.624413,348.844278 C395.174413,342.080278 391.424413,333.855278 381.294413,340.797278" id="Fill-185" fill="#1B1715"></path>
                <path d="M282.574413,366.531278 C280.044413,366.292278 275.924413,367.330278 270.634413,368.371278 C260.784413,370.303278 246.894413,372.236278 231.704413,365.947278 C225.044413,436.666278 237.804413,462.969278 273.164413,466.304278 C308.534413,469.639278 325.994413,446.184278 332.654413,375.465278 C307.904413,380.601278 289.804413,367.213278 282.574413,366.531278" id="Fill-186" fill="#DE5A57"></path>
                <path d="M318.274413,373.534278 C310.774413,373.534278 303.584413,372.799278 297.544413,371.957278 C290.774413,369.454278 285.674413,366.824278 282.574413,366.531278 C282.324413,366.507278 282.064413,366.496278 281.784413,366.496278 C281.064413,366.496278 280.254413,366.570278 279.344413,366.696278 L266.404413,351.064278 C273.774413,346.001278 280.364413,341.762278 285.004413,340.579278 C293.584413,344.596278 307.464413,361.818278 320.884413,373.504278 C320.014413,373.525278 319.144413,373.534278 318.274413,373.534278" id="Fill-187" fill="#A09E9E"></path>
                <path d="M320.884413,373.504278 C307.464413,361.818278 293.584413,344.596278 285.004413,340.579278 C280.364413,341.762278 273.774413,346.001278 266.404413,351.064278 L251.954413,333.613278 L326.154413,301.168278 L368.624413,352.481278 C362.964413,358.550278 357.074413,364.642278 345.894413,369.026278 C338.044413,372.103278 329.324413,373.305278 320.884413,373.504278 M374.304413,367.876278 C375.384413,366.255278 376.434413,364.684278 377.474413,363.168278 L377.924413,363.707278 L374.304413,367.876278" id="Fill-188" fill="#9D5D34"></path>
                <path d="M344.604413,402.145278 L329.254413,402.145278 C330.604413,394.118278 331.734413,385.246278 332.654413,375.465278 C328.684413,376.288278 324.894413,376.635278 321.284413,376.635278 C312.034413,376.635278 304.024413,374.354278 297.544413,371.957278 C303.584413,372.799278 310.774413,373.534278 318.274413,373.534278 C319.144413,373.534278 320.014413,373.525278 320.884413,373.504278 C329.324413,373.305278 338.044413,372.103278 345.894413,369.026278 C357.074413,364.642278 362.964413,358.550278 368.624413,352.481278 L377.474413,363.168278 C376.434413,364.684278 375.384413,366.255278 374.304413,367.876278 L344.604413,402.145278" id="Fill-189" fill="#13110F"></path>
                <path d="M329.254413,402.145278 L308.684413,402.145278 L279.344413,366.696278 C280.254413,366.570278 281.064413,366.496278 281.784413,366.496278 C282.064413,366.496278 282.324413,366.507278 282.574413,366.531278 C285.674413,366.824278 290.774413,369.454278 297.544413,371.957278 C304.024413,374.354278 312.034413,376.635278 321.284413,376.635278 C324.894413,376.635278 328.684413,376.288278 332.654413,375.465278 C331.734413,385.246278 330.604413,394.118278 329.254413,402.145278" id="Fill-190" fill="#9B4243"></path>
                <path d="M354.394413,277.710278 C343.784413,257.702278 321.544413,210.539278 321.924413,171.049278 C322.164413,145.962278 332.604413,113.395278 329.364413,92.2962776 C327.114413,77.7152776 321.004413,61.7372776 311.374413,60.8302776 C301.744413,59.9222776 292.754413,74.4762776 287.824413,88.3802776 C280.694413,108.501278 284.864413,142.445278 280.414413,167.137278 C273.414413,206.002278 242.734413,248.175278 228.584413,265.849278 C193.174413,310.059278 197.524413,339.588278 207.684413,354.336278 C224.954413,379.386278 266.094413,369.459278 282.134413,370.971278 C298.174413,372.484278 336.734413,389.924278 358.384413,368.543278 C371.124413,355.956278 380.914413,327.758278 354.394413,277.710278" id="Fill-191" fill="#E8E7E3"></path>
                <path d="M290.084413,286.438278 C263.304413,283.913278 246.014413,291.052278 244.174413,310.523278 C241.974413,333.854278 269.184413,350.641278 283.904413,352.029278 C298.654413,353.420278 328.524413,342.013278 330.724413,318.683278 C332.564413,299.212278 316.904413,288.966278 290.084413,286.438278" id="Fill-192" fill="#272422"></path>
                <path d="M258.434413,154.068278 C262.414413,142.333278 252.534413,122.258278 238.664413,124.982278 C224.784413,127.719278 224.774413,135.552278 229.644413,141.664278 C234.514413,147.776278 245.224413,151.163278 248.234413,156.344278 C251.244413,161.515278 256.724413,159.082278 258.434413,154.068278" id="Fill-193" fill="#DA7534"></path>
                <path d="M345.964413,162.320278 C344.234413,150.047278 357.694413,132.172278 370.814413,137.441278 C383.944413,142.724278 382.494413,150.422278 376.564413,155.515278 C370.634413,160.609278 359.474413,161.934278 355.554413,166.462278 C351.634413,170.980278 346.694413,167.564278 345.964413,162.320278" id="Fill-194" fill="#DA7534"></path>
                <path d="M121.154413,378.324278 C125.384413,404.355278 122.104413,449.706278 128.034413,489.762278 C130.824413,508.668278 138.814413,530.168278 141.284413,543.483278 C145.114413,564.067278 143.564413,573.927278 139.374413,583.217278 C132.424413,598.627278 113.104413,595.137278 109.464413,590.247278 C107.164413,610.667278 84.3044127,620.307278 72.4944127,606.907278 C62.5344127,621.637278 35.8444127,615.127278 30.8144127,593.197278 C21.7944127,601.767278 3.4544127,594.657278 0.394412696,569.417278 C-2.6655873,544.178278 12.4244127,429.200278 33.6944127,385.878278 C46.8744127,359.029278 115.014413,340.487278 121.154413,378.324278" id="Fill-236" fill="#353433"></path>
                <path d="M30.5544127,591.667278 C30.5444127,591.667278 30.5244127,591.667278 30.5144127,591.667278 C29.6444127,591.647278 29.1144127,590.297278 29.1144127,588.177278 C29.1144127,579.727278 30.0344127,565.947278 32.9844127,552.947278 C33.4044127,551.102278 34.2344127,549.821278 36.0144127,549.821278 C36.2044127,549.821278 36.3944127,549.834278 36.5944127,549.862278 C38.5844127,550.131278 38.8544127,552.317278 38.4244127,554.357278 C36.1244127,565.327278 34.2744127,576.967278 32.9644127,587.977278 C32.6844127,590.307278 31.8244127,591.667278 30.5544127,591.667278" id="Fill-237" fill="#242322"></path>
                <path d="M72.4244127,603.817278 C71.5944127,603.817278 70.9544127,602.217278 70.7544127,599.657278 C69.9244127,589.207278 69.0744127,572.267278 70.7344127,555.817278 C70.9844127,553.337278 71.7244127,551.248278 73.7544127,551.248278 C73.8244127,551.248278 73.9044127,551.251278 73.9844127,551.257278 C76.4344127,551.432278 76.9344127,554.097278 76.7044127,556.677278 C75.4944127,570.527278 74.8644127,585.677278 74.6344127,599.467278 C74.5844127,602.407278 73.7744127,603.697278 72.4844127,603.817278 C72.4644127,603.817278 72.4444127,603.817278 72.4244127,603.817278" id="Fill-238" fill="#242322"></path>
                <path d="M109.394413,589.057278 C108.564413,589.057278 107.484413,587.917278 107.044413,586.067278 C105.184413,578.187278 103.034413,565.117278 103.044378,552.317278 C103.044378,550.318278 103.684413,548.846278 105.884413,548.636278 C105.974413,548.628278 106.064413,548.624278 106.144413,548.624278 C107.954413,548.624278 108.624413,550.520278 108.664413,552.427278 C108.834413,563.177278 109.574413,574.457278 110.724413,585.037278 C110.974413,587.287278 110.834413,588.777278 109.564413,589.037278 C109.504413,589.047278 109.454413,589.057278 109.394413,589.057278" id="Fill-239" fill="#242322"></path>
                <path d="M406.004413,380.418278 C398.434413,402.571278 402.804413,393.167278 400.544413,458.664278 C399.164413,498.625278 390.074413,520.296278 394.854413,542.725278 C399.014413,562.237278 417.154413,559.077278 420.574413,554.197278 C422.744413,574.607278 444.314413,584.247278 455.454413,570.857278 C464.844413,585.577278 490.014413,579.067278 494.754413,557.137278 C503.264413,565.707278 522.524413,560.047278 525.414413,534.809278 C528.294413,509.568278 515.434413,426.062278 496.984413,379.204278 C486.144413,351.673278 418.304413,344.373278 406.004413,380.418278" id="Fill-240" fill="#353433"></path>
                <path d="M494.424413,555.377278 C494.404413,555.377278 494.384413,555.377278 494.364413,555.377278 C493.074413,555.287278 492.334413,553.837278 492.284413,551.472278 C492.044413,540.383278 491.334413,528.615278 490.104413,517.473278 C489.874413,515.404278 490.354413,513.252278 492.364413,513.177278 C492.424413,513.174278 492.484413,513.173278 492.544413,513.173278 C494.614413,513.173278 495.404413,514.587278 495.654413,516.596278 C497.334413,529.823278 496.914413,543.627278 496.094413,552.035278 C495.894413,554.097278 495.254413,555.377278 494.424413,555.377278" id="Fill-241" fill="#242322"></path>
                <path d="M456.264413,567.207278 C456.224413,567.207278 456.184413,567.197278 456.144413,567.197278 C454.874413,566.977278 454.164413,565.627278 454.344413,562.697278 C455.224413,548.929278 455.794413,533.778278 455.684413,519.866278 C455.664413,517.294278 456.374413,514.685278 458.814413,514.685278 C458.824413,514.685278 458.834413,514.685278 458.844413,514.685278 C461.044413,514.704278 461.654413,516.905278 461.704413,519.484278 C462.064413,536.017278 459.864413,552.837278 458.204413,563.197278 C457.804413,565.677278 457.074413,567.207278 456.264413,567.207278" id="Fill-242" fill="#242322"></path>
                <path d="M421.414413,551.461278 C421.344413,551.461278 421.274413,551.453278 421.204413,551.436278 C419.944413,551.122278 419.874413,549.623278 420.224413,547.382278 C421.854413,536.870278 423.094413,525.638278 423.764413,514.901278 C423.874413,513.039278 424.614413,511.213278 426.334413,511.213278 C426.454413,511.213278 426.574413,511.222278 426.704413,511.240278 C428.894413,511.551278 429.464413,513.049278 429.374413,515.045278 C428.804413,527.829278 426.074413,540.789278 423.854413,548.584278 C423.334413,550.381278 422.234413,551.461278 421.414413,551.461278" id="Fill-243" fill="#242322"></path>
            </g>
        </g>
    </g>
</svg>