<?xml version="1.0" encoding="UTF-8"?>
<svg width="290px" height="389px" viewBox="0 0 290 389" version="1.1" xmlns="http://www.w3.org/2000/svg" xmlns:xlink="http://www.w3.org/1999/xlink">
    <title>Group 2</title>
    <g id="Page-1" stroke="none" stroke-width="1" fill="none" fill-rule="evenodd">
        <g id="iStock-1275739749" transform="translate(-2214.000000, -830.000000)">
            <g id="Group-2" transform="translate(2214.006477, 830.000000)">
                <path d="M72.6781572,248.990804 C75.3142659,265.217844 76.3710578,272.903069 80.0698295,297.872714 C81.807665,309.658292 86.7863291,323.060762 88.3304195,331.360101 C90.7199435,344.194251 89.7512175,350.341258 87.1385931,356.130129 C82.8116174,365.741064 70.7583186,363.562898 68.4979581,360.515815 C67.0595469,373.238415 52.8104694,379.250387 45.4422814,370.901731 C39.2365645,380.078208 22.597963,376.021301 19.4686848,362.347588 C13.8442034,367.690258 2.40736656,363.263474 0.505141135,347.529017 C-1.40295536,331.793385 1.80851782,268.240269 15.0653852,241.235713 C23.2790067,224.49789 68.844351,225.40497 72.6781572,248.990804" id="Fill-252" fill="#F5DEBD"></path>
                <path d="M19.3042949,361.396475 C19.2984239,361.396475 19.2866817,361.396475 19.2749396,361.396475 C18.7406726,361.384733 18.4060218,360.539299 18.4060218,359.21831 C18.4060218,353.951963 18.9755152,345.362593 20.81903,337.258761 C21.0773569,336.11038 21.5998818,335.311915 22.7095133,335.311915 C22.8210635,335.311915 22.9443559,335.320135 23.0676483,335.337161 C24.3123143,335.504486 24.4767042,336.868922 24.2125062,338.137659 C22.7799661,344.975103 21.617495,352.237612 20.8014168,359.100888 C20.6311559,360.54517 20.0968888,361.396475 19.3042949,361.396475" id="Fill-253" fill="#9D9080"></path>
                <path d="M45.407055,368.97015 C44.8845301,368.97015 44.4911687,367.97794 44.3620052,366.38101 C43.8453514,359.864127 43.3110844,349.302079 44.3502631,339.047088 C44.5087819,337.501236 44.966725,336.201969 46.2348753,336.201969 C46.2759728,336.201969 46.3229413,336.20373 46.3699098,336.207253 C47.9022581,336.316455 48.2134246,337.979728 48.072519,339.582529 C47.3151515,348.221803 46.92179,357.662477 46.7867555,366.263589 C46.7515291,368.095362 46.2466174,368.899698 45.4422814,368.97015 C45.4305392,368.97015 45.4187971,368.97015 45.407055,368.97015" id="Fill-254" fill="#9D9080"></path>
                <path d="M68.4509896,359.77019 C67.9284647,359.77019 67.2591632,359.059791 66.9890941,357.909062 C65.8207519,352.989108 64.4880199,344.84594 64.4938717,336.867748 C64.4938717,335.622495 64.8931235,334.703673 66.2610819,334.573922 C66.3197926,334.568051 66.3726322,334.565703 66.4254718,334.565703 C67.5527165,334.565703 67.9754332,335.746961 67.9930464,336.935265 C68.1045967,343.642371 68.5625398,350.670037 69.2788099,357.263244 C69.4314576,358.666429 69.3433916,359.599929 68.5566688,359.758448 C68.5214424,359.764319 68.486216,359.77019 68.4509896,359.77019" id="Fill-255" fill="#9D9080"></path>
                <path d="M214.147367,265.352291 C209.432901,279.161626 212.151204,273.299953 210.742149,314.129696 C209.884973,339.039455 204.219394,352.548778 207.196025,366.527787 C209.791036,378.692636 221.098709,376.725829 223.235777,373.678745 C224.586123,386.407217 238.030864,392.419189 244.976335,384.064661 C250.829788,393.241138 266.523148,389.184231 269.476294,375.516389 C274.777867,380.853188 286.784197,377.330549 288.586615,361.596091 C290.383161,345.861634 290.025026,286.296733 272.652541,246.34354 C265.296095,229.428412 221.814979,242.883721 214.147367,265.352291" id="Fill-256" fill="#F5DEBD"></path>
                <path d="M269.264936,374.4185 C269.253194,374.4185 269.241452,374.4185 269.229709,374.4185 C268.425373,374.359789 267.96743,373.455645 267.932204,371.982007 C267.785427,365.071762 267.339226,357.73293 266.575988,350.787459 C266.435082,349.501695 266.728635,348.157221 267.985043,348.110252 C268.02027,348.110252 268.055496,348.110252 268.096594,348.110252 C269.388228,348.110252 269.875527,348.990912 270.039917,350.241449 C271.084966,358.490297 270.820768,367.091409 270.304115,372.334271 C270.180822,373.620035 269.787461,374.4185 269.264936,374.4185" id="Fill-257" fill="#9D9080"></path>
                <path d="M245.475376,381.792559 C245.451892,381.792559 245.428407,381.786688 245.404923,381.786688 C244.612329,381.645782 244.171999,380.80622 244.283549,378.980318 C244.829559,370.396819 245.187694,360.956145 245.123112,352.278709 C245.105499,350.675908 245.545829,349.049623 247.066435,349.049623 C247.072306,349.049623 247.078177,349.049623 247.084048,349.049623 C248.463749,349.061365 248.839497,350.435195 248.874723,352.043867 C249.091953,362.347588 247.723994,372.833312 246.690687,379.291485 C246.444102,380.841446 245.980288,381.792559 245.475376,381.792559" id="Fill-258" fill="#9D9080"></path>
                <path d="M223.752431,371.976136 C223.711334,371.976136 223.664365,371.970265 223.623268,371.958523 C222.842416,371.764778 222.795447,370.831278 223.012677,369.433965 C224.028371,362.881855 224.803352,355.877673 225.220198,349.184657 C225.29065,348.022186 225.748594,346.889071 226.822999,346.889071 C226.893452,346.889071 226.975646,346.894942 227.057841,346.906684 C228.419929,347.100429 228.772193,348.033929 228.719353,349.278595 C228.361218,357.245631 226.658609,365.324218 225.273037,370.185461 C224.956,371.300964 224.269085,371.976136 223.752431,371.976136" id="Fill-259" fill="#9D9080"></path>
                <path d="M270.450891,200.086584 C271.143677,167.734662 263.200125,154.052142 269.118159,128.136082 C275.899241,98.4073512 275.059678,67.6511842 271.120193,42.043355 C267.797169,20.4630772 261.186349,14.944275 249.673188,23.0122941 C234.731325,33.4862761 217.206192,55.4552185 202.998212,76.8611256 C197.749479,84.7624064 182.367286,81.2585542 169.439198,79.0310717 C166.345146,78.4885852 163.1689,78.047081 159.910458,77.7030365 C156.657887,77.3595791 153.464027,77.127672 150.317136,77.0102507 C137.218787,76.4883129 121.437361,76.6990842 117.96169,67.876046 C108.538629,43.9737615 95.9921608,18.8273981 83.5689849,5.46191607 C73.993276,-4.83358552 66.3726322,-0.818950488 58.6169538,19.5912238 C49.4111221,43.8087846 42.1603554,73.7101244 42.5830722,104.200919 C42.9529493,130.780997 32.3263196,142.501406 26.2438951,174.283836 C18.5821538,214.326268 34.4986141,244.860509 60.2960787,274.491193 C75.2027156,291.610634 101.006051,317.822596 134.171704,321.327036 C167.337357,324.831475 198.054775,304.590388 216.208111,290.964817 C247.630057,267.380157 269.576102,240.845874 270.450891,200.086584" id="Fill-260" fill="#DE8738"></path>
                <path d="M270.914705,200.809313 C271.607491,168.45739 242.216934,215.626122 217.476261,221.42791 C190.686587,227.710538 164.666021,203.692593 146.800367,201.804458 C128.934713,199.916911 98.4697508,217.966916 73.5823014,206.22361 C50.6029485,195.380338 31.7215998,143.110823 25.6333042,174.893252 C17.9715629,214.92864 34.0935105,246.409296 59.8909751,276.037044 C74.7976121,293.161183 100.806435,319.691944 133.972088,323.195796 C167.13774,326.700823 198.125227,306.192014 216.278564,292.56116 C247.70051,268.978849 270.039917,241.562144 270.914705,200.809313" id="Fill-261" fill="#F5DEBD"></path>
                <path d="M204.536432,249.530355 C194.855044,255.029196 186.688391,268.397026 177.21249,271.582079 C163.527035,276.189105 151.432638,266.177176 140.124965,264.982414 C128.823163,263.788239 114.896994,271.050748 102.479689,263.686083 C93.878577,258.590584 88.6885546,243.811937 80.3633828,236.410284 C76.2536365,232.749087 72.7544811,234.606105 76.8113878,240.439009 C82.6296143,248.795885 84.3674499,264.558523 100.818177,280.25247 C110.499565,289.482373 111.867524,305.077686 135.621857,307.587567 C159.382062,310.098622 163.979107,295.133274 175.374846,288.129679 C194.743493,276.220809 199.739771,261.169157 207.17254,254.213117 C212.362563,249.357746 209.321351,246.809116 204.536432,249.530355" id="Fill-262" fill="#272422"></path>
                <path d="M140.124965,264.982414 C132.733293,264.202149 124.220247,267.014977 115.742427,267.017913 C115.272742,289.235201 118.29047,301.735875 136.050445,303.612268 C153.663644,305.473396 159.411417,292.894637 163.509421,272.056462 C155.231218,270.281638 147.510766,265.762679 140.124965,264.982414" id="Fill-263" fill="#D0636F"></path>
                <path d="M146.283713,206.716779 C134.9232,205.516733 120.374699,210.479546 119.270938,220.942373 C117.938206,233.542855 122.811191,245.289684 141.991964,247.316376 C161.172737,249.343068 168.394148,238.873783 169.726881,226.273301 C170.830641,215.810474 157.644226,207.917412 146.283713,206.716779" id="Fill-264" fill="#272422"></path>
                <path d="M118.701445,164.2631 C116.928383,153.2572 112.437017,146.452634 103.260541,144.064284 C94.0781933,141.678283 83.5278874,143.599296 78.5316101,147.254622 C74.7330304,150.043378 74.5040588,154.400883 78.8897452,158.936282 C86.3577413,166.674934 95.2524065,171.981204 109.231415,174.399496 C115.947915,175.571361 120.016563,172.413901 118.701445,164.2631" id="Fill-265" fill="#272422"></path>
                <path d="M109.530839,155.652595 C109.442773,157.520181 107.857586,158.974444 105.978844,158.890488 C104.100103,158.801834 102.661692,157.21195 102.749758,155.344364 C102.831953,153.465622 104.405399,152.013708 106.28414,152.103535 C108.168752,152.189253 109.613034,153.772092 109.530839,155.652595" id="Fill-266" fill="#FFFFFE"></path>
                <path d="M182.126572,170.964335 C186.159995,160.571961 191.97235,154.855891 201.448251,154.438458 C210.924152,154.023961 220.846253,158.107874 224.967742,162.726642 C228.09702,166.247521 227.415976,170.55747 222.173114,174.076 C213.249094,180.082101 203.444413,183.413344 189.277531,182.857354 C182.461223,182.599027 179.144071,178.661303 182.126572,170.964335" id="Fill-267" fill="#272422"></path>
                <path d="M192.894107,164.460955 C192.588812,166.305057 193.839349,168.058744 195.688735,168.369911 C197.549863,168.675793 199.287699,167.421734 199.592994,165.577045 C199.90416,163.722375 198.665366,161.973384 196.810109,161.668089 C194.948981,161.358684 193.205274,162.603937 192.894107,164.460955" id="Fill-268" fill="#FFFFFE"></path>
                <path d="M101.205668,80.5217354 C106.612919,69.6127074 84.7021007,24.4348534 80.5982254,18.8890443 C76.5002213,13.3491063 71.9736293,12.560035 68.2572444,22.3881998 C64.5408595,32.2128418 56.4270461,86.8366541 61.916493,98.2746652 C67.4059398,109.712676 96.890434,89.2385073 101.205668,80.5217354" id="Fill-269" fill="#F5DEBD"></path>
                <path d="M216.736507,92.728269 C213.72465,80.9297745 244.594716,41.3294333 249.767125,36.7629181 C254.933663,32.202861 259.524837,32.3766446 261.104154,42.764909 C262.689342,53.1490637 259.2078,108.262523 251.44625,118.300872 C243.690572,128.339221 219.131902,102.154853 216.736507,92.728269" id="Fill-270" fill="#F5DEBD"></path>
            </g>
        </g>
    </g>
</svg>