<?xml version="1.0" encoding="UTF-8"?>
<svg width="561px" height="748px" viewBox="0 0 561 748" version="1.1" xmlns="http://www.w3.org/2000/svg" xmlns:xlink="http://www.w3.org/1999/xlink">
    <title>Group 2</title>
    <g id="Page-1" stroke="none" stroke-width="1" fill="none" fill-rule="evenodd">
        <g id="North-America" transform="translate(-1637.000000, -772.000000)">
            <g id="Group-2" transform="translate(1637.994150, 772.194411)">
                <path d="M85.0618139,566.884576 L488.672488,566.884576 C471.796911,515.544576 445.782456,452.926576 410.629122,379.030576 C376.659122,307.612576 144.249122,385.214576 144.249122,385.214576 C112.329122,432.354576 92.6000195,492.911243 85.0618139,566.884576 Z" id="Fill-4" fill="#010604"></path>
                <path d="M144.809122,556.954576 C147.139122,576.684576 164.599122,638.674576 167.529122,655.724576 C172.069122,682.074576 170.229122,694.704576 165.269122,706.594576 C157.039122,726.324576 134.139122,721.854576 129.839122,715.594576 C127.109122,741.724576 100.019122,754.074576 86.0291223,736.924576 C74.2291223,755.774576 42.6091223,747.434576 36.6591223,719.364576 C25.9691223,730.334576 4.23912233,721.234576 0.619122333,688.924576 C-3.01087767,656.614576 9.44912233,602.714576 34.6391223,547.254576 C50.2591223,512.884576 139.069122,508.274576 144.809122,556.954576" id="Fill-338" fill="#6A6969"></path>
                <path d="M36.3491223,717.404576 C36.3291223,717.404576 36.3191223,717.404576 36.2991223,717.404576 C35.2691223,717.374576 34.6391223,715.644576 34.6391223,712.934576 C34.6391223,702.114576 35.7291223,684.474576 39.2291223,667.834576 C39.7191223,665.474576 40.7091223,663.834576 42.8191223,663.834576 C43.0391223,663.834576 43.2591223,663.854576 43.4991223,663.884576 C45.8691223,664.234576 46.1791223,667.034576 45.6691223,669.644576 C42.9491223,683.684576 40.7491223,698.594576 39.1991223,712.694576 C38.8691223,715.664576 37.8491223,717.404576 36.3491223,717.404576" id="Fill-339" fill="#494846"></path>
                <path d="M85.9491223,732.964576 C84.9691223,732.964576 84.2091223,730.924576 83.9691223,727.644576 C82.9891223,714.254576 81.9791223,692.564576 83.9491223,671.504576 C84.2491223,668.334576 85.1191223,665.664576 87.5291223,665.664576 C87.6091223,665.664576 87.6991223,665.664576 87.7891223,665.674576 C90.6991223,665.894576 91.2891223,669.314576 91.0191223,672.604576 C89.5791223,690.344576 88.8391223,709.744576 88.5691223,727.394576 C88.5191223,731.164576 87.5491223,732.804576 86.0191223,732.954576 C85.9991223,732.964576 85.9791223,732.964576 85.9491223,732.964576" id="Fill-340" fill="#494846"></path>
                <path d="M129.749122,714.064576 C128.759122,714.064576 127.489122,712.604576 126.969122,710.244576 C124.759122,700.144576 122.219122,683.414576 122.229093,667.034576 C122.229093,664.474576 122.989122,662.584576 125.589122,662.324576 C125.699122,662.304576 125.799122,662.304576 125.899122,662.304576 C128.039122,662.304576 128.839122,664.734576 128.879122,667.174576 C129.089122,680.934576 129.959122,695.374576 131.329122,708.914576 C131.619122,711.804576 131.449122,713.714576 129.949122,714.044576 C129.879122,714.054576 129.819122,714.064576 129.749122,714.064576" id="Fill-341" fill="#494846"></path>
                <path d="M390.899122,559.984576 C386.709122,574.774576 374.969122,666.514576 380.979122,697.404576 C386.199122,724.284576 408.989122,719.934576 413.299122,713.204576 C416.029122,741.324576 443.119122,754.604576 457.119122,736.154576 C468.919122,756.434576 500.539122,747.464576 506.499122,717.254576 C517.189122,729.054576 541.389122,721.274576 545.009122,686.504576 C548.639122,651.734576 539.489122,628.254576 516.309122,563.704576 C502.689122,525.784576 405.079122,509.874576 390.899122,559.984576" id="Fill-342" fill="#6A6969"></path>
                <path d="M506.079122,714.834576 C506.049122,714.834576 506.029122,714.834576 505.999122,714.834576 C504.379122,714.704576 503.449122,712.714576 503.389122,709.454576 C503.089122,694.184576 502.189122,677.964576 500.649122,662.624576 C500.369122,659.774576 500.959122,656.804576 503.489122,656.704576 C503.569122,656.704576 503.639122,656.704576 503.709122,656.704576 C506.319122,656.704576 507.309122,658.644576 507.629122,661.414576 C509.739122,679.634576 509.209122,698.644576 508.169122,710.234576 C507.919122,713.064576 507.119122,714.834576 506.079122,714.834576" id="Fill-343" fill="#494846"></path>
                <path d="M458.129122,731.124576 C458.079122,731.124576 458.039122,731.124576 457.989122,731.114576 C456.379122,730.814576 455.489122,728.954576 455.729122,724.914576 C456.819122,705.954576 457.549122,685.084576 457.409122,665.914576 C457.389122,662.374576 458.269122,658.784576 461.329122,658.784576 C461.349122,658.784576 461.359122,658.784576 461.369122,658.784576 C464.139122,658.804576 464.909122,661.834576 464.969122,665.394576 C465.419122,688.164576 462.659122,711.334576 460.569122,725.604576 C460.069122,729.024576 459.149122,731.124576 458.129122,731.124576" id="Fill-344" fill="#494846"></path>
                <path d="M414.349122,709.434576 C414.259122,709.434576 414.169122,709.424576 414.079122,709.404576 C412.509122,708.974576 412.409122,706.904576 412.849122,703.814576 C414.899122,689.344576 416.459122,673.864576 417.299122,659.074576 C417.449122,656.514576 418.369122,653.994576 420.529122,653.994576 C420.679122,653.994576 420.839122,654.014576 420.999122,654.034576 C423.749122,654.464576 424.459122,656.524576 424.349122,659.274576 C423.639122,676.884576 420.199122,694.734576 417.409122,705.474576 C416.769122,707.954576 415.389122,709.434576 414.349122,709.434576" id="Fill-345" fill="#494846"></path>
                <path d="M337.869122,7.88657605 C222.919122,-17.644424 164.479122,14.980576 131.729122,162.424576 C124.329122,195.759576 290.919122,219.270576 290.919122,219.270576 C288.789122,228.881576 451.809122,268.494576 459.209122,235.159576 C491.959122,87.714576 452.829122,33.418576 337.869122,7.88657605" id="Fill-346" fill="#1D1815"></path>
                <path d="M464.409122,213.109576 C440.479122,186.692576 385.529122,166.272576 306.589122,148.738576 C227.649122,131.204576 169.219122,126.444576 136.359122,140.247576 C134.509122,147.304576 132.719122,154.592576 131.009122,162.264576 C130.079122,166.462576 131.929122,170.506576 135.849122,174.370576 C164.759122,177.624576 254.139122,190.207576 295.349122,199.360576 C336.779122,208.563576 423.829122,235.248576 450.899122,244.398576 C455.819122,242.321576 459.029122,239.362576 459.929122,235.318576 C461.639122,227.647576 463.099122,220.286576 464.409122,213.109576" id="Fill-347" fill="#504F4D"></path>
                <path d="M559.519122,291.989576 C552.859122,322.007576 424.049122,327.938576 274.179122,294.651576 C124.309122,261.364576 10.1291223,201.464576 16.7991223,171.446576 C23.4591223,141.428576 148.459122,152.660576 298.329122,185.947576 C448.199122,219.234576 566.189122,261.972576 559.519122,291.989576" id="Fill-348" fill="#1D1815"></path>
                <path d="M347.569122,480.944576 C345.699122,513.884576 308.009122,538.524576 263.379122,535.984576 C218.759122,533.444576 184.099122,504.694576 185.979122,471.754576 C187.859122,438.784576 225.549122,414.146576 270.169122,416.685576 C314.789122,419.224576 349.449122,447.974576 347.569122,480.944576" id="Fill-349" fill="#6A6969"></path>
                <path d="M274.339122,193.190576 C265.639122,190.947576 182.059122,183.844576 153.759122,187.056576 C131.289122,189.605576 128.429122,195.881576 120.769122,212.379576 C115.629122,223.438576 109.739122,247.279576 106.869122,258.110576 C101.919122,276.660576 99.6691223,295.851576 100.449122,314.867576 C104.379122,412.334576 136.469122,436.604576 143.729122,461.614576 C150.389122,484.574576 128.779122,523.304576 146.719122,534.564576 C172.799122,550.934576 207.679122,552.434576 223.319122,512.184576 C237.159122,476.624576 247.839122,463.894576 267.419122,465.004576 C286.999122,466.124576 296.179122,479.974576 305.879122,516.884576 C316.859122,558.644576 351.679122,561.114576 379.459122,547.804576 C398.559122,538.654576 381.479122,497.724576 390.689122,475.674576 C400.749122,451.644576 435.379122,431.164576 450.349122,334.776576 C453.279122,315.971576 454.919122,296.318576 450.409122,277.658576 C440.689122,237.452576 289.739122,197.160576 274.339122,193.190576" id="Fill-350" fill="#3F3D3C"></path>
                <path d="M382.639122,517.684576 C380.629122,502.134576 360.709122,475.684576 360.279122,439.484576 C359.479122,371.173576 349.279122,348.960576 311.989122,329.674576 C288.739122,317.650576 291.499122,307.448576 293.869122,265.883576 C294.589122,253.281576 300.809122,239.020576 306.979122,225.647576 C313.149122,212.273576 298.809122,192.662576 283.249122,191.777576 C267.689122,190.891576 249.119122,204.438576 252.779122,215.551576 C258.039122,231.566576 262.379122,249.542576 261.529122,264.421576 C259.169122,305.986576 262.949122,316.182576 238.489122,325.492576 C199.259122,340.424576 186.599122,361.337576 178.049122,429.114576 C173.529122,465.034576 150.729122,489.044576 146.969122,504.274576 C144.319122,515.004576 149.039122,521.734576 157.749122,523.914576 C171.059122,527.274576 191.849122,524.464576 206.509122,516.564576 C223.909122,507.194576 216.399122,482.324576 232.079122,465.784576 C239.589122,457.864576 240.689122,410.815576 233.449122,402.328576 C228.389122,396.399576 271.029122,401.586576 271.029122,401.586576 C271.029122,401.586576 313.989122,401.269576 308.279122,406.586576 C300.129122,414.197576 295.889122,461.064576 302.439122,469.784576 C316.149122,488.004576 305.869122,511.854576 322.089122,523.134576 C335.759122,532.654576 356.089122,537.804576 369.699122,535.974576 C378.609122,534.794576 384.049122,528.644576 382.639122,517.684576" id="Fill-351" fill="#FFFFFE"></path>
                <path d="M170.089122,276.188576 C169.019122,295.065576 183.449122,311.243576 202.309122,312.316576 C221.199122,313.391576 237.359122,298.954576 238.429122,280.077576 C239.509122,261.213576 225.089122,245.023576 206.199122,243.948576 C187.339122,242.875576 171.159122,257.324576 170.089122,276.188576" id="Fill-352" fill="#FFFFFE"></path>
                <path d="M181.549122,276.840576 C180.839122,289.374576 190.419122,300.138576 202.969122,300.852576 C215.509122,301.566576 226.259122,291.959576 226.969122,279.424576 C227.689122,266.894576 218.099122,256.115576 205.549122,255.401576 C193.009122,254.687576 182.259122,264.309576 181.549122,276.840576" id="Fill-353" fill="#2D2826"></path>
                <path d="M385.549122,288.447576 C384.469122,307.324576 368.289122,321.760576 349.429122,320.687576 C330.549122,319.613576 316.129122,303.435576 317.199122,284.558576 C318.269122,265.695576 334.439122,251.245576 353.319122,252.319576 C372.179122,253.392576 386.619122,269.584576 385.549122,288.447576" id="Fill-354" fill="#FFFFFE"></path>
                <path d="M374.089122,287.796576 C373.369122,300.329576 362.619122,309.936576 350.079122,309.223576 C337.529122,308.509576 327.949122,297.745576 328.659122,285.211576 C329.379122,272.679576 340.119122,263.058576 352.669122,263.772576 C365.209122,264.485576 374.799122,275.264576 374.089122,287.796576" id="Fill-355" fill="#2D2826"></path>
                <path d="M320.219122,388.667576 C318.699122,415.440576 285.929122,429.784576 269.459122,428.844576 C253.029122,427.914576 222.099122,409.943576 223.619122,383.170576 C224.889122,360.865576 243.829122,351.934576 273.739122,353.635576 C303.659122,355.338576 321.489122,366.361576 320.219122,388.667576" id="Fill-356" fill="#2D2826"></path>
                <path d="M369.119122,279.733576 C369.049122,281.917576 367.229122,283.626576 365.039122,283.555576 C362.859122,283.485576 361.149122,281.663576 361.219122,279.479576 C361.289122,277.294576 363.109122,275.583576 365.299122,275.653576 C367.479122,275.723576 369.189122,277.548576 369.119122,279.733576" id="Fill-357" fill="#FFFFFE"></path>
                <path d="M221.859122,275.005576 C221.789122,277.190576 219.959122,278.898576 217.779122,278.828576 C215.599122,278.758576 213.889122,276.936576 213.959122,274.751576 C214.029122,272.566576 215.849122,270.855576 218.039122,270.925576 C220.219122,270.995576 221.929122,272.820576 221.859122,275.005576" id="Fill-358" fill="#FFFFFE"></path>
                <path d="M129.959122,189.601576 C183.229122,175.706576 387.569122,221.062576 452.049122,254.659576 C516.529122,288.256576 480.899122,261.139576 457.939122,246.782576 C434.989122,232.425576 227.579122,159.849576 144.409122,167.403576 C61.2391223,174.957576 129.959122,189.601576 129.959122,189.601576" id="Fill-359" fill="#1D1815"></path>
                <path d="M461.839122,301.048576 C462.009122,298.700576 461.319122,297.336576 460.169122,296.162576 C457.899122,293.827576 454.929122,289.875576 453.019122,287.704576 C447.119122,280.980576 442.679122,270.452576 437.459122,260.870576 C426.059122,239.954576 405.089122,224.650576 379.649122,221.516576 C352.139122,218.129576 326.249122,229.800576 310.239122,250.071576 C302.009122,260.495576 298.149122,261.981576 283.079122,260.124576 C267.999122,258.267576 264.619122,255.890576 259.159122,243.780576 C248.549122,220.230576 226.259122,202.626576 198.759122,199.239576 C173.319122,196.105576 149.249122,205.862576 133.119122,223.387576 C125.729122,231.417576 118.869122,240.553576 111.509122,245.644576 C109.129122,247.286576 105.289122,250.401576 102.529122,252.115576 C101.129122,252.975576 100.129122,254.131576 99.7291223,256.451576 C98.8391223,261.604576 98.1891223,267.923576 98.4991223,271.283576 C98.8191223,274.666576 104.609122,275.668576 108.229122,279.040576 C112.809122,283.302576 113.649122,290.869576 117.819122,301.962576 C127.509122,327.738576 150.839122,347.386576 180.069122,350.986576 C215.489122,355.348576 248.239122,334.740576 260.629122,302.944576 C262.129122,299.101576 269.209122,286.115576 279.719122,287.410576 C290.229122,288.706576 293.929122,303.017576 294.449122,307.110576 C298.769122,340.964576 325.539122,368.902576 360.959122,373.264576 C390.179122,376.863576 417.589122,363.464576 433.239122,340.808576 C439.979122,331.059576 442.629122,323.923576 448.109122,320.899576 C452.439122,318.506576 458.289122,318.938576 459.419122,315.734576 C460.539122,312.549576 461.449122,306.263576 461.839122,301.048576" id="Fill-360" fill="#CACBC8"></path>
                <path d="M115.139122,265.044576 C114.909122,266.866576 112.269122,268.042576 109.229122,267.668576 C106.189122,267.294576 103.909122,265.511576 104.139122,263.689576 C104.359122,261.863576 107.009122,260.691576 110.039122,261.064576 C113.079122,261.439576 115.359122,263.218576 115.139122,265.044576" id="Fill-361" fill="#EFEEEA"></path>
                <path d="M444.799122,305.645576 C444.579122,307.467576 446.849122,309.249576 449.889122,309.624576 C452.929122,309.998576 455.579122,308.822576 455.799122,307.001576 C456.029122,305.174576 453.749122,303.395576 450.709122,303.021576 C447.659122,302.646576 445.029122,303.819576 444.799122,305.645576" id="Fill-362" fill="#EFEEEA"></path>
                <path d="M362.009122,364.673576 C324.859122,360.096576 298.439122,326.262576 303.019122,289.103576 C307.589122,251.949576 341.429122,225.536576 378.589122,230.112576 C415.749122,234.689576 442.159122,268.522576 437.579122,305.676576 C433.009122,342.835576 399.179122,369.249576 362.009122,364.673576" id="Fill-363" fill="#1D1815"></path>
                <path d="M181.129122,342.395576 C143.969122,337.818576 117.559122,303.985576 122.129122,266.826576 C126.709122,229.672576 160.539122,203.257576 197.699122,207.835576 C234.859122,212.410576 261.269122,246.244576 256.689122,283.398576 C252.109122,320.556576 218.279122,346.971576 181.129122,342.395576" id="Fill-364" fill="#1D1815"></path>
                <path d="M423.149122,294.963576 C421.729122,294.787576 420.559122,293.650576 420.399122,292.165576 C420.029122,288.490576 419.239122,284.869576 418.069122,281.398576 C417.519122,279.753576 418.399122,277.967576 420.049122,277.410576 C421.719122,276.857576 423.489122,277.747576 424.029122,279.387576 C425.359122,283.301576 426.239122,287.381576 426.669122,291.520576 C426.839122,293.246576 425.589122,294.793576 423.859122,294.971576 C423.619122,294.996576 423.379122,294.991576 423.149122,294.963576" id="Fill-365" fill="#FFFFFE"></path>
                <path d="M414.879122,271.494576 C413.989122,271.384576 413.139122,270.893576 412.619122,270.081576 C408.279122,263.359576 402.339122,257.707576 395.429122,253.733576 C393.919122,252.861576 393.409122,250.940576 394.279122,249.433576 C395.139122,247.931576 397.059122,247.416576 398.569122,248.278576 C406.339122,252.752576 413.029122,259.110576 417.899122,266.666576 C418.849122,268.124576 418.429122,270.074576 416.969122,271.017576 C416.329122,271.433576 415.589122,271.581576 414.879122,271.494576" id="Fill-366" fill="#FFFFFE"></path>
                <path d="M138.739122,259.935576 C138.509122,259.906576 138.269122,259.853576 138.049122,259.772576 C136.409122,259.178576 135.569122,257.374576 136.159122,255.741576 C137.579122,251.830576 139.429122,248.087576 141.659122,244.610576 C142.589122,243.152576 144.519122,242.713576 146.009122,243.659576 C147.469122,244.599576 147.889122,246.546576 146.949122,248.006576 C144.969122,251.090576 143.339122,254.413576 142.079122,257.886576 C141.569122,259.289576 140.159122,260.110576 138.739122,259.935576" id="Fill-367" fill="#FFFFFE"></path>
                <path d="M152.459122,239.174576 C151.749122,239.088576 151.069122,238.764576 150.539122,238.204576 C149.359122,236.935576 149.419122,234.942576 150.689122,233.756576 C157.259122,227.610576 165.279122,223.063576 173.909122,220.609576 C175.579122,220.138576 177.319122,221.100576 177.789122,222.771576 C178.269122,224.444576 177.299122,226.182576 175.629122,226.662576 C167.959122,228.842576 160.829122,232.883576 154.989122,238.352576 C154.279122,239.012576 153.349122,239.284576 152.459122,239.174576" id="Fill-368" fill="#FFFFFE"></path>
                <path d="M248.599122,470.014576 C252.119122,465.404576 271.089122,460.824576 277.599122,458.444576 C284.119122,456.054576 461.689122,440.694576 474.189122,439.394576 C486.679122,438.084576 492.059122,481.854576 473.689122,481.844576 C448.179122,481.834576 281.689122,485.884576 276.249122,485.734576 C262.419122,485.334576 248.599122,470.014576 248.599122,470.014576" id="Fill-369" fill="#5E3D27"></path>
                <path d="M316.549122,453.754576 C311.449122,454.554576 312.209122,484.394576 318.549122,484.974576 C325.029122,485.574576 337.619122,484.754576 334.729122,484.524576 C331.079122,484.224576 326.819122,455.154576 334.199122,452.414576 C337.069122,451.344576 316.549122,453.754576 316.549122,453.754576" id="Fill-370" fill="#E5AB65"></path>
                <path d="M482.549122,459.504576 C483.229122,468.764576 481.509122,476.444576 478.699122,476.654576 C475.889122,476.854576 473.049122,469.514576 472.369122,460.254576 C471.679122,450.994576 473.399122,443.314576 476.209122,443.104576 C479.019122,442.894576 481.859122,450.234576 482.549122,459.504576" id="Fill-371" fill="#C9292B"></path>
            </g>
        </g>
    </g>
</svg>