<?xml version="1.0" encoding="UTF-8"?>
<svg width="458px" height="778px" viewBox="0 0 458 778" version="1.1" xmlns="http://www.w3.org/2000/svg" xmlns:xlink="http://www.w3.org/1999/xlink">
    <title>Group 2</title>
    <g id="Page-1" stroke="none" stroke-width="1" fill="none" fill-rule="evenodd">
        <g id="North-America" transform="translate(-5529.000000, -2296.000000)">
            <g id="Group-2" transform="translate(5529.520268, 2296.659804)">
                <path d="M219.350356,368.647463 L113.122405,374.078868 C89.3408839,430.544441 38.5767134,448.277786 50.500942,511.312682 C55.3777315,537.09273 172.345673,535.586663 225.693926,535.586663 C279.042179,535.586663 414.383722,537.50391 412.748563,511.312682 C409.78424,463.845263 365.720978,402.593743 340.485983,364.631283 L219.350356,368.647463 Z" id="Fill-4" fill="#353A3F"></path>
                <path d="M381.690074,145.858504 C391.166345,95.8427243 389.569436,51.0671027 387.054542,32.6940371 C382.837554,1.89758925 371.34363,-4.39633796 353.92106,2.56790875 C337.588596,9.10663168 310.603694,32.0103303 279.927732,70.7712449 C276.227109,75.4548753 270.145466,83.632582 259.349592,82.3187176 C243.112752,80.3345336 225.938803,78.0730419 197.242243,80.9541727 C168.536121,83.8362597 152.155846,89.4665611 136.63618,94.6378704 C126.318423,98.0736165 118.735494,91.266192 114.174261,87.4135283 C76.4030481,55.5250621 45.4019663,38.4419551 28.0941446,35.2816043 C9.62928066,31.9194882 -0.382481405,40.3735463 1.61604608,71.3927965 C2.8017753,89.8987785 10.1360843,134.098748 29.3659348,181.232441 C33.5637988,191.512904 30.723786,211.285895 29.2416245,223.425276 C26.2486144,248.003339 25.2541319,269.968973 27.5490917,295.936443 C32.5788785,352.87822 73.5439107,390.659952 116.555282,405.548504 C159.690964,420.45618 204.81561,416.000133 230.614783,413.408741 C256.413956,410.817349 301.529041,406.217867 340.830227,383.029211 C380.026228,359.888366 412.662468,314.71782 406.27483,257.911828 C403.367881,232.005557 398.022537,210.676775 390.20055,187.185949 C386.327805,175.582058 379.62461,156.769125 381.690074,145.858504" id="Fill-221" fill="#4F5357"></path>
                <path d="M377.549584,347.258438 C366.964082,344.397388 344.435226,339.4441 326.553665,329.26404 C314.447752,322.36673 300.907489,311.481927 284.699336,297.644276 C256.165336,273.279453 226.321296,264.147425 215.735794,265.2098 C205.150292,266.273132 177.71596,281.155946 154.603803,310.705466 C141.465158,327.491184 130.353728,340.849762 119.863849,350.016214 C104.353746,363.55074 83.2688028,372.883576 73.467412,377.789053 C71.7175052,378.668787 71.0385796,379.959702 72.9892954,381.566174 C86.2044389,392.400297 101.217301,400.843836 116.450096,406.103119 C159.585778,421.02992 204.901671,416.870305 230.700844,414.278913 C256.500017,411.687521 301.739412,406.753358 341.050161,383.555139 C354.925105,375.369783 367.968127,364.114917 378.764,350.864393 C380.360909,348.901246 379.433363,347.770022 377.549584,347.258438" id="Fill-222" fill="#E9E8E4"></path>
                <path d="M219.933658,307.00293 C185.069394,310.520913 155.74172,356.445927 157.50119,358.281894 C175.45925,377.177063 199.957946,390.143586 227.994704,387.33226 C256.050588,384.511372 277.470212,366.935805 291.31647,344.843949 C292.655196,342.698161 254.78836,303.521285 219.933658,307.00293" id="Fill-223" fill="#D7D7D3"></path>
                <path d="M270.422773,356.398115 C258.106489,355.317571 225.221628,306.611831 219.474666,302.424486 C214.664813,307.672294 192.126395,361.944268 180.259541,365.453644 C170.142593,368.456216 175.373189,370.206123 182.219819,370.034001 C196.850188,369.680195 217.304017,359.53456 225.126005,358.750449 C232.947993,357.966337 255.008293,363.83761 269.428291,361.284467 C276.169735,360.089175 280.941339,357.325661 270.422773,356.398115" id="Fill-224" fill="#010604"></path>
                <path d="M60.4530776,172.405451 C54.8399884,175.845022 50.0396976,176.105118 46.3868866,171.647159 C28.3714522,149.692999 1.09968012,59.4169314 14.3148236,47.4372413 C28.4288262,34.6648338 89.7233772,74.9796274 102.106598,116.046977 C107.126822,132.639536 85.5828872,157.007228 60.4530776,172.405451" id="Fill-225" fill="#8B8F92"></path>
                <path d="M349.474576,143.387597 C355.661405,145.642395 360.413884,144.943389 363.110462,139.847622 C376.392541,114.75128 385.180325,20.8549133 369.842344,11.7429667 C353.471631,2.02954944 301.414293,53.7254311 297.436363,96.4355889 C295.820328,113.694643 321.782061,133.292643 349.474576,143.387597" id="Fill-226" fill="#8B8F92"></path>
                <path d="M135.287891,206.843236 C106.495708,203.327166 89.7042525,225.731711 88.3464013,236.865134 C86.9789878,248.007164 97.8896091,273.793906 126.662667,277.313801 C155.45485,280.833695 172.265431,258.431063 173.623282,247.29477 C174.589078,239.424015 163.047342,210.236907 135.287891,206.843236" id="Fill-227" fill="#DCC27A"></path>
                <path d="M157.003948,246.197015 C154.737675,260.577806 141.254787,270.380153 126.882601,268.122487 C112.491291,265.845695 102.6899,252.352288 104.937048,237.969584 C107.222446,223.591661 120.724459,213.770189 135.096645,216.05463 C149.478393,218.323772 159.289346,231.820048 157.003948,246.197015" id="Fill-228" fill="#201E26"></path>
                <path d="M148.302226,236.180471 C147.862358,239.743397 144.611165,242.289846 141.044415,241.851891 C137.468103,241.419673 134.934085,238.167524 135.36439,234.598862 C135.794695,231.034024 139.05545,228.490444 142.6222,228.92553 C146.18895,229.363485 148.722968,232.614678 148.302226,236.180471" id="Fill-229" fill="#F1EBE1"></path>
                <path d="M282.978116,192.005364 C310.488946,182.846562 331.401767,201.464424 334.949393,212.106343 C338.497018,222.750176 332.950865,250.193113 305.430472,259.36339 C277.929204,268.537492 256.987696,249.924412 253.449633,239.279623 C250.944302,231.757893 256.452206,200.859128 282.978116,192.005364" id="Fill-230" fill="#DCC27A"></path>
                <path d="M269.514352,234.901988 C274.601513,248.547436 289.767372,255.469608 303.403258,250.398704 C317.058269,245.30198 323.981397,230.135165 318.903799,216.485892 C313.816638,202.849049 298.631654,195.907752 284.995768,200.998738 C271.359882,206.082074 264.427191,221.264189 269.514352,234.901988" id="Fill-231" fill="#201E26"></path>
                <path d="M276.064549,223.353559 C277.192905,226.757749 280.883965,228.60806 284.30728,227.46823 C287.701908,226.33605 289.557001,222.643077 288.419083,219.231237 C287.290728,215.824178 283.590105,213.979604 280.185915,215.113697 C276.772162,216.252571 274.926632,219.943631 276.064549,223.353559" id="Fill-232" fill="#F1EBE1"></path>
                <path d="M312.353601,313.479498 C309.695273,298.365276 295.858578,284.226411 275.108316,276.180664 C248.582406,265.888726 249.261332,252.769206 242.414702,222.764519 C240.674357,215.13569 238.178588,207.224773 234.544902,202.802194 C232.450751,200.245226 229.362118,197.058101 225.948365,194.013454 C223.691655,191.992933 221.148074,190.388374 217.705635,180.155722 C212.991405,166.124912 208.210238,159.444666 205.150292,159.752573 C202.080783,160.059524 198.733967,167.555436 196.897999,182.246048 C195.559273,192.957773 193.388623,195.034711 191.581342,197.463544 C188.836953,201.126873 186.44637,204.863833 184.897272,207.787038 C182.219819,212.843599 181.340084,221.092067 181.1584,228.914055 C180.402976,259.681816 183.682856,272.404499 159.729213,287.764474 C140.996604,299.774763 130.23898,316.382622 130.640598,331.723472 C131.338648,358.769573 155.101044,380.026638 186.140375,372.20465 C198.772216,369.029956 211.996922,360.882849 218.767054,352.619081 C220.354401,350.700877 222.391177,346.545088 221.855687,339.992021 C221.587942,336.919644 221.941748,333.291695 221.760064,330.975698 L220.698645,316.994612 L220.928141,316.911419 L221.167199,316.947756 L222.907543,330.86095 C223.184851,333.166428 224.255832,336.651898 224.609639,339.714714 C225.384188,346.245787 228.205076,349.911985 230.146229,351.476382 C238.417647,358.234083 253.000204,363.579427 266.014538,364.191416 C297.990978,365.68314 317.048706,340.124938 312.353601,313.479498" id="Fill-233" fill="#FFFFFE"></path>
                <path d="M156.908325,327.795266 C156.994386,329.931491 155.368789,331.771284 153.236389,331.903244 C151.06574,332.022773 149.229772,330.371359 149.124586,328.21314 C148.990714,326.083609 150.65456,324.240947 152.796522,324.119506 C154.948047,324.001889 156.774452,325.650435 156.908325,327.795266" id="Fill-234" fill="#C9C9C6"></path>
                <path d="M171.404821,327.700599 C171.519569,329.858817 169.874848,331.686179 167.723323,331.794234 C165.58136,331.930019 163.73583,330.26426 163.649769,328.13186 C163.506334,325.989898 165.160618,324.147236 167.30258,324.019101 C169.454105,323.908178 171.290073,325.561505 171.404821,327.700599" id="Fill-235" fill="#C9C9C6"></path>
                <path d="M183.749792,327.240651 C183.874102,329.374963 182.219819,331.2138 180.077856,331.323767 C177.935894,331.452858 176.080801,329.818656 175.966053,327.667131 C175.87043,325.519431 177.505589,323.687288 179.637989,323.577321 C181.789514,323.441536 183.625482,325.091039 183.749792,327.240651" id="Fill-236" fill="#C9C9C6"></path>
                <path d="M156.994386,347.451597 C157.099572,349.599297 155.473975,351.436221 153.32245,351.550969 C151.180488,351.679104 149.334958,350.039164 149.22021,347.891464 C149.095899,345.745677 150.750183,343.901103 152.892145,343.791136 C155.04367,343.675432 156.879638,345.31059 156.994386,347.451597" id="Fill-237" fill="#C9C9C6"></path>
                <path d="M172.542738,345.312503 C172.676611,347.456378 171.03189,349.292346 168.880365,349.413787 C166.72884,349.530448 164.911997,347.888595 164.768562,345.750458 C164.672939,343.588414 166.308098,341.768703 168.440498,341.632917 C170.58246,341.521994 172.447115,343.160022 172.542738,345.312503" id="Fill-238" fill="#C9C9C6"></path>
                <path d="M185.098081,340.731189 C185.212829,342.871239 183.568108,344.717726 181.416583,344.83343 C179.284183,344.947222 177.438653,343.312063 177.352592,341.160538 C177.209157,339.019532 178.853878,337.177827 180.986278,337.057341 C183.16649,336.940681 184.983333,338.587315 185.098081,340.731189" id="Fill-239" fill="#C9C9C6"></path>
                <path d="M285.827691,314.851693 C286.171935,316.9621 288.122651,318.442349 290.255051,318.145916 C292.397013,317.832272 293.869613,315.849044 293.544493,313.713775 C293.248061,311.601456 291.259096,310.12312 289.136258,310.431027 C287.003858,310.742759 285.540821,312.723118 285.827691,314.851693" id="Fill-240" fill="#C9C9C6"></path>
                <path d="M271.59894,317.641025 C271.92406,319.77725 273.8939,321.243156 276.0263,320.919949 C278.149138,320.628298 279.631299,318.62977 279.30618,316.518407 C279.009748,314.392701 277.020783,312.916277 274.888383,313.21749 C272.765545,313.53496 271.292946,315.521056 271.59894,317.641025" id="Fill-241" fill="#C9C9C6"></path>
                <path d="M259.416529,319.643378 C259.722523,321.760478 261.701926,323.233077 263.824764,322.916564 C265.957164,322.615351 267.439326,320.64551 267.123769,318.515023 C266.798649,316.390272 264.828809,314.919586 262.725096,315.236099 C260.583133,315.530619 259.100972,317.51289 259.416529,319.643378" id="Fill-242" fill="#C9C9C6"></path>
                <path d="M289.662186,334.131268 C289.968181,336.259843 291.938021,337.734354 294.060859,337.42071 C296.193259,337.120453 297.665858,335.146787 297.350302,333.018212 C297.053869,330.890593 295.074466,329.4113 292.951629,329.72877 C290.809666,330.044327 289.346629,332.011299 289.662186,334.131268" id="Fill-243" fill="#C9C9C6"></path>
                <path d="M273.999086,335.126706 C274.295518,337.254325 276.265358,338.726925 278.397759,338.419017 C280.530159,338.104417 281.983633,336.134576 281.706326,334.010782 C281.362082,331.871688 279.392241,330.415345 277.269403,330.70604 C275.146566,331.02351 273.654842,332.998131 273.999086,335.126706" id="Fill-244" fill="#C9C9C6"></path>
                <path d="M260.77438,333.133916 C261.089937,335.253885 263.06934,336.735091 265.20174,336.421446 C267.315015,336.108758 268.797177,334.139874 268.452933,332.014167 C268.175625,329.886548 266.18666,328.410124 264.073385,328.715163 C261.92186,329.033588 260.458823,331.009166 260.77438,333.133916" id="Fill-245" fill="#C9C9C6"></path>
                <path d="M220.832517,315.85765 C208.659668,317.079716 199.240771,320.303179 199.15471,324.418807 C199.039962,328.519135 208.525795,329.92671 213.756391,332.014167 C217.791696,333.652195 218.996549,337.563189 220.708207,339.99489 C221.607066,341.259986 222.964917,341.937956 223.433472,341.803127 C223.911588,341.842332 225.154692,340.903311 225.737994,339.490955 C226.923723,336.767603 227.315779,332.695005 230.959027,330.28721 C235.654133,327.203358 244.690537,323.935909 243.762991,319.93981 C242.854569,315.92363 233.005367,314.635584 220.832517,315.85765" id="Fill-246" fill="#D46B76"></path>
                <path d="M248.984024,492.164111 C248.984024,492.164111 265.173053,468.726834 266.081474,462.406132 C266.989896,456.075868 257.94393,429.081404 255.237789,426.375264 C252.531649,423.659561 238.981824,421.852281 229.046561,421.852281 C219.101735,421.852281 205.561472,423.659561 202.84577,426.375264 C200.13963,429.081404 191.103226,456.075868 192.011647,462.406132 C192.910507,468.726834 209.099535,492.164111 209.099535,492.164111 C209.099535,492.164111 173.977088,704.094085 178.461822,717.376165 C182.936994,730.667807 223.146602,776.662626 229.046561,776.662626 C234.936958,776.662626 275.146566,730.667807 279.631299,717.376165 C284.106471,704.094085 248.984024,492.164111 248.984024,492.164111" id="Fill-247" fill="#C8282B"></path>
                <path d="M229.773298,447.049026 C165.801294,448.856307 95.8528323,438.586362 83.7469194,411.572773 C81.8248906,407.279286 83.7469194,402.239937 88.0404067,400.308346 C92.3243316,398.395879 97.3828055,400.308346 99.3048343,404.601833 C104.487618,416.181817 149.392332,432.265661 229.285619,430.00895 C309.188469,427.75224 353.108262,409.153503 357.631245,397.305773 C359.304653,392.9071 364.238817,390.707764 368.627928,392.381172 C373.0266,394.05458 375.235499,398.988744 373.562091,403.387417 C362.995714,431.041682 293.73574,445.241746 229.773298,447.049026" id="Fill-248" fill="#C8282B"></path>
                <path d="M78.7362572,447.661016 C35.4380159,447.661016 0,476.281077 0,511.585208 C-0.00955043972,527.00925 5.74697369,542.375919 18.5413745,546.047854 C24.9863866,547.893384 31.6704569,546.631157 37.2644214,545.378491 C41.7013437,544.384008 45.4593403,543.389526 47.8977351,543.934579 C57.5748155,546.133915 60.3765789,556.748104 78.7362572,556.748104 C97.0959355,556.748104 99.8785743,546.133915 109.574779,543.934579 C112.003612,543.389526 115.761608,544.384008 120.198531,545.378491 C125.792495,546.631157 132.476566,547.893384 138.93114,546.047854 C151.706416,542.375919 157.46294,527.00925 157.46294,511.585208 C157.46294,476.281077 122.024936,447.661016 78.7362572,447.661016" id="Fill-279" fill="#4F5357"></path>
                <path d="M107.576252,538.914354 C107.557127,538.914354 107.52844,538.914354 107.499753,538.914354 C105.797658,538.809169 104.784051,537.671251 104.870112,535.060734 C105.281292,522.820949 105.223918,509.376309 104.325059,497.07915 C104.152937,494.793752 104.583242,490.528952 107.843997,490.366392 C107.901371,490.366392 107.958745,490.366392 108.006557,490.366392 C110.817883,490.366392 112.060986,494.057453 112.271357,496.295039 C113.638771,510.89672 111.640243,525.938269 110.005084,535.223294 C109.613029,537.499129 108.685482,538.914354 107.576252,538.914354" id="Fill-280" fill="#333637"></path>
                <path d="M46.2434516,538.885667 C46.1765153,538.885667 46.1095789,538.876105 46.0330803,538.876105 C44.0345528,538.637047 43.8337438,536.944514 44.2640488,534.372246 C46.2530139,522.285458 47.6013028,509.414559 48.0602947,497.165211 C48.1463557,494.918063 49.5807056,490.366392 52.6597767,490.366392 C52.698026,490.366392 52.7458376,490.366392 52.784087,490.366392 C56.2552136,490.500265 56.9532639,494.506882 56.9245769,496.773155 C56.7333303,511.336588 53.1378933,526.3112 50.0588222,535.376291 C49.3225226,537.527816 47.5630535,538.885667 46.2434516,538.885667" id="Fill-281" fill="#333637"></path>
                <path d="M378.094637,444.342886 C421.392878,444.342886 456.821332,472.953385 456.821332,508.267079 C456.830882,523.681559 451.074358,539.048227 438.289519,542.720163 C431.834945,544.565693 425.160437,543.303465 419.566472,542.050799 C415.12955,541.056317 411.361991,540.061834 408.933159,540.606887 C399.246516,542.815786 396.454315,553.420413 378.094637,553.420413 C359.734958,553.420413 356.95232,542.815786 347.256115,540.606887 C344.827282,540.061834 341.059723,541.056317 336.622801,542.050799 C331.028836,543.303465 324.344766,544.565693 317.899754,542.720163 C305.124478,539.048227 299.367954,523.681559 299.367954,508.267079 C299.367954,472.953385 334.796395,444.342886 378.094637,444.342886" id="Fill-282" fill="#4F5357"></path>
                <path d="M349.24508,535.586663 C348.145411,535.586663 347.217865,534.171437 346.816247,531.895602 C345.181088,522.610577 343.192123,507.569029 344.549974,492.967347 C344.760346,490.729761 346.003449,487.038701 348.814775,487.038701 C348.872149,487.038701 348.929523,487.038701 348.986897,487.038701 C352.23809,487.20126 352.668395,491.466061 352.505835,493.751458 C351.606976,506.048618 351.549602,519.493257 351.95122,531.733043 C352.037281,534.353122 351.023674,535.491039 349.321578,535.586663 C349.302454,535.586663 349.273767,535.586663 349.24508,535.586663" id="Fill-283" fill="#333637"></path>
                <path d="M410.57788,535.557976 C409.26784,535.557976 407.498809,534.209687 406.772072,532.0486 C403.693001,522.983508 400.097564,508.008896 399.906317,493.455026 C399.868068,491.179191 400.57568,487.182136 404.046807,487.038701 C404.085056,487.038701 404.123306,487.038701 404.161555,487.038701 C407.240626,487.038701 408.684538,491.599933 408.770599,493.837519 C409.229591,506.086867 410.568318,518.957766 412.566845,531.044555 C412.987588,533.626384 412.786779,535.318917 410.788251,535.548413 C410.721315,535.557976 410.654379,535.557976 410.57788,535.557976" id="Fill-284" fill="#333637"></path>
            </g>
        </g>
    </g>
</svg>