<?xml version="1.0" encoding="UTF-8"?>
<svg width="618px" height="390px" viewBox="0 0 618 390" version="1.1" xmlns="http://www.w3.org/2000/svg" xmlns:xlink="http://www.w3.org/1999/xlink">
    <title>Group</title>
    <g id="Page-1" stroke="none" stroke-width="1" fill="none" fill-rule="evenodd">
        <g id="iStock-1275739749" transform="translate(-1071.000000, -528.000000)">
            <g id="Group" transform="translate(1071.750000, 528.445134)">
                <path d="M577.74,35.6828663 C576.01,7.20486631 569.54,-5.44713369 550.97,2.18386631 C532.01,9.96786631 481.24,44.7988663 450.69,84.3548663 C446.29,90.0538663 441.3,89.1928663 434.26,87.4338663 C405.09,80.1338663 376.05,76.2378663 340.54,76.2378663 C305.05,76.2378663 273.89,80.4938663 246.84,87.4338663 C239.8,89.2408663 234.8,90.0538663 230.41,84.3548663 C199.86,44.7988663 149.09,9.96786631 130.12,2.18386631 C111.54,-5.44713369 105.09,7.20486631 103.36,35.6828663 C101.91,59.5358663 106.9,126.869866 123.78,176.769866 C126.89,185.959866 126.83,197.301866 121.7,211.023866 C110.93,239.966866 106.51,271.134567 106.51,302.241866 C106.51,336.429251 106.51,355.271251 106.51,358.767866 L557.264139,358.736866 C567.09516,341.312663 572.032748,327.687997 572.076904,317.862866 C572.226904,286.755866 570.16,239.966866 559.38,211.023866 C554.27,197.301866 554.21,185.959866 557.32,176.769866 C574.2,126.869866 579.18,59.5358663 577.74,35.6828663 Z" id="Fill-77" fill="#F3974B"></path>
                <path d="M128.21,33.7378663 C117.05,39.0278663 128.84,101.735866 144.71,142.762866 C146.59,147.620866 153.25,147.136866 157.42,144.920866 C163.85,141.495866 174.01,135.427866 184.51,125.642866 C192.2,118.493866 200.87,106.945866 200.29,101.330866 C198.01,79.4378663 137.2,29.4818663 128.21,33.7378663" id="Fill-78" fill="#FCB792"></path>
                <path d="M552.87,33.7378663 C543.89,29.4818663 483.07,79.4378663 480.78,101.330866 C480.21,106.945866 488.88,118.493866 496.56,125.642866 C507.07,135.427866 517.22,141.495866 523.65,144.920866 C527.82,147.136866 534.48,147.620866 536.36,142.762866 C552.25,101.735866 564.03,39.0278663 552.87,33.7378663" id="Fill-79" fill="#FCB792"></path>
                <path d="M239.38,149.792866 C203.69,149.792866 186.53,184.318866 186.53,200.264866 C186.53,216.223866 203.69,250.748866 239.38,250.748866 C275.07,250.748866 292.24,216.223866 292.24,200.264866 C292.24,188.986866 273.78,149.792866 239.38,149.792866" id="Fill-80" fill="#DE8738"></path>
                <path d="M271.79,193.182866 C271.16,211.643866 256.15,226.061866 238.25,225.430866 C220.35,224.781866 206.35,209.294866 206.96,190.845866 C207.6,172.396866 222.61,157.960866 240.52,158.621866 C258.41,159.264866 272.43,174.745866 271.79,193.182866" id="Fill-81" fill="#1E1C22"></path>
                <path d="M437.5,149.792866 C473.19,149.792866 490.37,184.318866 490.37,200.264866 C490.37,216.223866 473.19,250.748866 437.5,250.748866 C401.83,250.748866 384.67,216.223866 384.67,200.264866 C384.67,188.986866 403.11,149.792866 437.5,149.792866" id="Fill-82" fill="#DE8738"></path>
                <path d="M405.11,193.182866 C405.75,211.643866 420.74,226.061866 438.64,225.430866 C456.56,224.781866 470.54,209.294866 469.93,190.845866 C469.31,172.396866 454.28,157.960866 436.39,158.621866 C418.47,159.264866 404.47,174.745866 405.11,193.182866" id="Fill-83" fill="#1E1C22"></path>
                <path d="M253.65,176.545866 C253.65,181.101866 250.06,184.802866 245.63,184.802866 C241.22,184.802866 237.62,181.101866 237.62,176.545866 C237.62,171.995866 241.22,168.288866 245.63,168.288866 C250.06,168.288866 253.65,171.995866 253.65,176.545866" id="Fill-84" fill="#FFFFFE"></path>
                <path d="M445.52,173.665866 C445.52,178.221866 441.94,181.922866 437.51,181.922866 C433.1,181.922866 429.48,178.221866 429.48,173.665866 C429.48,169.115866 433.1,165.409866 437.51,165.409866 C441.94,165.409866 445.52,169.115866 445.52,173.665866" id="Fill-85" fill="#FFFFFE"></path>
                <path d="M338.44,263.508866 C293.54,263.520866 250.26,317.757866 252.26,320.295866 C272.76,346.416866 302.32,365.887866 338.44,365.887866 C374.59,365.887866 404.15,346.416866 424.63,320.295866 C426.63,317.757866 383.34,263.520866 338.44,263.508866" id="Fill-86" fill="#9C9D9C"></path>
                <path d="M371.94,324.119866 C363.25,324.119866 342.81,273.753866 338.45,269.339866 C334.11,273.753866 313.67,324.119866 304.98,324.119866 C296.3,324.119866 300.61,328.074866 306.21,328.552866 C318.18,329.584866 332.01,319.799866 338.45,319.799866 C344.92,319.799866 358.75,329.584866 370.69,328.552866 C376.3,328.074866 380.62,324.119866 371.94,324.119866" id="Fill-87" fill="#010604"></path>
                <path d="M336.53,286.265866 C336.53,299.155866 329.51,311.171866 323.19,319.327866 C309.38,337.174866 281.95,353.563866 263.99,353.522943 C229.7,353.439866 202.49,328.309866 202.49,293.725866 C202.49,259.117866 230.3,231.072866 264.58,231.072866 C310.15,231.072866 336.53,251.675866 336.53,286.265866" id="Fill-88" fill="#BEBEBC"></path>
                <path d="M340.39,286.265866 C340.39,299.155866 347.41,311.171866 353.73,319.327866 C367.54,337.174866 394.96,353.563866 412.94,353.522943 C447.22,353.439866 474.42,328.309866 474.42,293.725866 C474.42,259.117866 446.62,231.072866 412.35,231.072866 C366.76,231.072866 340.39,251.675866 340.39,286.265866" id="Fill-89" fill="#BEBEBC"></path>
                <path d="M234,281.390866 C234.15,284.241866 231.99,286.660866 229.24,286.808866 C226.47,286.944866 224.13,284.742866 224,281.892866 C223.87,279.047866 225.98,276.634866 228.75,276.492866 C231.51,276.356866 233.87,278.534866 234,281.390866" id="Fill-90" fill="#363533"></path>
                <path d="M255.66,277.519866 C255.77,280.364866 253.65,282.783866 250.91,282.937866 C248.13,283.067866 245.77,280.871866 245.64,278.032866 C245.49,275.188866 247.63,272.762866 250.4,272.620866 C253.15,272.485866 255.49,274.674866 255.66,277.519866" id="Fill-91" fill="#363533"></path>
                <path d="M276.31,278.003866 C276.43,280.859866 274.3,283.273866 271.54,283.415866 C268.77,283.551866 266.43,281.355866 266.29,278.516866 C266.16,275.666866 268.27,273.252866 271.04,273.098866 C273.82,272.969866 276.16,275.152866 276.31,278.003866" id="Fill-92" fill="#363533"></path>
                <path d="M238.79,307.476866 C238.93,310.321866 236.79,312.752866 234.02,312.888866 C231.25,313.036866 228.92,310.828866 228.78,307.984866 C228.65,305.139866 230.77,302.720866 233.53,302.584866 C236.31,302.436866 238.67,304.632866 238.79,307.476866" id="Fill-93" fill="#363533"></path>
                <path d="M258.01,299.957866 C258.15,302.814866 256.04,305.222866 253.28,305.369866 C250.52,305.511866 248.17,303.309866 248.03,300.465866 C247.89,297.615866 250.02,295.195866 252.8,295.047866 C255.53,294.917866 257.88,297.113866 258.01,299.957866" id="Fill-94" fill="#363533"></path>
                <path d="M279.05,296.865866 C279.19,299.710866 277.05,302.129866 274.29,302.265866 C271.54,302.412866 269.17,300.217866 269.04,297.367866 C268.91,294.516866 271.03,292.096866 273.79,291.967866 C276.56,291.825866 278.91,294.014866 279.05,296.865866" id="Fill-95" fill="#363533"></path>
                <path d="M442.92,281.390866 C442.77,284.241866 444.92,286.660866 447.69,286.808866 C450.44,286.944866 452.8,284.742866 452.93,281.892866 C453.07,279.047866 450.93,276.634866 448.17,276.492866 C445.41,276.356866 443.05,278.534866 442.92,281.390866" id="Fill-96" fill="#363533"></path>
                <path d="M421.26,277.519866 C421.15,280.364866 423.27,282.783866 426.03,282.937866 C428.8,283.067866 431.16,280.871866 431.28,278.032866 C431.42,275.188866 429.29,272.762866 426.52,272.620866 C423.76,272.485866 421.42,274.674866 421.26,277.519866" id="Fill-97" fill="#363533"></path>
                <path d="M400.61,278.003866 C400.49,280.859866 402.61,283.273866 405.38,283.415866 C408.15,283.551866 410.5,281.355866 410.63,278.516866 C410.76,275.666866 408.64,273.252866 405.88,273.098866 C403.09,272.969866 400.75,275.152866 400.61,278.003866" id="Fill-98" fill="#363533"></path>
                <path d="M438.14,307.476866 C437.99,310.321866 440.13,312.752866 442.9,312.888866 C445.65,313.036866 447.99,310.828866 448.15,307.984866 C448.29,305.139866 446.14,302.720866 443.38,302.584866 C440.61,302.436866 438.27,304.632866 438.14,307.476866" id="Fill-99" fill="#363533"></path>
                <path d="M418.91,299.957866 C418.77,302.814866 420.88,305.222866 423.65,305.369866 C426.42,305.511866 428.75,303.309866 428.89,300.465866 C429.02,297.615866 426.9,295.195866 424.14,295.047866 C421.39,294.917866 419.03,297.113866 418.91,299.957866" id="Fill-100" fill="#363533"></path>
                <path d="M397.86,296.865866 C397.73,299.710866 399.87,302.129866 402.62,302.265866 C405.38,302.412866 407.75,300.217866 407.87,297.367866 C408.01,294.516866 405.89,292.096866 403.11,291.967866 C400.35,291.825866 398,294.014866 397.86,296.865866" id="Fill-101" fill="#363533"></path>
                <path d="M280.06,152.023866 C295.29,171.381866 301.67,231.018866 303.66,250.282866 C303.82,251.869866 333.14,266.972866 338.45,262.776866 C343.77,266.972866 373.09,251.869866 373.25,250.282866 C375.25,231.018866 381.63,171.381866 396.85,152.023866 C396.85,152.023866 362.88,126.988866 338.45,126.988866 C314.04,126.988866 280.06,152.023866 280.06,152.023866 Z" id="Fill-102" fill="#F3974B"></path>
                <path d="M372.94,248.877866 C368.84,241.158866 353.32,238.048866 338.45,238.048866 C323.57,238.048866 308.08,241.158866 303.98,248.877866 C302.51,251.669866 306.04,257.352866 312.86,261.366866 C330.83,271.959866 334.12,280.245866 338.45,280.245866 C342.8,280.245866 346.08,271.959866 364.03,261.366866 C370.87,257.352866 374.41,251.669866 372.94,248.877866" id="Fill-103" fill="#010604"></path>
                <path d="M79.86,275.211866 C35.95,275.211866 0,304.236866 0,340.050866 C0,355.688866 5.83,371.277866 18.81,374.999866 C25.35,376.868866 32.12,375.594866 37.8,374.321866 C42.3,373.311866 46.11,372.302866 48.58,372.859866 C58.4,375.095866 61.24,385.857866 79.86,385.857866 C98.48,385.857866 101.31,375.095866 111.14,372.859866 C113.61,372.302866 117.42,373.311866 121.92,374.321866 C127.6,375.594866 134.37,376.868866 140.92,374.999866 C153.88,371.277866 159.72,355.688866 159.72,340.050866 C159.72,304.236866 123.78,275.211866 79.86,275.211866" id="Fill-204" fill="#F3974B"></path>
                <path d="M109.12,367.767866 C109.09,367.767866 109.07,367.766866 109.04,367.764866 C107.31,367.662866 106.29,366.506866 106.38,363.859866 C106.79,351.444866 106.73,337.805866 105.82,325.330866 C105.65,323.015866 106.09,318.691866 109.39,318.526866 C109.45,318.523866 109.5,318.521866 109.56,318.521866 C112.41,318.521866 113.67,322.268866 113.88,324.537866 C115.27,339.345866 113.24,354.602866 111.58,364.019866 C111.18,366.328866 110.24,367.767866 109.12,367.767866" id="Fill-205" fill="#242322"></path>
                <path d="M46.91,367.736866 C46.84,367.736866 46.77,367.732866 46.7,367.724866 C44.67,367.489866 44.47,365.772866 44.9,363.156866 C46.92,350.897866 48.28,337.844866 48.75,325.421866 C48.83,323.145866 50.3,318.523866 53.42,318.523866 C53.46,318.523866 53.5,318.524866 53.54,318.526866 C57.06,318.662866 57.77,322.720866 57.74,325.026866 C57.55,339.796866 53.9,354.983866 50.78,364.179866 C50.03,366.365866 48.25,367.736866 46.91,367.736866" id="Fill-206" fill="#242322"></path>
                <path d="M536.92,278.551866 C580.84,278.551866 616.780013,307.576866 616.780013,343.390866 C616.79,359.029866 610.95,374.617866 597.98,378.341866 C591.44,380.210866 584.66,378.937866 578.99,377.661866 C574.49,376.652866 570.67,375.642866 568.2,376.199866 C558.38,378.436866 555.55,389.198866 536.92,389.198866 C518.3,389.198866 515.48,378.436866 505.65,376.199866 C503.18,375.642866 499.36,376.652866 494.86,377.661866 C489.18,378.935866 482.41,380.210866 475.87,378.341866 C462.91,374.617866 457.07,359.029866 457.07,343.390866 C457.07,307.576866 493.01,278.551866 536.92,278.551866" id="Fill-207" fill="#F3974B"></path>
                <path d="M507.67,371.107866 C506.55,371.107866 505.61,369.667866 505.2,367.361866 C503.54,357.942866 501.52,342.685866 502.91,327.877866 C503.12,325.609866 504.38,321.862866 507.23,321.862866 C507.29,321.862866 507.34,321.863866 507.4,321.866866 C510.7,322.032866 511.14,326.357866 510.97,328.671866 C510.06,341.148866 510,354.784866 510.41,367.200866 C510.5,369.849866 509.47,371.005866 507.75,371.105866 C507.72,371.106866 507.69,371.107866 507.67,371.107866" id="Fill-208" fill="#242322"></path>
                <path d="M569.88,371.078866 C568.54,371.078866 566.76,369.706866 566.01,367.519866 C562.89,358.326866 559.24,343.136866 559.04,328.366866 C559.01,326.060866 559.73,322.005866 563.25,321.866866 C563.29,321.864866 563.33,321.864866 563.37,321.864866 C566.49,321.864866 567.95,326.487866 568.04,328.761866 C568.5,341.184866 569.87,354.237866 571.89,366.498866 C572.32,369.113866 572.12,370.829866 570.09,371.066866 C570.02,371.074866 569.95,371.078866 569.88,371.078866" id="Fill-209" fill="#242322"></path>
            </g>
        </g>
    </g>
</svg>