<?xml version="1.0" encoding="UTF-8"?>
<svg width="507px" height="806px" viewBox="0 0 507 806" version="1.1" xmlns="http://www.w3.org/2000/svg" xmlns:xlink="http://www.w3.org/1999/xlink">
    <title>Group</title>
    <g id="Page-1" stroke="none" stroke-width="1" fill="none" fill-rule="evenodd">
        <g id="North-America" transform="translate(-4807.000000, -2168.000000)">
            <g id="Group" transform="translate(4807.439870, 2168.704002)">
                <path d="M327.615072,492.587085 L209.998383,496.603264 L106.849503,502.034669 C83.7660322,558.500242 39.4159343,653.970569 50.9959189,717.005465 C55.7292735,742.785513 158.199228,722.962798 209.998383,722.962798 C261.797538,722.962798 398.77795,739.228325 397.190603,713.037097 C394.321903,665.569679 352.12333,530.549544 327.615072,492.587085" id="Fill-5" fill="#D25A2E"></path>
                <path d="M114.757552,604.896679 C116.574395,620.798838 115.608599,633.956607 121.10694,675.285008 C123.698332,694.792166 131.10914,716.976778 133.413662,730.708287 C136.961288,751.946227 135.517375,762.130112 131.635068,771.711569 C125.190056,787.613727 107.251121,784.008728 103.88518,778.969379 C101.743217,800.025635 80.5339638,809.980023 69.5755308,796.15289 C60.3287554,811.347437 35.5623144,804.634679 30.9054585,782.000638 C22.5384176,790.845796 5.51746582,783.511487 2.67745308,757.473256 C-0.162559652,731.425462 9.59101944,652.775278 29.3276736,608.080936 C41.5578968,580.378859 110.253693,565.662429 114.757552,604.896679" id="Fill-263" fill="#E9E8E4"></path>
                <path d="M30.6664001,780.422853 C30.6472755,780.422853 30.6377131,780.422853 30.6185885,780.422853 C29.8153526,780.403729 29.3276736,779.007628 29.3276736,776.827416 C29.3276736,768.106569 30.1787212,753.887381 32.9135483,740.471429 C33.3056039,738.568524 34.0801528,737.248923 35.7344363,737.248923 C35.9065583,737.248923 36.0786803,737.258485 36.269927,737.287172 C38.1154571,737.574042 38.3640778,739.830752 37.9624598,741.924903 C35.8300597,753.246705 34.1088398,765.266557 32.8944236,776.626608 C32.6362406,779.017191 31.842567,780.422853 30.6664001,780.422853" id="Fill-264" fill="#979695"></path>
                <path d="M69.5085945,792.959071 C68.7436079,792.959071 68.1507433,791.31435 67.9594967,788.675146 C67.1945101,777.888835 66.4008365,760.408892 67.9499343,743.435752 C68.1794303,740.873047 68.8583559,738.721522 70.7516977,738.721522 C70.8186341,738.721522 70.8855704,738.721522 70.9525067,738.731084 C73.2283418,738.912768 73.6968961,741.66672 73.4865248,744.315486 C72.3581696,758.620736 71.7748673,774.245587 71.564496,788.474337 C71.5166843,791.515159 70.7612601,792.834761 69.5659685,792.959071 C69.5468439,792.959071 69.5277192,792.959071 69.5085945,792.959071" id="Fill-265" fill="#979695"></path>
                <path d="M103.818243,777.735838 C103.043694,777.735838 102.049212,776.559671 101.638032,774.656767 C99.9072494,766.50966 97.9182842,753.026771 97.9278122,739.82119 C97.9278122,737.765288 98.5207112,736.244878 100.557488,736.024944 C100.643549,736.024944 100.720048,736.015382 100.806109,736.015382 C102.479517,736.015382 103.101068,737.97566 103.129755,739.935938 C103.301877,751.037806 103.980803,762.675164 105.051784,773.585786 C105.28128,775.909433 105.147408,777.448968 103.971241,777.716713 C103.923429,777.726276 103.866055,777.735838 103.818243,777.735838" id="Fill-266" fill="#979695"></path>
                <path d="M315.709968,606.923894 C312.430088,618.848122 309.723948,637.322549 309.121521,658.799547 C307.88798,703.16877 298.822889,727.227598 303.527556,752.127912 C307.620235,773.786595 325.473109,770.277219 328.83905,764.855376 C330.981013,787.518104 352.199829,798.227917 363.158261,783.348927 C372.405037,799.700516 397.171478,792.471392 401.837896,768.125694 C410.204937,777.640215 429.15748,771.357762 431.997493,743.340128 C434.837505,715.312932 425.1413,654.840742 406.982431,602.821653 C396.310868,572.250876 326.811836,566.542164 315.709968,606.923894" id="Fill-267" fill="#E9E8E4"></path>
                <path d="M401.503215,766.174978 C401.48409,766.174978 401.464965,766.174978 401.445841,766.174978 C400.17405,766.06023 399.447313,764.463321 399.399501,761.833679 C399.170005,749.526957 398.462393,736.455249 397.257539,724.091153 C397.037605,721.796193 397.50616,719.40561 399.476,719.319549 C399.542936,719.319549 399.60031,719.319549 399.657684,719.319549 C401.694461,719.319549 402.46901,720.887772 402.717631,723.115795 C404.371914,737.803538 403.960734,753.122394 403.147936,762.464793 C402.947127,764.750191 402.325575,766.174978 401.503215,766.174978" id="Fill-268" fill="#979695"></path>
                <path d="M363.951935,779.304061 C363.913686,779.304061 363.875436,779.294498 363.846749,779.294498 C362.584522,779.045878 361.886471,777.554154 362.068156,774.293398 C362.928766,759.012791 363.492943,742.192648 363.387757,726.749482 C363.368633,723.890344 364.066683,720.992957 366.466829,720.992957 C366.476391,720.992957 366.485953,720.992957 366.495516,720.992957 C368.666165,721.021644 369.25903,723.460039 369.316404,726.319177 C369.660648,744.678855 367.49956,763.35409 365.864402,774.848014 C365.472346,777.601965 364.745609,779.304061 363.951935,779.304061" id="Fill-269" fill="#979695"></path>
                <path d="M329.661411,761.824117 C329.594475,761.824117 329.527538,761.814555 329.460602,761.79543 C328.217499,761.441624 328.150562,759.78734 328.494806,757.291571 C330.091716,745.625526 331.315694,733.156244 331.975495,721.232016 C332.090243,719.166552 332.807418,717.139337 334.499951,717.139337 C334.624261,717.139337 334.748572,717.1489 334.872882,717.168024 C337.024407,717.512268 337.588585,719.176114 337.502524,721.394575 C336.938346,735.585077 334.251331,749.976387 332.061556,758.630298 C331.554753,760.628825 330.474209,761.824117 329.661411,761.824117" id="Fill-270" fill="#979695"></path>
                <path d="M248.391148,608.931983 C245.4077,632.206701 227.468764,647.238687 208.028542,644.752481 C188.597883,642.266274 175.019371,623.198983 178.002818,599.924266 C180.192593,582.817254 197.117921,575.702878 216.54858,578.198647 C235.988802,580.684853 250.580922,591.834533 248.391148,608.931983" id="Fill-342" fill="#D46B78"></path>
                <path d="M141.407772,37.5089901 C128.795056,44.2227037 113.839568,55.133325 98.3007775,70.0065769 C75.016498,92.3116736 50.4891153,123.534601 31.727819,162.70574 C12.9665228,201.865404 0,248.994316 0,302.837897 C0,321.728285 1.59690952,341.440077 5.08716086,361.913031 C5.69915014,365.515161 9.11290282,367.9373 12.7179021,367.322442 C16.3229015,366.70854 18.7421716,363.290007 18.1301823,359.687876 C14.7642413,339.944528 13.2342681,320.983379 13.2342681,302.837897 C13.2342681,268.36282 18.7612963,236.826248 27.7690134,208.486363 C41.2901515,165.983708 62.6810892,130.665233 85.0473847,103.694674 C96.2257514,90.2108291 107.643176,78.8182663 118.391238,69.6785889 C129.129737,60.5389116 139.22756,53.6511635 147.613726,49.1941603 C150.845794,47.4786779 152.069773,43.4720606 150.348553,40.2457297 C148.636895,37.0193987 144.630278,35.7944639 141.407772,37.5099463" id="Fill-343" fill="#1D1815"></path>
                <path d="M416.544764,83.6185571 C423.965133,90.4365002 432.552108,100.38037 441.139083,112.931887 C454.038669,131.763945 466.995629,156.471099 476.691835,185.53294 C486.38804,214.598606 492.833052,248.018001 492.833052,284.380683 C492.833052,325.358146 484.66682,370.07735 463.639251,416.717627 C462.137965,420.049143 463.620126,423.966831 466.95738,425.469073 C470.285072,426.970359 474.205628,425.487242 475.706914,422.156681 C497.509032,373.792316 506.076882,327.116659 506.067328,284.380683 C506.067328,233.799769 494.114404,188.761184 478.135747,152.625129 C470.132075,134.553277 461.124357,118.700842 452.059266,105.4551 C442.984613,92.2064879 433.862148,81.572218 425.495107,73.8754966 C422.808091,71.4026774 418.61979,71.5795806 416.152708,74.2704209 C413.676064,76.9603051 413.848186,81.145738 416.544764,83.6185571" id="Fill-344" fill="#1D1815"></path>
                <path d="M130.162469,66.2906545 C126.10804,65.7742886 122.225733,63.8876404 119.481344,60.7569327 C113.97344,54.4706554 115.101796,45.564299 121.996237,40.8577189 C169.903523,8.10386161 229.687225,-5.64868491 290.312413,2.11688527 C350.937601,9.88341168 405.318585,38.2663268 443.414918,82.0369474 C448.894134,88.3299183 447.737092,97.2391435 440.833088,101.928511 C433.919522,106.617879 423.86951,105.318358 418.380731,99.0196498 C385.601056,61.3555347 338.831688,36.9400313 286.707414,30.2616983 C234.573577,23.5852778 183.166478,35.4205767 141.9337,63.5998142 C138.481698,65.9511917 134.236023,66.8165828 130.162469,66.2906545" id="Fill-345" fill="#2D2826"></path>
                <path d="M492.450558,71.6723352 C491.331766,46.6544049 470.724939,48.5993833 445.499506,67.9191197 C428.01,81.3283785 370.616881,134.119147 333.151662,237.015582 C330.120403,245.339592 325.750417,246.552096 317.383376,242.514879 C300.448485,234.332391 281.696751,228.529968 261.634978,225.961525 C241.582767,223.393083 221.970423,224.286205 203.524684,227.939972 C194.411781,229.739603 190.481662,227.464724 189.649739,218.644429 C179.303296,109.629058 137.066473,44.0859624 123.507086,26.7006857 C103.971241,1.65215591 84.5118941,-5.42205763 77.1297735,18.5086355 C64.029378,60.9730415 31.1349544,131.53923 35.4188794,220.925045 C37.1496615,257.157679 43.8528566,278.452993 63.0062085,287.687338 C70.7803847,291.441509 78.611935,295.853569 82.637677,301.800384 C87.1415355,308.464373 84.4927695,326.709304 81.5571334,344.203591 C73.1996548,394.006131 85.745435,440.937102 92.0565744,459.978575 C98.9318914,480.718318 116.000655,494.5378 122.70385,524.525275 C138.672945,595.869837 156.736191,594.808418 213.488634,602.075791 C270.250639,609.343164 287.462838,614.918004 320.892752,549.894143 C334.930256,522.564997 354.925093,513.490343 366.80151,495.14979 C377.712131,478.309566 401.665774,436.053619 406.131383,385.752882 C407.699606,368.08456 409.717258,349.756437 415.760652,344.442649 C421.153808,339.700689 429.845968,337.40286 438.318194,335.731364 C459.173642,331.617649 471.030934,312.700487 481.836369,278.0705 C508.496152,192.645403 494.439524,116.067376 492.450558,71.6723352" id="Fill-346" fill="#9B7550"></path>
                <path d="M183.491597,371.477276 C181.215762,389.22114 164.988484,401.769789 147.240795,399.498735 C129.483544,397.225768 116.937763,380.991796 119.204036,363.248889 C121.479871,345.491637 137.716712,332.942988 155.464401,335.215955 C173.221652,337.487009 185.767432,353.72098 183.491597,371.477276" id="Fill-347" fill="#1D1815"></path>
                <path d="M300.611045,386.471013 C298.33521,404.212008 310.890552,420.447892 328.638241,422.718946 C346.38593,424.991913 362.622771,412.440395 364.898606,394.6994 C367.164879,376.943105 354.619099,360.707221 336.861847,358.436167 C319.114158,356.1632 302.88688,368.713762 300.611045,386.471013" id="Fill-348" fill="#1D1815"></path>
                <path d="M359.591511,486.400256 C353.739364,488.456157 340.141727,493.199074 325.453985,492.032469 C293.62098,489.508014 269.380467,468.155325 262.658148,441.930629 C260.487498,433.481352 259.139209,425.509235 259.177459,418.173014 C259.320893,380.484037 277.278954,350.229773 294.596338,308.533222 C312.200592,266.143403 301.710713,237.800649 260.793493,232.562403 C219.876272,227.325114 202.587575,252.111636 208.946526,297.570008 C215.200292,342.284431 224.953871,376.083451 215.611472,412.596261 C213.794629,419.702987 210.476499,427.081282 206.249948,434.711068 C193.139991,458.396965 164.299996,472.95466 132.859047,467.37982 C118.352989,464.806596 106.390511,456.793362 101.245976,453.328929 C93.7777943,448.326873 89.111376,452.241692 91.9227018,461.82793 C98.4537748,484.12442 113.246703,495.809591 119.95946,525.787503 C126.949526,557.046768 134.51333,576.974668 145.576949,590.142 C162.722211,610.548018 181.837314,604.791494 212.637587,608.731174 C243.447422,612.680418 260.487498,623.065111 282.22268,607.631506 C296.241059,597.677118 308.58603,580.292798 323.225961,551.806609 C337.273028,524.487026 354.523475,516.904096 366.466829,496.976195 C371.601801,488.408345 368.0733,483.435933 359.591511,486.400256" id="Fill-349" fill="#FFFFFE"></path>
                <path d="M159.815262,203.321747 C162.148471,193.11587 146.389747,93.2392198 117.062074,41.4917016 C101.838841,14.603379 89.7520523,27.4637599 86.5486709,33.8705226 C71.2871884,64.5330978 57.326183,118.594701 53.5777487,155.096992 C50.307431,186.991196 52.4015818,232.516504 61.6483573,252.467355 C68.169868,266.52494 81.1172661,276.58547 98.8649551,274.607979 C135.890306,270.467489 153.551934,230.627944 159.815262,203.321747" id="Fill-350" fill="#E7DED0"></path>
                <path d="M365.893089,229.700397 C366.189521,219.235381 406.599938,126.549605 448.0144,83.8566592 C469.520085,61.6710917 477.982749,77.1620703 479.464911,84.167435 C486.521912,117.686279 486.416727,173.521694 480.841887,209.790665 C475.97466,241.481191 462.472646,285.008928 448.502079,301.987806 C438.652876,313.950284 423.58264,320.424939 406.915495,314.042082 C372.118167,300.706453 365.061166,257.702732 365.893089,229.700397" id="Fill-351" fill="#E7DED0"></path>
                <path d="M222.582412,521.704387 C196.419871,518.357571 179.150298,525.644068 176.472845,546.576014 C173.259902,571.686699 188.119766,588.975396 213.55557,592.226589 C238.991375,595.487344 257.714422,582.501697 260.936928,557.391012 C263.614381,536.459066 248.725829,525.051203 222.582412,521.704387" id="Fill-352" fill="#342F2D"></path>
                <path d="M166.929637,358.761286 C166.575831,361.5401 164.032251,363.507071 161.249612,363.151353 C158.476536,362.794678 156.506695,360.251097 156.860501,357.472283 C157.22387,354.692513 159.757888,352.727454 162.540527,353.083173 C165.323166,353.439848 167.293006,355.98056 166.929637,358.761286" id="Fill-353" fill="#FFFFFE"></path>
                <path d="M352.171142,382.473958 C351.817335,385.252772 349.273755,387.219743 346.500678,386.863068 C343.71804,386.50735 341.748199,383.965682 342.111568,381.184955 C342.465374,378.404229 345.008955,376.43917 347.782031,376.795845 C350.56467,377.151564 352.524948,379.693232 352.171142,382.473958" id="Fill-354" fill="#FFFFFE"></path>
                <path d="M380.064465,434.460534 C362.775768,447.604917 313.931374,438.671786 297.675409,426.593604 C282.901605,415.623696 274.591938,395.342945 272.316103,373.107653 C271.139936,361.545837 272.602973,349.97924 280.960452,343.730256 C290.551471,336.560419 313.042077,331.249499 347.590784,335.67399 C387.197965,340.742983 402.688944,348.025655 403.415681,370.140462 C404.037233,388.253432 395.192075,422.963742 380.064465,434.460534" id="Path" fill="#1D1815"></path>
                <path d="M214.253621,365.67294 C206.441195,386.620185 193.30255,404.154634 176.243349,411.046207 C157.472491,418.64348 107.939609,414.983976 94.5236562,397.907562 C82.781112,382.974068 82.9819209,347.156439 88.1168935,329.778812 C94.3993459,308.561909 111.238613,305.417814 150.836232,310.486807 C185.384939,314.910342 205.810081,325.710996 213.287825,335.068695 C219.818898,343.220583 218.30805,354.782399 214.253621,365.67294" id="Path" fill="#1D1815"></path>
                <path d="M428.956671,364.23094 C429.243541,362.000048 430.630079,351.207043 430.821326,349.718188 C431.117758,347.362986 430.544018,345.565267 428.210809,344.760119 C410.558743,338.636401 382.923603,332.146446 346.577177,328.34255 C326.955271,326.28378 306.57794,326.952187 288.581631,327.622507 C272.698597,328.214415 258.670655,328.804411 248.630206,327.521146 C227.239268,324.782494 190.395601,309.203542 153.666682,303.647827 C117.530628,298.172435 89.1591877,297.494466 70.5222018,298.972802 C68.083807,299.166918 67.0510751,300.75809 66.7450804,303.113292 C66.5538338,304.603104 65.1768579,315.397065 64.889988,317.626044 C64.603118,319.860761 63.9337547,321.789484 66.1330912,322.698862 C71.5453713,324.946966 74.5670684,330.259798 74.844376,336.372997 C75.7432353,355.988209 76.8811528,377.600037 80.9068948,390.400175 C84.2441488,400.969421 91.7697044,409.552571 107.203309,415.138886 C124.903186,421.554254 163.448948,427.259142 185.117194,416.087469 C208.621407,403.975819 220.97594,376.041377 227.669573,361.780114 C231.542318,353.535471 236.180049,352.410941 245.302514,353.577545 C254.424979,354.746063 258.632406,357.003729 260.305814,365.957897 C263.212763,381.448876 268.118239,411.592216 287.826207,429.233764 C305.985076,445.505985 344.693398,449.688549 363.473818,447.946292 C379.806282,446.423969 389.234742,440.012425 395.134701,430.624127 C402.268201,419.252601 408.799274,398.623781 414.613172,379.865354 C416.430016,374.022768 420.685253,369.641308 426.489589,368.829466 C428.832361,368.499565 428.669801,366.463745 428.956671,364.23094" id="Path" fill="#1D1815"></path>
                <path d="M425.112613,355.509137 C424.835306,357.722817 421.918794,359.165773 418.58154,358.739293 C415.263411,358.313769 412.805892,356.183281 413.083199,353.969601 C413.370069,351.750184 416.286581,350.297665 419.614272,350.723189 C422.941964,351.148713 425.399483,353.289719 425.112613,355.509137" id="Fill-356" fill="#1D1815"></path>
                <path d="M70.8186341,310.15595 C70.5317641,312.36963 72.9892835,314.500118 76.3265376,314.925642 C79.6351046,315.350209 82.551616,313.908209 82.8289236,311.694529 C83.1157936,309.475112 80.6582741,307.334106 77.3497071,306.910494 C74.0124531,306.483058 71.0959417,307.936533 70.8186341,310.15595" id="Fill-357" fill="#1D1815"></path>
                <path d="M150.281617,414.81281 C128.928928,414.81281 103.550498,409.397661 94.5236562,397.907562 C87.5049042,388.982081 84.7509524,372.597025 84.7699782,357.14812 C84.7796394,346.747171 86.0514296,336.77079 88.1168935,329.778812 C92.7259377,314.208467 103.02457,308.370663 123.832205,308.370663 C131.376885,308.370663 140.298542,309.137562 150.836232,310.486807 C185.384939,314.910342 205.810081,325.710996 213.287825,335.068695 C214.119748,336.10812 214.817798,337.203007 215.401101,338.345706 C216.185212,343.292301 216.892824,348.136578 217.504814,352.903401 C217.017135,357.101265 215.821843,361.437783 214.253621,365.67294 C206.441195,386.620185 193.30255,404.154634 176.243349,411.046207 C170.104332,413.532414 160.66631,414.81281 150.281617,414.81281" id="Path" fill="#B49779"></path>
                <path d="M151.314349,334.950122 C135.24963,334.950122 121.298187,346.890606 119.204036,363.248889 C116.937763,380.991796 129.483544,397.225768 147.240795,399.498735 C148.636895,399.67755 150.023434,399.764567 151.390847,399.764567 C167.455566,399.764567 181.397446,387.825039 183.491597,371.477276 C185.767432,353.72098 173.221652,337.487009 155.464401,335.215955 C154.0683,335.037139 152.681762,334.950122 151.314349,334.950122" id="Path" fill="#B49779"></path>
                <path d="M151.390847,399.764567 C150.023434,399.764567 148.636895,399.67755 147.240795,399.498735 C129.483544,397.225768 116.937763,380.991796 119.204036,363.248889 C121.298187,346.890606 135.24963,334.950122 151.314349,334.950122 C152.681762,334.950122 154.0683,335.037139 155.464401,335.215955 C173.221652,337.487009 185.767432,353.72098 183.491597,371.477276 C181.397446,387.825039 167.455566,399.764567 151.390847,399.764567" id="Path" fill="#605A58"></path>
                <path d="M161.890288,353.042055 C159.375395,353.042055 157.195183,354.911491 156.860501,357.472283 C156.506695,360.251097 158.476536,362.794678 161.249612,363.151353 C161.469546,363.179083 161.689479,363.192471 161.909413,363.192471 C164.424306,363.192471 166.604518,361.321122 166.929637,358.761286 C167.293006,355.98056 165.323166,353.439848 162.540527,353.083173 C162.320593,353.055442 162.110222,353.042055 161.890288,353.042055" id="Path" fill="#605A58"></path>
                <path d="M217.504814,352.903401 C216.892824,348.136578 216.185212,343.292301 215.401101,338.345706 C217.055384,341.575862 217.743872,345.182774 217.743872,348.973282 C217.73431,350.265154 217.657811,351.577106 217.504814,352.903401" id="Fill-360" fill="#FFFFFE"></path>
                <path d="M161.909413,363.192471 C161.689479,363.192471 161.469546,363.179083 161.249612,363.151353 C158.476536,362.794678 156.506695,360.251097 156.860501,357.472283 C157.195183,354.911491 159.375395,353.042055 161.890288,353.042055 C162.110222,353.042055 162.320593,353.055442 162.540527,353.083173 C165.323166,353.439848 167.293006,355.98056 166.929637,358.761286 C166.604518,361.321122 164.424306,363.192471 161.909413,363.192471" id="Fill-361" fill="#FFFFFE"></path>
                <path d="M150.281617,414.81281 C128.928928,414.81281 103.550498,409.397661 94.5236562,397.907562 C87.5049042,388.982081 84.7509524,372.597025 84.7699782,357.14812 C84.7509524,372.597025 87.5049042,388.982081 94.5236562,397.907562 C103.550498,409.397661 128.928928,414.81281 150.281617,414.81281 C160.66631,414.81281 170.104332,413.532414 176.243349,411.046207 C193.30255,404.154634 206.441195,386.620185 214.253621,365.67294 C215.821843,361.437783 217.017135,357.101265 217.504814,352.903401 C217.657811,351.577106 217.73431,350.265154 217.743872,348.973282 C217.73431,354.351138 216.328647,360.100012 214.253621,365.67294 C206.441195,386.620185 193.30255,404.154634 176.243349,411.046207 C170.104332,413.532414 160.66631,414.81281 150.281617,414.81281" id="Fill-362" fill="#605A58"></path>
                <path d="M353.031751,440.960052 C332.549235,440.960052 308.232224,434.440454 297.675409,426.593604 C282.901605,415.623696 274.591938,395.342945 272.316103,373.107653 C272.09617,370.893973 271.962297,368.68125 271.962297,366.504863 C271.962297,364.23859 272.09617,362.011523 272.402164,359.867648 C274.180758,355.438375 276.0741,350.962248 278.053503,346.40484 C278.914113,345.432351 279.879908,344.537316 280.960452,343.730256 C288.122639,338.375349 302.485262,334.057956 323.684953,334.057956 C330.866265,334.057956 338.84125,334.553285 347.590784,335.67399 C387.197965,340.742983 402.688944,348.025655 403.415681,370.140462 C403.434806,370.741932 403.444368,371.361571 403.444368,371.998423 C403.444368,390.533092 394.694834,423.346235 380.064465,434.460534 C374.011509,439.064798 364.076245,440.960052 353.031751,440.960052" id="Path" fill="#B49779"></path>
                <path d="M332.711795,358.170334 C316.647076,358.170334 302.705196,370.110818 300.611045,386.471013 C298.33521,404.212008 310.890552,420.447892 328.638241,422.718946 C330.034342,422.897762 331.42088,422.984779 332.788294,422.984779 C348.853012,422.984779 362.804455,411.045251 364.898606,394.6994 C367.164879,376.943105 354.619099,360.707221 336.861847,358.436167 C335.465747,358.257351 334.079209,358.170334 332.711795,358.170334" id="Path" fill="#B49779"></path>
                <path d="M332.788294,422.984779 C331.42088,422.984779 330.034342,422.897762 328.638241,422.718946 C310.890552,420.447892 298.33521,404.212008 300.611045,386.471013 C302.705196,370.110818 316.647076,358.170334 332.711795,358.170334 C334.079209,358.170334 335.465747,358.257351 336.861847,358.436167 C354.619099,360.707221 367.164879,376.943105 364.898606,394.6994 C362.804455,411.045251 348.853012,422.984779 332.788294,422.984779" id="Path" fill="#605A58"></path>
                <path d="M347.131792,376.753771 C344.616899,376.753771 342.436687,378.623207 342.111568,381.184955 C341.748199,383.965682 343.71804,386.50735 346.500678,386.863068 C346.71105,386.890799 346.930983,386.905143 347.150917,386.905143 C349.66581,386.905143 351.846022,385.033794 352.171142,382.473958 C352.524948,379.693232 350.56467,377.151564 347.782031,376.795845 C347.562097,376.767158 347.351726,376.753771 347.131792,376.753771" id="Path" fill="#605A58"></path>
                <path d="M272.402164,359.867648 C273.138464,354.704944 274.869246,350.021314 278.053503,346.40484 C276.0741,350.962248 274.180758,355.438375 272.402164,359.867648" id="Fill-365" fill="#FFFFFE"></path>
                <path d="M347.150917,386.905143 C346.930983,386.905143 346.71105,386.890799 346.500678,386.863068 C343.71804,386.50735 341.748199,383.965682 342.111568,381.184955 C342.436687,378.623207 344.616899,376.753771 347.131792,376.753771 C347.351726,376.753771 347.562097,376.767158 347.782031,376.795845 C350.56467,377.151564 352.524948,379.693232 352.171142,382.473958 C351.846022,385.033794 349.66581,386.905143 347.150917,386.905143" id="Fill-366" fill="#FFFFFE"></path>
                <path d="M27.6447031,247.162173 C25.3497433,247.012044 13.5498251,245.344373 12.5649048,246.366587 C11.5799846,247.383063 8.45310188,343.226321 12.4692815,343.166106 C16.4950235,343.116354 25.6174886,340.442726 27.5012681,339.948353 C29.3850476,339.449199 27.6447031,247.162173 27.6447031,247.162173" id="Fill-367" fill="#1D1815"></path>
                <path d="M25.9904196,245.172251 C32.9804846,233.145706 47.0849249,213.602211 55.9300825,213.873781 C64.7656776,214.129095 64.3066857,379.545972 53.472563,381.868662 C42.6193157,384.199959 28.6009363,359.305383 23.8771441,345.783288 C18.063246,329.13718 16.4663365,261.55922 25.9904196,245.172251" id="Fill-368" fill="#3A82FF"></path>
                <path d="M52.5258921,381.090288 C51.1011046,372.759584 51.2732266,340.541218 51.9808392,297.174128 C52.6788894,253.815644 53.558624,221.606839 55.2607192,213.324903 C57.5748036,201.994495 85.2864431,202.302402 88.6141347,216.218465 C91.9418264,230.145046 92.4868794,283.831805 92.2669457,297.342425 C92.0470121,310.845394 89.7616146,364.493904 85.974931,378.293306 C82.1978097,392.095577 54.4766079,392.498151 52.5258921,381.090288" id="Fill-369" fill="#2D2826"></path>
                <path d="M482.78304,305.422596 C485.049313,305.857682 496.877918,307.214577 497.575969,308.451942 C498.274019,309.683571 477.160389,403.224219 473.287644,402.155151 C469.405337,401.093732 461.248668,396.208336 459.556135,395.254971 C457.85404,394.297782 482.78304,305.422596 482.78304,305.422596" id="Fill-370" fill="#1D1815"></path>
                <path d="M484.886753,303.914616 C481.147881,290.513963 472.427034,268.049175 463.792248,266.082204 C455.176587,264.10567 413.953371,424.303425 423.859948,429.282531 C433.776087,434.2712 453.617926,413.711229 461.583349,401.813775 C471.403865,387.169063 489.973914,322.17389 484.886753,303.914616" id="Fill-371" fill="#3A82FF"></path>
                <path d="M424.969178,428.765209 C428.440305,421.061794 436.396166,389.841735 446.637424,347.694799 C456.878682,305.557424 464.136492,274.163331 464.585922,265.721704 C465.188349,254.173275 438.29907,247.491117 431.57675,260.121046 C424.844868,272.758624 410.788239,324.576904 407.603983,337.706942 C404.410164,350.831244 393.117049,403.326536 393.298733,417.632742 C393.480418,431.942772 420.207137,439.314374 424.969178,428.765209" id="Fill-372" fill="#2D2826"></path>
            </g>
        </g>
    </g>
</svg>