<?xml version="1.0" encoding="UTF-8"?>
<svg width="572px" height="645px" viewBox="0 0 572 645" version="1.1" xmlns="http://www.w3.org/2000/svg" xmlns:xlink="http://www.w3.org/1999/xlink">
    <title>Group 7</title>
    <g id="Page-1" stroke="none" stroke-width="1" fill="none" fill-rule="evenodd">
        <g id="iStock-1275739749" transform="translate(-4728.000000, -411.000000)">
            <g id="Group-7" transform="translate(4728.459987, 411.489863)">
                <path d="M470.920013,118.312137 C497.040013,98.0701372 523.420013,81.3491372 545.110013,55.3191372 C546.470013,53.6771372 547.740013,54.4621372 546.630013,56.2121372 C542.310013,62.8641372 531.891013,75.7031372 532.110013,76.3471372 C532.520013,77.5241372 538.680013,69.6391372 543.130013,64.5101372 C545.210013,62.1141372 546.060013,63.1041372 544.721013,65.3711372 C541.120013,71.5121372 526.050013,89.4511372 526.530013,90.4581372 C527.110013,91.6741372 538.641013,76.4651372 539.970013,77.2771372 C540.561013,77.6321372 538.900013,81.0841372 532.200013,90.5941372 C525.351013,100.309137 515.660013,113.963137 512.410013,124.235137 C506.400013,143.131137 513.570013,109.043137 506.090013,123.105137 L470.920013,118.312137" id="Fill-104" fill="#272422"></path>
                <path d="M179.650013,80.9301372 C159.480013,54.7471372 138.190013,31.9081372 123.780013,1.24513722 C122.870013,-0.687862779 121.440013,-0.248862779 122.080013,1.72613722 C124.570013,9.25213722 131.411013,24.3061372 131.040013,24.8731372 C130.350013,25.9101372 126.380013,16.7261372 123.360013,10.6361372 C121.960013,7.79413722 120.890013,8.53813722 121.610013,11.0701372 C123.550013,17.9221372 133.590013,39.0841372 132.870013,39.9361372 C132.000013,40.9661372 124.690013,23.3381372 123.190013,23.7881372 C122.550013,23.9851372 123.270013,27.7431372 127.360013,38.6381372 C131.530013,49.7661372 137.450013,65.4241372 138.011013,76.1861372 C139.050013,95.9871372 140.720013,61.1921372 144.410013,76.6871372 L179.650013,80.9301372" id="Fill-105" fill="#272422"></path>
                <path d="M479.110013,401.302137 C478.160013,398.083137 482.601013,398.661137 487.370013,399.239137 C492.070013,399.807137 497.090013,400.378137 497.620013,397.324137 C500.100013,382.949137 490.101013,347.648137 482.250013,321.455137 C477.230013,304.718137 472.790013,291.999137 468.910013,277.838137 C467.840013,273.912137 472.400013,264.369137 475.721013,256.947137 C492.100013,220.345137 538.620013,120.099137 510.710013,98.4491372 C505.560013,94.4511372 484.390013,112.421137 459.660013,130.518137 C434.951013,148.609137 407.170013,164.554137 393.600013,177.031137 C388.520013,181.701137 375.480013,174.904137 370.330013,172.966137 C354.460013,166.995137 338.960013,160.857137 317.770013,158.138137 C296.590013,155.420137 280.040013,157.445137 263.180013,159.213137 C257.710013,159.789137 243.370013,163.072137 239.640013,157.271137 C229.661013,141.771137 206.800013,119.330137 187.460013,95.5841372 C168.110013,71.8311372 152.150013,49.0971372 146.160013,51.6631372 C113.700013,65.5651372 133.390013,174.308137 140.000013,213.862137 C141.330013,221.881137 143.340013,232.265137 141.310013,235.793137 C133.980013,248.515137 126.470013,259.703137 117.390013,274.630137 C103.181013,297.991137 84.5900128,329.624137 83.3600128,344.157137 C82.8300128,350.383137 103.690013,346.977137 100.270013,352.684137 C83.3100128,380.895137 58.3500128,437.876137 63.9000128,446.251137 C65.1600128,448.172137 69.1300128,447.468137 73.1200128,446.765137 C77.7300128,445.956137 82.3500128,445.145137 82.8900128,448.362137 C95.4710128,523.277137 140.880013,568.143137 175.620013,591.810137 C179.510013,594.460137 182.300013,591.760137 184.630013,589.050137 C186.940013,586.379137 188.800013,583.704137 190.851013,586.201137 C207.221013,606.130137 244.661013,642.150137 255.480013,643.540137 C266.290013,644.930137 311.620013,619.530137 332.490013,604.380137 C335.160013,602.440137 336.280013,605.680137 337.890013,608.930137 C339.450013,612.060137 341.471013,615.200137 345.810013,613.650137 C385.400013,599.520137 440.670013,567.580137 471.750013,498.268137 C473.090013,495.295137 477.351013,497.239137 481.590013,499.183137 C485.280013,500.873137 488.960013,502.562137 490.670013,501.023137 C498.160013,494.320137 488.391013,432.882137 479.110013,401.302137" id="Fill-106" fill="#9B8F80"></path>
                <path d="M209.620013,152.276137 C182.951013,106.460137 153.400013,61.6981372 147.700013,64.8521372 C135.971013,71.3551372 139.840013,152.704137 153.670013,201.123137 C156.480013,210.880137 165.710013,212.832137 183.530013,201.522137 C212.620013,183.031137 219.030013,168.431137 209.620013,152.276137" id="Fill-107" fill="#D2BB9C"></path>
                <path d="M423.900013,179.776137 C461.280013,142.182137 501.180013,106.331137 505.890013,110.822137 C515.601013,120.076137 491.310013,197.812137 465.701013,241.169137 C460.520013,249.900137 451.101013,249.459137 436.710013,234.016137 C413.230013,208.778137 410.720013,193.032137 423.900013,179.776137" id="Fill-108" fill="#D2BB9C"></path>
                <path d="M283.110013,428.224137 C246.170013,423.491137 206.850013,447.791137 208.170013,450.504137 C221.730013,478.429137 243.600013,500.750137 273.310013,504.564137 C303.030013,508.378137 329.830013,492.302137 350.000013,468.705137 C351.960013,466.414137 320.061013,432.974137 283.110013,428.224137" id="Fill-109" fill="#CCB290"></path>
                <path d="M310.490013,459.736137 C302.480013,458.707137 288.620013,417.161137 285.040013,413.219137 C280.580013,416.131137 256.690013,452.831137 248.681013,451.802137 C240.660013,450.774137 244.250013,454.356137 249.370013,455.387137 C260.310013,457.610137 274.060013,451.655137 280.010013,452.419137 C285.980013,453.184137 297.761013,462.417137 308.900013,463.027137 C314.120013,463.323137 318.500013,460.763137 310.490013,459.736137" id="Fill-110" fill="#010604"></path>
                <path d="M283.800013,413.153137 C283.101013,433.802137 276.190013,445.517137 268.160013,451.053137 C255.460013,459.804137 238.070013,464.753137 220.220013,461.081137 C195.141013,455.918137 174.630013,431.827137 178.550013,404.290137 C182.471013,376.754137 209.061013,357.761137 234.420013,361.363137 C268.090013,366.168137 284.630013,387.895137 283.800013,413.153137" id="Fill-111" fill="#DFCEB7"></path>
                <path d="M207.610013,400.755137 C207.130013,403.378137 204.640013,405.133137 202.030013,404.676137 C199.400013,404.225137 197.630013,401.721137 198.110013,399.103137 C198.570013,396.480137 201.060013,394.735137 203.681013,395.183137 C206.310013,395.651137 208.060013,398.142137 207.610013,400.755137" id="Fill-112" fill="#84633D"></path>
                <path d="M221.670013,408.581137 C221.201013,411.202137 218.710013,412.965137 216.090013,412.499137 C213.460013,412.049137 211.700013,409.548137 212.180013,406.930137 C212.620013,404.308137 215.120013,402.558137 217.750013,403.009137 C220.370013,403.464137 222.120013,405.963137 221.670013,408.581137" id="Fill-113" fill="#84633D"></path>
                <path d="M233.960013,416.627137 C233.530013,419.243137 231.020013,421.002137 228.400013,420.544137 C225.790013,420.087137 224.020013,417.603137 224.480013,414.972137 C224.951013,412.356137 227.420013,410.605137 230.040013,411.054137 C232.680013,411.508137 234.440013,414.009137 233.960013,416.627137" id="Fill-114" fill="#84633D"></path>
                <path d="M202.870013,424.247137 C202.400013,426.868137 199.920013,428.632137 197.290013,428.168137 C194.670013,427.707137 192.900013,425.220137 193.370013,422.603137 C193.820013,419.989137 196.330013,418.236137 198.940013,418.688137 C201.570013,419.141137 203.320013,421.635137 202.870013,424.247137" id="Fill-115" fill="#84633D"></path>
                <path d="M219.360013,429.806137 C218.920013,432.442137 216.431013,434.196137 213.800013,433.734137 C211.170013,433.278137 209.420013,430.784137 209.870013,428.161137 C210.330013,425.538137 212.830013,423.785137 215.460013,424.240137 C218.061013,424.702137 219.830013,427.193137 219.360013,429.806137" id="Fill-116" fill="#84633D"></path>
                <path d="M237.990013,435.656137 C237.530013,438.272137 235.040013,440.026137 232.400013,439.572137 C229.790013,439.110137 228.030013,436.621137 228.510013,434.000137 C228.950013,431.374137 231.450013,429.614137 234.070013,430.082137 C236.700013,430.536137 238.451013,433.029137 237.990013,435.656137" id="Fill-117" fill="#84633D"></path>
                <path d="M167.790013,290.801137 C158.530013,291.650137 134.160013,299.011137 124.790013,307.843137 C120.620013,311.767137 121.760013,317.480137 129.820013,316.009137 C137.890013,314.535137 155.920013,298.919137 166.990013,294.279137 C170.100013,292.976137 171.050013,290.502137 167.790013,290.801137" id="Fill-118" fill="#272422"></path>
                <path d="M165.320013,326.068137 C167.620013,331.227137 172.700013,342.993137 178.750013,349.559137 C183.440013,354.654137 188.210013,360.090137 179.970013,361.128137 C171.720013,362.174137 150.980013,364.738137 136.931013,362.189137 C128.720013,360.699137 132.000013,355.961137 143.160013,356.552137 C156.840013,357.273137 166.950013,359.511137 171.310013,355.719137 C174.440013,352.996137 164.110013,342.848137 160.120013,332.387137 C157.820013,326.346137 157.650013,320.318137 159.740013,319.401137 C161.050013,318.821137 163.740013,322.535137 165.320013,326.068137" id="Fill-119" fill="#272422"></path>
                <path d="M422.920013,359.129137 C419.391013,363.539137 411.500013,373.640137 403.990013,378.466137 C398.160013,382.211137 392.170013,386.265137 399.891013,389.353137 C407.610013,392.449137 427.030013,400.165137 441.260013,401.246137 C449.590013,401.880137 447.600013,396.466137 436.660013,394.219137 C423.240013,391.462137 412.890013,391.075137 409.630013,386.305137 C407.290013,382.879137 419.850013,375.669137 426.351013,366.554137 C430.110013,361.292137 431.790013,355.500137 430.000013,354.087137 C428.880013,353.194137 425.330013,356.108137 422.920013,359.129137" id="Fill-120" fill="#272422"></path>
                <path d="M429.400013,324.376137 C438.150013,327.536137 459.870013,340.813137 466.710013,351.725137 C469.750013,356.574137 467.201013,361.814137 459.770013,358.354137 C452.340013,354.890137 438.840013,335.228137 429.290013,327.943137 C426.620013,325.898137 426.320013,323.263137 429.400013,324.376137" id="Fill-121" fill="#272422"></path>
                <path d="M286.250013,413.467137 C281.710013,433.622137 285.440013,446.704137 291.810013,454.089137 C301.890013,465.764137 317.480013,474.945137 335.660013,475.897137 C361.240013,477.235137 387.170013,459.103137 390.330013,431.469137 C393.490013,403.836137 372.561013,378.744137 347.110013,375.826137 C313.320013,371.972137 291.820013,388.818137 286.250013,413.467137" id="Fill-122" fill="#DFCEB7"></path>
                <path d="M363.090013,420.710137 C362.900013,423.368137 364.860013,425.695137 367.511013,425.914137 C370.181013,426.143137 372.510013,424.164137 372.710013,421.511137 C372.950013,418.860137 370.960013,416.539137 368.320013,416.313137 C365.650013,416.101137 363.330013,418.070137 363.090013,420.710137" id="Fill-123" fill="#84633D"></path>
                <path d="M347.530013,424.733137 C347.320013,427.388137 349.280013,429.722137 351.930013,429.932137 C354.590013,430.160137 356.920013,428.186137 357.120013,425.532137 C357.360013,422.884137 355.380013,420.558137 352.730013,420.332137 C350.080013,420.110137 347.740013,422.085137 347.530013,424.733137" id="Fill-124" fill="#84633D"></path>
                <path d="M333.600013,429.413137 C333.360013,432.056137 335.340013,434.390137 337.990013,434.609137 C340.641013,434.827137 342.971013,432.869137 343.190013,430.206137 C343.400013,427.557137 341.450013,425.239137 338.780013,425.009137 C336.130013,424.786137 333.800013,426.760137 333.600013,429.413137" id="Fill-125" fill="#84633D"></path>
                <path d="M361.750013,444.638137 C361.550013,447.294137 363.510013,449.628137 366.170013,449.841137 C368.820013,450.058137 371.150013,448.096137 371.370013,445.448137 C371.580013,442.803137 369.610013,440.475137 366.960013,440.251137 C364.311013,440.027137 361.990013,441.997137 361.750013,444.638137" id="Fill-126" fill="#84633D"></path>
                <path d="M344.391013,445.852137 C344.150013,448.514137 346.130013,450.842137 348.800013,451.059137 C351.450013,451.281137 353.770013,449.310137 354.000013,446.657137 C354.210013,444.004137 352.230013,441.675137 349.580013,441.454137 C346.940013,441.242137 344.590013,443.204137 344.391013,445.852137" id="Fill-127" fill="#84633D"></path>
                <path d="M324.891013,446.807137 C324.680013,449.456137 326.650013,451.784137 329.310013,452.009137 C331.960013,452.222137 334.280013,450.257137 334.490013,447.602137 C334.730013,444.951137 332.740013,442.613137 330.100013,442.407137 C327.431013,442.180137 325.120013,444.152137 324.891013,446.807137" id="Fill-128" fill="#84633D"></path>
                <path d="M284.500013,262.852137 C288.040013,248.496137 286.350013,212.431137 281.190013,190.435137 C280.330013,186.779137 278.940013,185.874137 274.870013,189.352137 C264.490013,198.224137 238.380013,227.035137 238.43991,255.609137 C238.470013,267.302137 247.840013,275.160137 251.120013,260.144137 C254.670013,243.843137 261.260013,218.050137 274.870013,199.851137 C279.660013,193.463137 269.780013,248.133137 274.511013,260.769137 C279.240013,273.406137 282.940013,269.196137 284.500013,262.852137" id="Fill-129" fill="#272422"></path>
                <path d="M323.520013,267.860137 C323.730013,253.076137 334.470013,218.607137 345.020013,198.627137 C346.770013,195.305137 348.351013,194.782137 351.410013,199.176137 C359.220013,210.382137 377.201013,244.852137 369.920013,272.484137 C366.950013,283.791137 355.890013,289.027137 356.510013,273.670137 C357.190013,257.001137 357.330013,230.380137 348.750013,209.332137 C345.740013,201.943137 341.490013,257.337137 333.720013,268.369137 C325.950013,279.401137 323.430013,274.392137 323.520013,267.860137" id="Fill-130" fill="#272422"></path>
                <path d="M313.320013,213.765137 C307.570013,228.713137 302.951013,252.778137 305.340013,257.605137 C307.610013,262.169137 315.030013,261.700137 315.480013,256.296137 C315.940013,250.889137 315.790013,216.917137 315.620013,214.524137 C315.460013,212.130137 314.370013,211.068137 313.320013,213.765137" id="Fill-131" fill="#272422"></path>
                <path d="M304.090013,264.798137 L304.010013,265.386137 L304.080013,264.795137 C301.770013,264.186137 247.290013,288.419137 250.920013,296.887137 C258.330013,314.182137 261.120013,393.895137 261.120013,393.895137 C261.120013,393.895137 280.920013,393.593137 287.570013,393.517137 C293.980013,395.269137 313.050013,400.560137 313.050013,400.560137 C313.050013,400.560137 335.890013,324.136137 347.420013,309.272137 C353.070013,301.994137 306.480013,264.790137 304.090013,264.798137" id="Fill-132" fill="#9B8F80"></path>
                <path d="M288.100013,389.454137 C273.960013,387.638137 262.410013,388.832137 261.221013,393.478137 C260.040013,398.116137 270.440013,402.203137 275.820013,405.959137 C279.960013,408.868137 280.311013,413.637137 281.610013,416.850137 C282.280013,418.516137 283.661013,419.653137 284.230013,419.614137 C284.760013,419.795137 286.410013,419.046137 287.460013,417.601137 C289.520013,414.820137 291.050013,410.291137 295.810013,408.525137 C301.960013,406.250137 313.070123,404.922137 313.070123,400.133137 C313.110013,395.339137 302.250013,391.270137 288.100013,389.454137" id="Fill-133" fill="#010604"></path>
                <path d="M233.610013,277.384137 C211.470013,267.017137 191.380013,282.193137 187.040013,291.505137 C182.681013,300.805137 183.900013,325.944137 206.040013,336.299137 C228.170013,346.665137 248.280013,331.502137 252.630013,322.191137 C255.701013,315.619137 254.990013,287.391137 233.610013,277.384137" id="Fill-134" fill="#E4A15D"></path>
                <path d="M230.720013,285.543137 C218.960013,279.520137 204.530013,284.180137 198.530013,295.965137 C192.510013,307.738137 197.170013,322.140137 208.960013,328.162137 C220.730013,334.189137 235.120013,329.508137 241.150013,317.744137 C247.150013,305.982137 242.500013,291.558137 230.720013,285.543137" id="Fill-135" fill="#010604"></path>
                <path d="M233.340013,303.967137 C232.430013,305.706137 230.280013,306.414137 228.520013,305.515137 C226.760013,304.606137 226.060013,302.456137 226.970013,300.702137 C227.870013,298.936137 230.020013,298.231137 231.790013,299.145137 C233.530013,300.038137 234.230013,302.191137 233.340013,303.967137" id="Fill-136" fill="#FFFFFE"></path>
                <path d="M369.130013,294.776137 C393.170013,290.336137 408.780013,310.093137 410.630013,320.201137 C412.500013,330.301137 404.970013,354.316137 380.930013,358.744137 C356.900013,363.185137 341.270013,343.437137 339.410013,333.328137 C338.100013,326.194137 345.920013,299.062137 369.130013,294.776137" id="Fill-137" fill="#E4A15D"></path>
                <path d="M369.870013,303.401137 C382.770013,300.544137 395.550013,308.695137 398.380013,321.613137 C401.240013,334.526137 393.090013,347.284137 380.170013,350.136137 C367.250013,352.993137 354.510013,344.830137 351.650013,331.925137 C348.810013,319.029137 356.960013,306.248137 369.870013,303.401137" id="Fill-138" fill="#010604"></path>
                <path d="M362.681013,320.567137 C363.130013,322.480137 365.020013,323.706137 366.960013,323.282137 C368.890013,322.847137 370.110013,320.943137 369.670013,319.016137 C369.250013,317.080137 367.350013,315.855137 365.400013,316.293137 C363.490013,316.717137 362.270013,318.623137 362.681013,320.567137" id="Fill-139" fill="#FFFFFE"></path>
                <path d="M505.650013,93.2581372 L504.701013,93.2261372 C497.580013,99.2911372 417.530013,155.476137 390.640013,169.470137 C381.060013,174.461137 373.330013,173.132137 361.200013,168.637137 C345.410013,162.788137 326.190013,158.725137 317.840013,157.653137 C309.480013,156.580137 289.860013,155.658137 273.110013,157.331137 C260.240013,158.618137 252.420013,157.952137 244.410013,150.704137 C221.930013,130.373137 158.660013,55.7941372 153.300013,48.1261372 L152.370013,47.9171372 C152.370013,47.9171372 148.851013,47.5361372 153.190013,52.8111372 C161.050013,62.3541372 202.670013,118.274137 228.011013,148.712137 C232.320013,153.905137 236.930013,161.773137 237.570013,172.531137 C237.770013,175.955137 239.040013,179.301137 241.170013,178.947137 C243.911013,178.494137 246.920013,174.389137 254.220013,169.829137 C265.740013,162.627137 278.310013,164.074137 284.471013,170.444137 C290.360013,176.514137 291.870013,189.040137 297.530013,195.954137 C300.650013,199.774137 305.550013,190.583137 313.480013,191.601137 C321.410013,192.619137 323.830013,202.748137 327.820013,199.841137 C335.030013,194.579137 339.660013,182.842137 346.890013,178.454137 C354.470013,173.848137 366.990013,175.623137 376.320013,185.501137 C382.230013,191.755137 384.100013,196.485137 386.640013,197.616137 C388.620013,198.498137 390.690013,195.581137 391.750013,192.318137 C395.080013,182.071137 401.530013,175.621137 407.010013,171.685137 C439.220013,148.633137 493.610013,105.034137 503.630013,97.7871372 C509.150013,93.7771372 505.650013,93.2581372 505.650013,93.2581372" id="Fill-140" fill="#272422"></path>
                <path d="M79.8600128,397.748137 C35.9400128,397.748137 9.09494702e-13,426.772137 9.09494702e-13,462.587137 C-0.00998718029,478.225137 5.83001282,493.813137 18.8000128,497.536137 C25.3400128,499.405137 32.1200128,498.131137 37.8000128,496.858137 C42.2900128,495.848137 46.1100128,494.838137 48.5800128,495.393137 C58.4000128,497.630137 61.2400128,508.394137 79.8600128,508.394137 C98.4800128,508.394137 101.300013,497.630137 111.140013,495.393137 C113.601013,494.838137 117.420013,495.848137 121.910013,496.858137 C127.590013,498.131137 134.370013,499.405137 140.910013,497.536137 C153.870013,493.813137 159.710013,478.225137 159.710013,462.587137 C159.710013,426.772137 123.770013,397.748137 79.8600128,397.748137" id="Fill-216" fill="#9B8F80"></path>
                <path d="M109.110013,490.303137 C109.090013,490.303137 109.060013,490.303137 109.040013,490.301137 C107.310013,490.199137 106.280013,489.043137 106.370013,486.396137 C106.790013,473.979137 106.730013,460.342137 105.810013,447.867137 C105.640013,445.551137 106.080013,441.228137 109.390013,441.062137 C109.440013,441.059137 109.500013,441.058137 109.550013,441.058137 C112.400013,441.058137 113.660013,444.805137 113.870013,447.073137 C115.260013,461.881137 113.240013,477.138137 111.580013,486.556137 C111.170013,488.865137 110.230013,490.303137 109.110013,490.303137" id="Fill-217" fill="#6F655B"></path>
                <path d="M46.9000128,490.273137 C46.8300128,490.273137 46.7600128,490.269137 46.6900128,490.261137 C44.6700128,490.026137 44.4600128,488.309137 44.8900128,485.693137 C46.9200128,473.434137 48.2800128,460.381137 48.7400128,447.958137 C48.8300128,445.682137 50.2900128,441.060137 53.4110128,441.060137 C53.4500128,441.060137 53.4900128,441.061137 53.5400128,441.062137 C57.0500128,441.199137 57.7700128,445.257137 57.7400128,447.563137 C57.5400128,462.332137 53.8900128,477.520137 50.7700128,486.716137 C50.0300128,488.902137 48.2400128,490.273137 46.9000128,490.273137" id="Fill-218" fill="#6F655B"></path>
                <path d="M491.620013,394.376137 C535.540013,394.376137 571.480026,423.401137 571.480026,459.215137 C571.490013,474.854137 565.650013,490.442137 552.681013,494.164137 C546.130013,496.033137 539.360013,494.759137 533.681013,493.486137 C529.181013,492.476137 525.370013,491.467137 522.900013,492.022137 C513.080013,494.259137 510.240013,505.023137 491.620013,505.023137 C473.000013,505.023137 470.180013,494.259137 460.350013,492.022137 C457.870013,491.467137 454.060013,492.476137 449.560013,493.486137 C443.880013,494.759137 437.110013,496.033137 430.570013,494.164137 C417.610013,490.442137 411.770013,474.854137 411.770013,459.215137 C411.770013,423.401137 447.710013,394.376137 491.620013,394.376137" id="Fill-219" fill="#9B8F80"></path>
                <path d="M462.370013,486.932137 C461.250013,486.932137 460.311013,485.494137 459.900013,483.184137 C458.240013,473.767137 456.221013,458.510137 457.600013,443.702137 C457.820013,441.434137 459.080013,437.686137 461.930013,437.686137 C461.980013,437.686137 462.040013,437.688137 462.090013,437.691137 C465.400013,437.856137 465.840013,442.180137 465.670013,444.496137 C464.760013,456.970137 464.700013,470.607137 465.110013,483.024137 C465.190013,485.672137 464.170013,486.828137 462.440013,486.930137 C462.420013,486.931137 462.390013,486.932137 462.370013,486.932137" id="Fill-220" fill="#6F655B"></path>
                <path d="M524.570013,486.901137 C523.240013,486.901137 521.450013,485.530137 520.710013,483.344137 C517.590013,474.148137 513.940013,458.961137 513.740013,444.191137 C513.710013,441.885137 514.430013,437.827137 517.940013,437.691137 C517.990013,437.689137 518.030013,437.688137 518.070013,437.688137 C521.190013,437.688137 522.650013,442.310137 522.740013,444.586137 C523.200013,457.009137 524.560013,470.062137 526.590013,482.321137 C527.020013,484.938137 526.810013,486.654137 524.790013,486.889137 C524.720013,486.897137 524.650013,486.901137 524.570013,486.901137" id="Fill-221" fill="#6F655B"></path>
            </g>
        </g>
    </g>
</svg>