<?xml version="1.0" encoding="utf-8"?>
<!-- Generator: Adobe Illustrator 19.0.0, SVG Export Plug-In . SVG Version: 6.00 Build 0)  -->
<svg version="1.1" id="Layer_1" xmlns="http://www.w3.org/2000/svg" xmlns:xlink="http://www.w3.org/1999/xlink" x="0px" y="0px"
	 viewBox="-123 67 660 660" style="enable-background:new -123 67 660 660;" xml:space="preserve">
<style type="text/css">
	.st0{fill:#E4E4E4;}
	.st1{fill:#D1D1D1;}
	.st2{fill:#EFEFEF;}
	.st3{fill:#E0E0E0;}
	.st4{fill:#ECECEC;}
	.st5{fill:#FFFFFF;}
	.st6{fill:#BCBCBC;}
	.st7{fill:#A0A0A0;}
</style>
<circle class="st0" cx="206.7" cy="397" r="255.4"/>
<path class="st1" d="M206.7,141.6c-1.9,0-3.9,0-5.8,0.1c-0.5,0-1,0-1.5,0c-1.8,0.1-3.7,0.1-5.5,0.2c-0.5,0-0.9,0.1-1.4,0.1
	c-1.4,0.1-2.8,0.2-4.2,0.3c-0.7,0.1-1.4,0.1-2.1,0.2c-1.6,0.1-3.2,0.3-4.8,0.4c-0.8,0.1-1.7,0.2-2.5,0.3c-1,0.1-2,0.2-3,0.3
	c-0.9,0.1-1.7,0.2-2.6,0.3C298.7,160,395.5,267.2,395.5,397s-96.8,237-222.1,253.3c0.9,0.1,1.7,0.2,2.6,0.3c1,0.1,2,0.2,3,0.3
	c0.8,0.1,1.7,0.2,2.5,0.3c1.6,0.2,3.2,0.3,4.8,0.4c0.7,0.1,1.4,0.1,2.1,0.2c1.4,0.1,2.8,0.2,4.2,0.3c0.5,0,0.9,0.1,1.4,0.1
	c1.8,0.1,3.7,0.2,5.5,0.2c0.5,0,1,0,1.5,0c1.9,0,3.9,0.1,5.8,0.1c141.1,0,255.4-114.4,255.4-255.4S347.8,141.6,206.7,141.6z"/>
<path class="st2" d="M173.4,374.8L280,313.6c0,0,116.6,24.8,143.5-24.3l8.5-15.5l7.4,16c15.3,33.3,23.4,70.3,23.4,107.1
	c0,84.7-42,163.8-112.2,211.7l-7.3,4.9L173.4,374.8z"/>
<path class="st3" d="M462.2,397c0-44.1-11.2-85.7-30.9-121.9l-7.8,14.3c-9.5,17.2-21.9,34.9-34.3,50.7c4.2,18.3,6.4,37.3,6.4,56.9
	c0,71.3-29.2,135.8-76.4,182.2l23.9,34.7C414.6,568.6,462.2,488,462.2,397z"/>
<path class="st4" d="M206.7,653c-87.5,0-168-44.1-215.5-117.9l-4.5-7L129,408.1l163.7,230.1l-10.4,3.4
	C257.9,649.2,232.5,653,206.7,653z"/>
<path class="st1" d="M293.8,637.8L276.4,613c-30.6,19.3-65.6,32.9-103.1,37.8c10.9,1.4,22.1,1.6,33.4,1.6
	C237.2,652.4,266.7,647.6,293.8,637.8z"/>
<path class="st5" d="M129,408.1l44.4-33.3l170.8,238.3l-8.3,4.9c-11.7,6.9-24.1,12.9-36.7,17.8l-6.5,2.5L129,408.1z"/>
<path class="st5" d="M292.7,638.2c18.2-6.5,35.5-14.9,51.5-25.2l-24.6-34.3c-13.4,13.2-28.2,25-44.3,35L292.7,638.2z"/>
<path class="st5" d="M-17.6,520.2c-7-12.7-13-26.1-17.7-39.8l-2.1-8.1l299.7-208.6l44.4,33.3l-320,231L-17.6,520.2z"/>
<path class="st6" d="M333.6,391.2c-15.7-16.4-94.1-100.8-94.1-149.7c0-55.4,45.1-100.5,100.5-100.5s100.5,45.1,100.5,100.5
	c0,48.9-78.4,133.3-94.1,149.7l0,0C342.9,394.9,337.1,394.9,333.6,391.2L333.6,391.2z"/>
<path class="st7" d="M340,275.4c-24.8,0-45-20.2-45-45s20.2-45,45-45c24.8,0,45,20.2,45,45S364.8,275.4,340,275.4z"/>
<path class="st5" d="M95.7,327.6c29.1,0,52.8-23.7,52.8-52.8c0-4.6-3.7-8.3-8.3-8.3h-33.3c-4.6,0-8.3,3.7-8.3,8.3
	c0,4.6,3.7,8.3,8.3,8.3h24c-3.8,15.9-18.1,27.8-35.1,27.8c-19.9,0-36.1-16.2-36.1-36.1s16.2-36.1,36.1-36.1c8.8,0,17.3,3.2,23.9,9
	c3.5,3,8.7,2.7,11.8-0.7c3-3.4,2.7-8.7-0.7-11.8c-9.6-8.5-22-13.2-34.9-13.2c-29.1,0-52.8,23.7-52.8,52.8S66.6,327.6,95.7,327.6z"/>
</svg>
